<svg width="604" height="581" viewBox="0 0 604 581" fill="none" xmlns="http://www.w3.org/2000/svg">
<g clip-path="url(#clip0_7268_12549)">
<path d="M47.93 565.38L48.03 565.14C48.03 565.14 48.27 565.22 48.28 565.21C49.25 558.59 47.05 551.55 51.13 545.34C53.47 541.78 53.85 537.58 54.59 533.52C56.75 528.46 61.76 524.95 62.38 519.06C67.38 512.83 73.32 507.58 79.55 502.64C81.36 504.51 82.45 502.82 83.71 501.82C94.74 493.02 106.13 484.76 118.27 477.51C122.48 475 127.69 473.54 130.51 469.28C142.07 451.81 156.06 436.29 169.22 420.09C171.88 416.81 176.51 414.54 176.27 409.28L176.22 409.32C180.41 408.26 183.18 405.96 183.3 401.3L183.24 401.36C186.56 401.23 187.71 399.39 187.26 396.28L187.21 396.33C190.81 395.85 190.7 393.37 190.05 390.8C185.96 374.6 182.79 358.17 176.99 342.4C171.1 326.39 166.1 310.1 162.82 293.31C162.29 290.61 163.18 287.13 159.67 285.57C159.6 284.9 159.53 284.23 159.46 283.57C161.32 279.16 161.08 275.09 157.5 271.56C157.48 271.24 157.45 270.91 157.43 270.59C158.9 268.06 159.76 265.59 156.63 263.58C156.5 262.27 156.37 260.96 156.24 259.64C157.04 259.21 157.48 258.53 157.46 257.65C157.29 249.08 158.01 240.49 157.07 231.93C156.89 231.53 156.71 231.12 156.54 230.72C158.26 230.43 158.32 229.1 158.54 227.74C159.42 222.37 160.22 216.98 161.34 211.66C165.76 190.58 173.19 170.47 180.94 150.44C183.27 144.41 187.41 139.2 188.62 132.71C193.82 128.69 196.65 122.76 200.34 117.6C207.02 108.26 213.85 99.17 223.23 92.32C224.06 91.71 224.54 90.39 226.11 91.3C228.66 92.78 229.23 92.48 229.4 89.42C229.57 86.43 229.29 83.41 231.61 81.01C234.43 78.09 235.98 78.45 237.52 82.19C238.16 83.74 237.78 86.01 240.13 86.58C240.3 87.56 240.47 88.54 240.63 89.52C238.62 91.93 239.11 93.58 242.14 94.45C242.29 95.15 242.44 95.85 242.58 96.55C240.47 97.94 241.9 99.61 242.46 100.94C250.04 118.85 260.56 134.66 276.33 146.4C280.56 149.55 284.6 153.74 290.67 153.43L290.59 153.37C290.91 156.22 293.3 156.79 295.38 157.71C310.84 164.58 326.64 170.5 342.98 174.9C357.41 178.79 372.13 180.99 387.04 181.5C395.31 181.78 403.61 181.9 411.9 180.68C424.74 178.79 437.4 176.5 449 170.31C450.59 169.46 452.51 168.9 452.38 166.52C452.91 166.16 453.45 165.79 453.98 165.43C454.42 165.54 454.86 165.64 455.29 165.75C455.52 166.61 455.11 167.85 456.29 168.18C457.42 168.49 457.91 167.48 458.42 166.67C462.7 166.72 465.12 163.3 468.23 161.25C471.15 159.32 472.92 158.38 473.57 163.13C473.97 166.03 475.43 168.78 476.41 171.59C476.29 175.82 478.38 179.58 478.99 183.68C480.32 192.7 481.96 201.67 483.47 210.67C468.26 191.97 447.18 187.51 425.4 184.61C420.08 184.61 414.76 184.61 409.44 184.61C406.73 184.13 404.23 185.32 401.61 185.59C384.79 187.31 369.49 193.11 356.21 203.58C352.99 206.11 348.49 207.76 347.44 212.56C346.19 213.6 344.93 214.64 343.68 215.68C340.03 215.88 338.59 219.1 336.42 221.19C327.5 229.79 318.87 238.65 312.77 249.62C311.89 251.21 310.14 252.71 313.37 253.58C312.47 256.8 310.96 259.74 309.3 262.61C301.72 260.26 296.46 255.09 292.85 248.31C285.53 234.56 287.22 220.07 289.97 205.6C290.42 203.21 290.45 200.96 290.34 197.82C283.81 208.24 282.57 217.63 284.36 234.62C286.68 256.57 303.06 270.47 324.68 270.7C340.53 270.86 355.49 266.52 370.6 262.9C389.05 258.48 407.49 254.79 426.63 255.51C441.55 256.07 452.62 265.1 455.26 279.69C456.92 288.85 455.95 291.09 447.64 294.94C433.16 301.65 418.63 308.25 404.06 314.75C379.65 325.63 355.4 336.94 329.23 343.25C310.86 347.68 292.49 350.05 273.78 345.65C245.25 338.93 230.12 319.38 228.43 291.85C227.15 270.95 233.3 251.85 242.09 233.35C247.88 221.16 255.06 209.8 262.88 198.82C263.69 197.68 265.41 196.26 263.59 195.05C261.94 193.96 261.14 195.86 260.21 197.03C252.57 206.71 246.18 217.16 240.48 228.07C228.36 251.23 221.22 275.42 225.53 301.86C227.65 314.85 233.21 326.27 242.99 335.19C255.98 347.03 271.89 351.59 289.07 352.55C290.54 352.63 292.23 352.3 292.34 354.57C291.16 355.6 290.68 356.98 290.45 358.46C289.16 366.65 290.59 374.62 292.48 382.55C292.17 387.09 293.57 391.33 295.63 395.17C296.86 397.46 296.6 401.35 300.67 401.48C300.89 401.86 301.12 402.23 301.34 402.61C299.4 405.31 301.69 406.94 303.08 408.54C308.57 414.84 315.62 418.88 323.39 421.63C338.98 427.15 355.17 427.85 371.52 427.64C389.19 427.41 406.1 424.09 422.17 416.7C423.36 416.15 424.64 414.94 426.38 416.74C423.39 418.87 420.68 420.99 417.79 422.84C398.43 435.24 377.95 445.44 356.44 453.56C344.67 458.01 333.08 462.96 320.62 465.4C310.07 467.46 299.62 470.08 289.07 472.13C277.96 474.29 267.35 478.17 256.47 481.12C237.99 486.14 220.3 493.04 203.9 503.2C189.6 512.05 176.3 522.17 163.6 533.09C157.55 538.29 152.17 544.25 147.88 551.04C146.92 552.56 144.38 554.24 149.54 555.12C161.82 557.22 174.27 558.33 186.44 561.25C180.61 561.53 174.8 561.52 168.99 561.54C167.97 561.54 166.8 561.67 166.75 562.94C166.7 564.22 167.84 564.32 168.87 564.5C178.65 566.16 188.45 567.75 198.2 569.58C205.92 571.03 213.93 570.37 222.04 573.03C220.25 573.8 218.49 573.05 217.44 574.37C214.66 574.42 211.87 574.44 209.09 574.52C207.51 574.56 205.62 574.15 205.46 576.65C204.72 577.56 203.76 577.78 202.66 577.57C202.79 574.15 200.3 574.62 198.17 574.54C187.71 574.14 177.27 574.55 166.77 573.77C148.24 572.38 129.61 572.21 111.02 571.53C106.55 571.37 102.11 571.33 97.62 570.77C91.88 570.05 85.59 569.28 80.24 570.89C72.16 573.31 65.52 570.99 58.39 568.26C55.07 566.99 51.78 565.01 47.94 565.38H47.93ZM242.52 122.58C242.35 121.42 242.05 120.31 240.7 120.02C240.12 119.89 239.75 120.3 239.87 120.87C240.15 122.21 241.2 122.58 242.4 122.7C242.36 124.53 242.7 126.05 245.13 126.45C245.03 124.16 243.74 123.4 242.52 122.58ZM233.52 110.59C233.3 109.36 234.01 107.58 231.73 107.5C231.3 109.15 232.25 109.98 233.44 110.66C233.7 112.88 235.19 114.03 236.83 115.04C236.27 113.09 235.9 111 233.52 110.59ZM327.65 180.86C303.26 174.65 281.4 163.68 262.94 146.25C280.34 165.56 302.09 176.77 327.65 180.86ZM248.3 317.71C253.97 332.66 286.08 336.47 295.65 331.59C278.37 331.43 261.08 332.44 248.3 317.71ZM250.28 133.45C252.26 137.58 254.81 139.54 257.8 141.02C256.21 138.02 254.4 135.25 250.28 133.45ZM250.43 132.55C249.47 129.88 248.36 128.38 245.42 127.86C246.49 130.39 247.57 131.92 250.43 132.55ZM239.13 117.88C239.02 117.61 238.98 117.24 238.78 117.11C238.61 117 238.26 117.19 237.99 117.24C238.13 117.58 238.27 117.93 238.41 118.27C238.65 118.14 238.89 118 239.13 117.87V117.88Z" fill="#2B2B2B"/>
<path d="M343.69 215.69C344.94 214.65 346.2 213.61 347.45 212.57C353.15 208.36 358.69 203.92 364.59 200C378.14 190.99 393.6 187.9 409.46 186.25C414.78 186.3 420.1 186.36 425.42 186.41C436.2 188.08 447.02 189.75 456.97 194.53C471.04 201.29 483.55 209.63 486.67 226.59C487.87 231.3 487.11 236.54 490.49 240.66L490.43 240.56C490.02 240.5 489.81 240.68 489.79 241.09C490.96 256.23 489.44 271.3 487.8 286.27C486.01 302.58 482.19 318.6 478.51 334.6C477.89 336.47 477.26 338.34 476.64 340.22C472.56 352.57 470.17 365.42 465.36 377.54C464.3 378.51 463.53 379.64 463.37 381.11C463.23 381.61 463.08 382.11 462.94 382.61C460.65 382.7 460.34 384.92 459.33 386.22C452.96 394.45 445.68 401.52 436.59 406.83C404.53 425.58 370.08 428.83 334.35 422.34C321.21 419.96 309.37 414.19 301.36 402.62C301.14 402.24 300.91 401.87 300.69 401.49C297.18 395.6 296.32 388.71 293.59 382.53C293.54 380.73 293.63 378.92 293.43 377.14C292.59 369.61 291.76 362.09 293.47 354.57C294.37 352.65 295.96 352.39 297.93 352.29C318.24 351.28 337.57 345.9 356.57 339.02C381.45 330.02 405.24 318.51 429.31 307.62C443.16 301.35 457.17 295.48 468.59 285.02C469.98 283.75 471.68 282.84 470.94 280.62C470.29 278.68 468.58 278.5 466.84 278.5C464.43 278.5 462.03 278.5 458.42 278.5C463.07 275.14 466.98 272.94 469.94 269.57C471.09 268.26 472.04 266.81 471.24 265.07C470.51 263.48 468.87 263.53 467.34 263.43C463.86 263.19 460.85 264.59 457.79 265.92C456.59 266.44 455.38 268 454.1 265.78C453.08 264.01 452.54 262.64 454.44 261.04C456.21 259.55 457.69 257.71 459.34 256.06C460.97 254.43 462.38 252.39 461 250.34C459.73 248.46 457.19 249.25 455.42 249.91C452.32 251.06 449.39 252.65 446.42 254.13C445.1 254.79 444 255.63 442.28 254.92C429.98 249.82 417.2 250.48 404.42 252.18C380.17 255.4 356.58 262.13 332.39 265.68C324.4 266.85 316.56 267.11 309.33 262.62C310.99 259.75 312.5 256.81 313.4 253.59C318.09 244.66 324.32 236.9 331.17 229.53C335.4 224.97 340.29 220.98 343.71 215.69H343.69Z" fill="#FDFDFD"/>
<path d="M378.38 496.36C382.45 488.69 382.26 487.87 375.42 483.62C374.27 480.49 372.33 479.63 369.44 481.56C368.69 481.39 367.94 481.22 367.19 481.05C367.39 480.84 367.59 480.64 367.79 480.43C367.18 479.87 367.21 480.75 366.89 480.83C365.71 480.61 364.53 480.4 363.35 480.18C360.81 476 356 476.58 352.34 475.84C342.39 473.83 332.26 472.64 321.63 469.95C327.89 467.74 333.44 465.71 339.03 463.83C370.84 453.15 401.07 439.23 428.37 419.51C437.11 413.19 446.03 406.84 452.68 398.29C455.98 394.05 458.94 392.93 463.56 394.72C464.95 395.26 466.36 395.76 467.78 396.24C481.85 400.94 495 407.64 507.9 414.83C520.92 422.09 532.24 431.3 541.1 443.52C550.71 456.78 546.15 466.53 535.95 474.84C521.48 486.64 505.16 495.53 489.29 505.17C472.28 515.5 454.89 525.28 439.51 538.09C434.59 542.18 430.26 546.78 428.76 553.25C428.26 555.41 427.49 558.09 430.47 559.29C444.53 564.92 459.2 568.24 474.12 570.52C481.24 571.61 488.37 572.62 495.5 573.67C485.62 575.86 475.76 576.94 465.79 576.47C453.2 575.88 440.63 574.79 428.04 574.62C404.89 574.3 381.74 574.49 358.59 574.48C349.65 574.48 344.42 569.67 343.46 560.49C343.32 559.12 343.28 557.81 341.75 557.21C341.9 556.66 342.05 556.12 342.2 555.57C342.99 555.51 343.99 555.57 344.02 554.48C344.04 553.7 343.24 553.61 342.6 553.54C343.1 550.71 343.64 547.88 345.46 545.52C347.55 545.59 348.16 543.98 348.97 542.52C353.94 533.57 359.9 525.25 365.52 516.72C369 511.44 374.16 507.11 375.4 500.46L375.37 500.5C378.16 500.41 378.52 498.56 378.37 496.35L378.38 496.36Z" fill="#2B2B2B"/>
<path d="M341.76 557.22C343.29 557.82 343.32 559.12 343.47 560.5C344.42 569.69 349.65 574.49 358.6 574.49C381.75 574.51 404.91 574.31 428.05 574.63C440.64 574.8 453.22 575.89 465.8 576.48C475.77 576.95 485.64 575.87 495.51 573.68C488.38 572.63 481.25 571.61 474.13 570.53C459.2 568.25 444.54 564.94 430.48 559.3C427.5 558.11 428.27 555.42 428.77 553.26C430.27 546.78 434.61 542.19 439.52 538.1C454.9 525.3 472.29 515.52 489.3 505.18C505.16 495.54 521.48 486.65 535.96 474.85C546.16 466.53 550.72 456.79 541.11 443.53C532.25 431.31 520.93 422.1 507.91 414.84C495.01 407.64 481.86 400.95 467.79 396.25C466.37 395.78 464.96 395.27 463.57 394.73C458.95 392.94 455.99 394.05 452.69 398.3C446.05 406.85 437.13 413.2 428.38 419.52C401.07 439.24 370.85 453.16 339.04 463.84C333.44 465.72 327.9 467.75 321.64 469.96C332.28 472.65 342.4 473.84 352.35 475.85C356 476.59 360.81 476 363.36 480.19C345.14 477.62 326.98 474.58 308.69 472.68C299.78 471.76 290.8 474.37 282.23 476.89C261.06 483.12 239.11 487.83 219.53 497.97C194.6 510.89 171.11 526.46 153.24 548.98C150.69 552.2 151.66 552.88 155.03 553.38C167.35 555.22 179.74 556.71 191.88 559.58C194.98 560.31 197.98 561.49 200.9 562.98C196.6 565.33 192.04 563.6 186.36 564.98C197.96 567.24 208.3 568.38 218.64 569.48C221.95 569.83 225.26 570.22 228.54 570.76C229.39 570.9 230.63 571.29 230.45 572.64C230.3 573.81 229.15 573.28 228.5 573.61C225 575.35 221.33 575.9 217.47 575.45C217.45 575.09 217.44 574.73 217.42 574.37C218.47 573.05 220.23 573.8 222.02 573.03C213.91 570.37 205.9 571.03 198.18 569.58C188.43 567.75 178.63 566.16 168.85 564.5C167.82 564.33 166.68 564.22 166.73 562.94C166.78 561.66 167.95 561.54 168.97 561.54C174.78 561.53 180.59 561.54 186.42 561.25C174.25 558.33 161.8 557.22 149.52 555.12C144.36 554.24 146.9 552.56 147.86 551.04C152.15 544.25 157.53 538.3 163.58 533.09C176.28 522.16 189.59 512.05 203.88 503.2C220.28 493.04 237.97 486.14 256.45 481.12C267.33 478.17 277.94 474.28 289.05 472.13C299.61 470.08 310.05 467.46 320.6 465.4C333.06 462.97 344.65 458.01 356.42 453.56C377.92 445.43 398.4 435.24 417.77 422.84C420.66 420.99 423.37 418.87 426.36 416.74C424.62 414.95 423.34 416.15 422.15 416.7C406.07 424.1 389.17 427.42 371.5 427.64C355.15 427.85 338.96 427.15 323.37 421.63C315.6 418.88 308.55 414.84 303.06 408.54C301.67 406.94 299.38 405.32 301.32 402.61C309.33 414.18 321.17 419.94 334.31 422.33C370.04 428.81 404.49 425.57 436.55 406.82C445.64 401.5 452.92 394.44 459.29 386.21C460.3 384.91 460.61 382.69 462.9 382.6C464.64 386.38 459.65 387.42 459.69 390.62C482.08 397.34 503.02 407.23 522.18 420.7C531.09 426.96 538.88 434.43 544.65 443.82C551.32 454.67 550.62 463.02 541.99 472.34C534.22 480.74 524.5 486.61 514.94 492.66C493.88 506 471.92 517.93 451.57 532.39C446.83 535.76 442.42 539.58 437.89 543.22C436.99 543.95 436.12 544.76 435.39 545.65C429.97 552.25 431.37 556.79 439.35 559.4C457.13 565.22 475.31 568.91 493.97 570.35C496.07 570.51 499.11 570.46 499.41 573.35C499.93 578.39 498.03 580.31 493.39 580.5C474.57 581.24 455.77 580.15 436.96 580.03C411.82 579.88 386.67 580.27 361.52 580.42C349.19 580.49 336.88 580.33 324.66 578.43C322.95 578.16 320.53 578.43 320.43 575.93C320.33 573.51 322.35 572.63 324.45 572.29C330.51 571.3 336.58 570.35 342.92 569.35C341.35 565.36 340.55 561.37 341.74 557.23L341.76 557.22Z" fill="#0F0F0F"/>
<path d="M54.59 533.53C53.85 537.59 53.47 541.8 51.13 545.35C47.05 551.55 49.25 558.6 48.28 565.22C46.09 562.71 45.6 559.77 45.59 556.5C45.47 521.71 52.53 488.11 62.26 454.94C66.42 440.76 71.43 426.86 76.75 412.89C73.69 411.88 71.16 413.73 68.41 413.76C52.26 413.98 42.39 404.5 34.57 391.98C32.84 389.21 31.69 385.97 30.76 382.81C27.09 370.42 31.81 359.32 43.46 353.6C46.78 351.97 47.44 350.78 45.53 347.51C43.6 344.21 42.02 340.74 39.4 337.87C36.49 334.67 37.21 331.98 41.44 330.59C45.23 329.34 49.08 328.49 53.14 328.46C66.34 328.35 79.1 329.64 90.25 339.17C92.09 331.56 93.7 324.39 95.55 317.28C105.8 277.84 116.96 238.66 135.64 202.19C157.85 158.84 186.38 120.2 223.26 88.06C225.23 86.34 226.46 84.36 227.44 82.02C229.3 77.59 234.38 74.4 238.39 74.94C238.48 75.94 238.57 76.95 238.66 77.95C238.1 81.02 240.57 83.57 240.15 86.61C237.8 86.04 238.18 83.77 237.54 82.22C236 78.48 234.45 78.11 231.63 81.04C229.31 83.45 229.58 86.46 229.42 89.45C229.25 92.51 228.68 92.8 226.13 91.33C224.56 90.42 224.08 91.75 223.25 92.35C213.88 99.2 207.04 108.29 200.36 117.63C196.66 122.8 193.84 128.72 188.64 132.74L188.47 132.59C188.98 129.04 192.19 126.65 192.43 122.88C190.07 126.13 186.27 128.27 185.5 132.66C183.86 132.7 183.39 134.17 182.61 135.15C165.75 156.48 150.85 179.08 138.51 203.34C125.42 229.07 116.11 256.24 107.87 283.8C99.01 313.45 91.81 343.46 87.42 374.15C85.31 388.9 83.49 403.63 77.98 417.87C63.48 455.34 52.56 493.82 49.53 534.16C49.35 536.53 47.29 538.97 49.8 541.81C51.14 538.8 52.32 536.15 53.51 533.49C53.88 533.49 54.25 533.5 54.62 533.51L54.59 533.53ZM56.88 332.57C53.37 332.44 49.96 332.8 46.49 333.43C42.75 334.11 42.95 335.73 44.62 338.16C46.58 341.02 48.3 343.99 49.9 347.08C51.87 350.89 51.68 352.6 47.24 354.39C35.71 359.04 29.74 368.29 31.71 378.17C34.32 391.27 42.02 400.8 53.45 407.6C60.54 411.81 67.78 411.6 75.38 409.66C77.51 409.11 78.66 407.96 79.08 406.14C80.01 402.12 80.84 398.06 81.44 393.98C83.6 379.44 85.31 364.83 87.91 350.38C88.9 344.89 87.02 342.02 82.92 339.23C74.99 333.85 66.05 332.8 56.87 332.57H56.88Z" fill="#151515"/>
<path d="M478.48 334.59C482.16 318.59 485.99 302.57 487.77 286.26C489.41 271.29 490.93 256.22 489.76 241.08C490.27 241.26 490.79 241.43 491.3 241.61C493.09 247.35 496.67 249.73 503.4 249.39C513.39 248.88 522.38 244.76 531.6 241.46C547.71 235.69 562.43 226.62 578.8 221.45C581.01 220.75 581.37 218.53 582.72 217.13C583.73 216.08 584.43 214.34 586.22 214.92C588.17 215.55 586.64 217.51 587.12 219.23C590.27 217.33 593.03 215.58 595.88 213.99C597.18 213.26 598.85 212.64 600.1 213.73C601.72 215.15 600.5 216.81 599.82 218.27C598.68 220.72 596.94 222.77 594.99 224.57C593.29 226.15 592.84 227.81 593.81 229.98C596.03 229.62 598.09 228.33 600.46 228.66C601.64 228.82 602.82 228.96 603.41 230.16C604.11 231.57 603.51 232.77 602.52 233.76C601.7 234.58 600.87 235.61 599.84 235.95C593.74 237.98 591.69 243 589.31 248.39C582.51 263.75 570.47 274.83 557.28 284.6C535.08 301.05 511.79 315.79 486.86 327.83C483.8 329.31 480.98 330.84 480.31 334.56L478.45 334.59H478.48ZM596.37 217.59C595.89 217.68 595.35 217.66 594.93 217.87C593.21 218.75 591.12 219.31 590.78 221.62C590.71 222.06 591.39 222.99 591.82 223.06C594.52 223.49 594.43 220.61 595.82 219.44C596.23 219.09 596.22 218.24 596.4 217.61C596.53 217.47 596.66 217.33 596.8 217.19C596.66 217.32 596.52 217.46 596.38 217.59H596.37ZM483.27 324.18C486.03 324.11 487.67 323.25 489.4 322.26C498.92 316.85 508.58 311.7 518.06 306.23C540.11 293.51 561.33 279.63 578.2 260.18C584.81 252.56 589.84 243.89 590.32 233.45C590.76 224.11 587.7 222 578.87 224.87C563.65 229.83 550.01 238.37 535.16 244.12C521.93 249.23 508.71 255.11 493.64 251.38C490.45 275.57 490.47 300.18 483.27 324.17V324.18ZM599.79 232.66C594.65 232.18 594.29 232.45 594.08 236.32C596.12 235.01 597.95 233.84 599.79 232.66Z" fill="#101010"/>
<path d="M47.93 565.38C51.77 565.01 55.06 566.98 58.38 568.26C65.5 570.99 72.14 573.31 80.23 570.89C85.58 569.29 91.87 570.06 97.61 570.77C102.1 571.33 106.54 571.37 111.01 571.53C129.6 572.21 148.22 572.38 166.76 573.77C177.25 574.56 187.7 574.15 198.16 574.54C200.3 574.62 202.78 574.15 202.65 577.57C192.56 579.11 182.4 578.49 172.27 578.5C133.8 578.55 95.32 578.65 56.85 578.45C40.7 578.37 24.54 577.79 8.43001 576.54C6.94001 576.42 5.44001 576.26 4.00001 575.89C2.37001 575.47 -0.249987 575.79 0.0500125 573.15C0.290013 571.04 2.44001 570.59 4.33001 570.47C14.97 569.8 25.6 569.15 36.24 568.53C39.23 568.36 42.24 568.17 45.23 568.23C47.38 568.27 48.37 567.59 47.95 565.37L47.93 565.38Z" fill="#090909"/>
<path d="M469.48 79.8C471.19 84.39 473.82 88.65 474.34 93.65C473.98 93.68 473.61 93.71 473.25 93.74C471.22 92.57 471.67 90.27 470.88 88.53C469.79 86.13 468.88 83.17 466.58 82.14C464.63 81.27 465.16 85.69 462.63 85.59C462.51 84.24 464.81 82.34 461.99 81.64C460.38 81.24 459 81.69 458.21 83.78C455.5 91 450.29 96.17 443.83 100.17C443.18 100.57 442.14 100.79 442.53 101.89C442.91 102.93 443.76 102.58 444.57 102.43C447.47 101.89 450.37 101.43 453.28 100.93C453.31 101.47 453.34 102.02 453.37 102.56C451.79 102.96 450.17 103.23 448.65 103.79C447.22 104.32 444.3 104.24 444.83 105.9C445.7 108.64 443.03 112.05 446.06 114.01C451.35 117.44 450.94 122.01 449.3 127.01C442.66 133.68 435.03 138.69 425.56 140.13C415.58 141.65 405.5 142.43 397.06 135.35C394.99 133.61 394.16 133.61 392.01 135C380.88 142.19 370.17 150.14 357.81 155.25C344 160.96 330.73 157.62 324.28 146.94C324.7 146.47 325.12 145.99 325.55 145.52C329.1 148.42 331.74 152.27 336.46 153.96C344.29 156.77 351.52 155.21 358.63 152.07C369.93 147.08 379.81 139.68 390.21 133.15C391.59 132.28 393.17 131.14 393.77 129.75C396.45 123.52 401.84 120.76 407.63 118.3C406.87 116.51 404.21 116.04 404.44 113.65C406.12 113.27 407.19 114.31 408.42 115.2C414.96 119.92 422.28 122.09 430.34 121.68C438.68 121.25 443.75 112.76 440.21 105.21C439.29 103.26 438.27 101.37 437.29 99.45C438.85 96.64 434.81 96.4 434.8 93.17C434.76 84.68 436 75.94 433.47 67.54C436.96 68.77 437.01 71.93 437.37 74.79C437.64 76.94 437.92 78.85 440.69 78.74C450.25 78.38 459.84 80.74 469.37 78.38C469.41 78.86 469.46 79.34 469.5 79.82L469.48 79.8ZM415.97 122.23C409.12 117.51 404.53 122.61 399.85 125.79C395.59 128.69 396.1 131.92 400.59 134.71C412.12 141.87 436.4 137.83 444.99 127.32C446.73 125.19 447.98 122.9 447.54 120.02C447.18 117.67 445.56 116.07 443.46 116.72C441.77 117.25 439.37 118.79 440.89 121.48C442.64 124.56 440.72 126.22 438.64 127.65C432.81 131.66 426.25 133.11 419.23 132.83C415.7 132.69 411.61 132.94 410.22 129.04C408.68 124.73 413.79 124.71 415.97 122.22V122.23ZM451.3 86.91C451.47 85.68 451.32 84.92 450.44 84.5C449.57 84.09 448.61 84.3 448.32 85.08C447.02 88.62 444.4 91.07 441.81 93.58C441.19 94.18 441.09 95.09 441.52 95.87C441.99 96.71 442.96 96.93 443.63 96.42C447.06 93.82 450.11 90.88 451.3 86.91Z" fill="#0E0D0D"/>
<path d="M469.48 79.8C469.44 79.32 469.39 78.84 469.35 78.36C471.34 75.98 469.27 74.66 467.85 73.49C459.05 66.26 451.08 57.64 438.86 55.92C439.62 54.17 440.95 54.8 441.99 54.61C443.07 54.42 444.48 55.05 445.1 53.71C445.79 52.22 444.6 51.16 443.75 50.22C442.65 49.01 441.29 48.03 440.05 46.94C438.66 45.73 436.05 45.93 435.8 43.37C438.11 41.37 439.9 45.4 442.14 43.86C439.51 37.18 435.23 34.54 427.44 34.75C427.44 34.43 427.44 34.11 427.44 33.78C429.05 33.26 430.65 32.73 432.47 32.14C424.55 26.91 422.29 26.53 420.91 30.76C417.61 23.37 411.04 21.28 404.5 19.32C400.06 17.99 395.5 16.96 390.94 16.14C380.21 14.2 369.47 13.86 358.79 16.7C354.98 17.72 351.78 19.74 349.08 22.51C346.77 24.86 349.37 27.14 349.48 29.48C349.53 30.47 349.87 31.64 348.42 31.74C347.2 31.83 346.66 30.74 346.6 29.76C346.27 24.4 343.27 24.19 339.08 25.49C337.21 26.07 335.12 25.88 333.15 26.16C317.64 28.38 303.49 34.32 289.94 41.92C289.45 41.48 288.95 41.05 288.46 40.61C286.21 36.9 284.38 32.94 283.56 28.72C283.05 26.09 282.67 23.15 284.48 20.64C284.95 20.67 285.41 20.71 285.88 20.74C285.3 23.56 285.3 26.31 286.42 29.04C289.35 36.17 292.24 37.35 298.99 33.92C303.14 31.81 307.44 30.12 311.86 28.67C322.16 25.3 332.58 22.53 343.78 22.39C340.78 16.85 338.23 11.79 333.17 8.31999C325.28 2.92999 316.74 1.64999 307.56 3.02999C307.54 2.58999 307.52 2.15999 307.5 1.71999C319.37 -2.93001 335.32 2.03999 342.91 13.82C345.91 18.48 347.26 19.39 352.48 16.55C359.63 12.66 368.07 11.81 376.26 12.07C387.6 12.43 399.04 13.71 409.41 18.25C418.3 22.14 427.46 25.59 435.9 30.46C438.12 31.74 439.24 31.31 441.05 29.96C445.18 26.87 449.6 24.27 454.78 23.16C460.77 21.88 465.53 23.65 469.39 28.34C479.94 41.17 480.13 53.68 469.65 66.46C467.93 68.56 468.54 69.57 469.96 71.32C472.22 74.11 473.69 77.2 469.51 79.8H469.48ZM452.12 56.7C455.27 58.97 457.92 60.9 460.6 62.8C465.46 66.24 467.4 65.89 470.87 61C476.52 53.05 475.73 43.31 468.56 32.75C463.85 25.81 459.12 24.15 451.53 27.16C448.78 28.25 446.31 30.06 443.67 31.44C441.08 32.79 441.03 34.32 442.68 36.61C444.9 39.7 446.39 42.93 445.92 47.14C445.45 51.38 449.1 53.52 453.27 52.3C455.1 51.77 456.89 50.02 459.38 51.45C457.69 54.17 455.06 54.92 452.14 56.69L452.12 56.7Z" fill="#151515"/>
<path d="M486.66 226.58C483.54 209.62 471.03 201.28 456.96 194.52C447.01 189.74 436.19 188.07 425.41 186.4C425.41 185.81 425.41 185.21 425.41 184.62C447.19 187.52 468.27 191.98 483.48 210.68C481.97 201.69 480.34 192.71 479 183.69C478.39 179.59 476.3 175.83 476.42 171.6C476.95 171.54 477.48 171.48 478.02 171.42C483.18 189.44 485.05 208.07 488.19 226.47C487.68 226.5 487.17 226.54 486.66 226.57V226.58Z" fill="#1D1D1D"/>
<path d="M478.02 171.43C477.49 171.49 476.96 171.55 476.42 171.61C475.44 168.79 473.97 166.05 473.58 163.15C472.93 158.4 471.16 159.34 468.24 161.27C465.13 163.32 462.71 166.74 458.43 166.69C457.68 165.4 456.48 165.62 455.3 165.77C454.86 165.66 454.42 165.56 453.99 165.45C459.83 161.58 464.41 156.35 469.21 151.36C470.7 154.28 466.48 155.52 466.93 158.37C472.16 155.42 473.77 153.37 473.58 150.01C472.13 150.6 471.01 152.24 469.16 151.41C470.36 149.68 471.58 147.96 472.74 146.2C473.44 145.14 474.34 144.1 473.6 142.66C472.67 140.87 471.34 142.08 470.2 142.24C468.52 142.47 466.97 142.07 465.43 141.53C465.42 141.09 465.41 140.64 465.4 140.2C467.5 139.96 470.53 142.24 471.25 138.24C471.82 135.07 472.09 131.84 472.49 128.64C473.01 128.64 473.52 128.64 474.04 128.64C473.83 130.93 473.83 133.27 473.33 135.5C472.9 137.42 473.08 138.83 474.3 140.47C477.69 145 477.62 149.93 475.05 154.8C474.26 156.29 474.3 157.57 474.7 159.04C475.83 163.17 476.92 167.3 478.02 171.44V171.43Z" fill="#151515"/>
<path d="M288.45 40.63C288.94 41.07 289.44 41.5 289.93 41.94C289.16 42.55 288.46 43.27 287.62 43.77C272.7 52.7 258.52 62.63 245.31 73.97C243.44 75.58 241.43 77.6 238.64 77.97C238.55 76.97 238.46 75.96 238.37 74.96C240.73 76.37 241.6 74.04 242.79 73.01C256.93 60.69 271.94 49.62 288.44 40.64L288.45 40.63Z" fill="#2B2B2B"/>
<path d="M478.48 334.59L480.34 334.56C476.52 349.14 473.25 363.88 467.21 377.78C466.59 377.7 465.96 377.61 465.34 377.53C470.16 365.41 472.55 352.55 476.62 340.21C477.24 338.34 477.86 336.47 478.49 334.59H478.48Z" fill="#2B2B2B"/>
<path d="M375.4 500.47C374.16 507.12 369 511.45 365.52 516.73C359.89 525.26 353.94 533.58 348.97 542.53C348.16 543.99 347.55 545.6 345.46 545.53C349.43 535.16 356.25 526.51 362.53 517.56C366.62 511.73 371.1 506.16 375.4 500.47Z" fill="#1D1D1D"/>
<path d="M474.03 128.65C473.51 128.65 473 128.65 472.48 128.65C472.55 121.91 473.92 115.24 473.4 108.47C473.24 106.33 474.37 105.44 476.47 105.87C477.38 106.06 478.47 106.91 479.11 105.77C479.8 104.56 478.71 103.67 478.03 102.75C476 99.98 473.5 97.46 473.24 93.75C473.6 93.72 473.97 93.69 474.33 93.66C477.55 99.06 481.24 104.13 485.95 108.73C483 110.68 480.51 110.08 478.03 109.13C475.9 108.31 475.23 108.79 475.17 111.25C475.02 117.06 474.44 122.85 474.03 128.65Z" fill="#1D1D1D"/>
<path d="M285.86 20.75C285.39 20.72 284.93 20.68 284.46 20.65C288.75 10.23 297.19 4.85 307.47 1.72C307.49 2.16 307.51 2.59 307.53 3.03C298.9 7.22 291.27 12.63 285.85 20.75H285.86Z" fill="#1D1D1D"/>
<path d="M486.66 226.58C487.17 226.55 487.68 226.51 488.19 226.48C489.35 231.14 491.08 235.71 490.48 240.65C487.11 236.53 487.87 231.29 486.66 226.58Z" fill="#2B2B2B"/>
<path d="M217.42 574.38C217.44 574.74 217.45 575.1 217.47 575.46C213.52 576.51 209.49 576.63 205.44 576.66C205.6 574.17 207.49 574.58 209.07 574.53C211.85 574.45 214.64 574.43 217.42 574.38Z" fill="#090909"/>
<path d="M369.43 481.55C372.32 479.62 374.26 480.48 375.41 483.61C373.42 482.92 371.42 482.24 369.43 481.55Z" fill="#1D1D1D"/>
<path d="M378.38 496.36C378.53 498.57 378.16 500.42 375.38 500.51C376.38 499.13 377.38 497.74 378.38 496.36Z" fill="#1D1D1D"/>
<path d="M465.33 377.54C465.95 377.62 466.58 377.71 467.2 377.79C466.01 379.01 466.76 382.49 463.34 381.1C463.5 379.63 464.27 378.5 465.33 377.53V377.54Z" fill="#0F0F0F"/>
<path d="M342.61 553.55C343.26 553.62 344.06 553.71 344.03 554.49C344 555.59 343 555.52 342.21 555.58C342.34 554.9 342.47 554.23 342.61 553.55Z" fill="#0F0F0F"/>
<path d="M491.31 241.62C490.8 241.44 490.28 241.27 489.77 241.09C489.79 240.68 490.01 240.5 490.41 240.56C491.05 240.63 491.44 240.9 491.31 241.62Z" fill="#2B2B2B"/>
<path d="M53.47 533.52C52.29 536.17 51.1 538.83 49.76 541.84C47.25 539 49.31 536.56 49.49 534.19C52.52 493.85 63.44 455.37 77.94 417.9C83.45 403.66 85.27 388.93 87.38 374.18C91.77 343.49 98.97 313.47 107.83 283.83C116.07 256.26 125.38 229.1 138.47 203.37C150.81 179.11 165.71 156.51 182.57 135.18C183.35 134.19 183.82 132.72 185.46 132.69C185.54 133.01 185.63 133.34 185.71 133.66C184.31 137.74 181.3 141.08 180.36 145.37C179.27 146.2 178.88 147.36 178.77 148.66C178.61 149.14 178.45 149.62 178.29 150.1C176.96 151.73 176.16 153.58 175.89 155.67C174.97 157.62 173.73 159.45 173.63 161.7C172.98 163.35 172.33 165.01 171.68 166.66C170.66 169.67 169.64 172.68 168.61 175.69C168.39 176.35 168.17 177.01 167.96 177.67C161.97 194.91 157.76 212.53 156.52 230.78C156.7 231.18 156.88 231.59 157.05 231.99C154.11 241.15 155.27 250.43 156.22 259.71C156.35 261.02 156.48 262.33 156.61 263.65L157.41 270.66C157.43 270.98 157.46 271.31 157.48 271.63C157.53 275.73 158.38 279.7 159.44 283.64C159.51 284.31 159.58 284.98 159.65 285.64C162.49 309.03 170.19 331.16 177.17 353.48C181.03 365.82 184.97 378.14 188.09 390.69C188.61 392.78 188.26 394.61 187.19 396.39L187.24 396.34C185.44 397.67 184.37 399.57 183.22 401.42L183.28 401.36C180.92 404.03 178.56 406.7 176.2 409.38L176.25 409.34C173.26 411.53 171.34 414.7 169.01 417.47C155.31 433.77 141.1 449.68 129.53 467.65C128.39 469.42 126.78 470.41 124.98 471.36C108.57 479.97 93.21 490.11 79.54 502.69C73.31 507.63 67.37 512.88 62.37 519.11C58.09 523.11 55.03 527.87 53.46 533.55L53.47 533.52Z" fill="#FCFCFC"/>
<path d="M238.64 77.96C241.43 77.6 243.44 75.57 245.31 73.96C258.52 62.62 272.7 52.69 287.62 43.76C288.45 43.26 289.16 42.55 289.93 41.93C303.48 34.33 317.64 28.39 333.14 26.17C335.11 25.89 337.2 26.08 339.07 25.5C343.26 24.2 346.26 24.41 346.59 29.77C346.65 30.75 347.19 31.84 348.41 31.75C349.86 31.64 349.51 30.47 349.47 29.49C349.36 27.16 346.77 24.88 349.07 22.52C351.78 19.76 354.98 17.73 358.78 16.71C369.45 13.86 380.19 14.21 390.93 16.15C395.5 16.97 400.05 18.01 404.49 19.33C411.03 21.28 417.61 23.38 420.9 30.77C422.28 26.54 424.54 26.92 432.46 32.15C430.64 32.74 429.03 33.27 427.43 33.79C426.51 34.12 425.54 34.34 424.69 34.79C422.24 36.1 420.7 40.16 416.86 37.23C416.48 36.94 415.4 37.31 415.4 38.12C415.4 38.66 415.79 39.49 416.24 39.71C420.99 41.95 421.09 46.8 422.61 50.85C423.27 54.39 422.83 58.14 424.94 61.42C424.65 57.57 425.05 53.66 423.49 49.96C423.54 49.22 423.58 48.49 423.63 47.75C425.28 48.07 425.41 49.81 426.41 50.73C426.56 51.84 426.94 52.8 428.06 53.29C428.28 53.9 428.49 54.51 428.71 55.12C429.07 55.99 429.43 56.85 429.78 57.72C430.81 60.51 431.83 63.3 432.86 66.1C433.06 66.58 433.26 67.05 433.46 67.53C436 75.94 434.76 84.67 434.79 93.16C434.8 96.39 438.85 96.62 437.28 99.44C434.59 99.05 432.45 100.32 430.34 101.7C427.51 103.56 424.36 104.4 421.44 102.44C416.73 99.29 411.81 98.29 406.35 99.64C406.11 96.14 408.6 93.16 408.22 89.64C408.91 85.25 408.83 80.91 407.44 76.64C408.12 75.78 408.38 74.8 408.27 73.72C408.67 71.45 408.98 69.15 409.48 66.9C411.01 59.98 406.46 54.63 404.83 48.53C404.74 47.65 404.65 46.77 404.56 45.89C405.64 45.83 406.46 45.51 406.59 44.24C406.95 40.89 403.32 35.98 399.31 34.86C400.64 36.73 403 38.3 400.47 40.55C394.24 30.47 385.3 27.73 371.48 31.68L370.14 31.55C369.3 30.05 368.15 30.58 367.23 31.3C361.68 35.62 357.1 40.77 354.07 47.18C353.8 47.76 353.9 48.5 354.95 48.65C355.98 47.3 357.05 45.91 358.12 44.51C358.64 44.58 359.15 44.65 359.67 44.72C358.6 47.08 357.23 49.36 356.54 51.83C355.63 55.1 353.87 57.02 350.72 58.45C346.24 60.49 342.04 63.2 339.32 67.59C335.05 73.05 334.02 77.47 337.28 79.07C341.12 80.95 340.8 83.55 340.47 86.65C337.4 92.15 334.35 97.65 331.27 103.15C326.39 111.89 322.27 120.91 320.83 130.94C320 136.7 320.67 142.14 324.27 146.95C330.72 157.63 343.99 160.97 357.8 155.26C370.16 150.15 380.87 142.21 392 135.01C394.15 133.62 394.98 133.62 397.05 135.36C405.5 142.44 415.57 141.66 425.55 140.14C435.02 138.7 442.65 133.69 449.29 127.02C449.11 127.26 449.15 127.47 449.4 127.63C451.92 135.5 457.52 139.83 465.4 141.53C466.94 142.08 468.49 142.47 470.17 142.24C471.31 142.09 472.64 140.88 473.57 142.66C474.32 144.1 473.42 145.14 472.71 146.2C471.55 147.96 470.33 149.67 469.13 151.41L469.18 151.36C464.38 156.35 459.8 161.58 453.96 165.45C453.43 165.81 452.89 166.18 452.36 166.54C440.6 172.64 428.27 176.37 414.97 177.76C392.08 180.17 369.49 179.06 347.14 173.85C327.5 169.27 308.85 161.81 290.57 153.39L290.65 153.45C267.77 140.28 252 121.1 242.57 96.57C242.42 95.87 242.27 95.17 242.13 94.47C241.76 92.79 241.73 91 240.62 89.54C240.45 88.56 240.28 87.58 240.12 86.6C240.53 83.56 238.06 81.01 238.63 77.94L238.64 77.96ZM308.62 76.01C301.84 81.62 292.21 104.76 294.24 110.79C296.89 98.31 302.99 87.26 308.62 76.01ZM426.2 67.84C423.73 71.74 423.54 89.38 426.2 92.98V67.84ZM409.45 94.58C413.88 95.27 418.3 95.99 422.51 97.6C418.73 94.06 414.44 92.76 409.45 94.58Z" fill="#FBFBFB"/>
<path d="M309.31 262.62C316.54 267.11 324.38 266.86 332.37 265.68C356.56 262.13 380.15 255.39 404.4 252.18C417.18 250.48 429.96 249.82 442.26 254.92C443.98 255.63 445.07 254.79 446.4 254.13C449.37 252.65 452.3 251.06 455.4 249.91C457.18 249.25 459.71 248.45 460.98 250.34C462.37 252.39 460.95 254.43 459.32 256.06C457.67 257.71 456.2 259.55 454.42 261.04C452.52 262.63 453.05 264.01 454.08 265.78C455.36 268 456.57 266.44 457.77 265.92C460.83 264.58 463.84 263.18 467.32 263.43C468.85 263.54 470.49 263.49 471.22 265.07C472.02 266.81 471.07 268.26 469.92 269.57C466.96 272.95 463.05 275.14 458.4 278.5C462.01 278.5 464.42 278.5 466.82 278.5C468.56 278.5 470.27 278.68 470.92 280.62C471.66 282.84 469.96 283.75 468.57 285.02C457.15 295.49 443.14 301.36 429.29 307.62C405.22 318.51 381.43 330.02 356.55 339.02C337.55 345.9 318.22 351.28 297.91 352.29C295.94 352.39 294.35 352.65 293.45 354.57C293.08 354.57 292.71 354.57 292.33 354.57C292.23 352.3 290.54 352.63 289.06 352.55C271.88 351.59 255.97 347.03 242.98 335.19C233.2 326.27 227.64 314.85 225.52 301.86C221.21 275.41 228.35 251.23 240.47 228.07C246.18 217.16 252.57 206.71 260.2 197.03C261.13 195.85 261.93 193.95 263.58 195.05C265.41 196.26 263.68 197.68 262.87 198.82C255.05 209.8 247.87 221.16 242.08 233.35C233.29 251.85 227.14 270.95 228.42 291.85C230.11 319.38 245.23 338.93 273.77 345.65C292.48 350.05 310.86 347.68 329.22 343.25C355.4 336.94 379.64 325.63 404.05 314.75C418.63 308.25 433.16 301.65 447.63 294.94C455.93 291.09 456.91 288.86 455.25 279.69C452.61 265.1 441.54 256.07 426.62 255.51C407.48 254.79 389.03 258.48 370.59 262.9C355.48 266.52 340.52 270.86 324.67 270.7C303.05 270.48 286.67 256.57 284.35 234.62C282.56 217.63 283.8 208.24 290.33 197.82C290.44 200.96 290.41 203.21 289.96 205.6C287.21 220.07 285.52 234.56 292.84 248.31C296.45 255.09 301.71 260.26 309.29 262.61L309.31 262.62ZM458.88 274.28C460.04 274.29 466.92 269.19 467.55 267.94C467.9 267.26 468.05 266.43 467.33 266.3C464.31 265.77 461.6 266.84 459.02 268.28C458.31 268.68 457.54 269.08 457.03 269.67C456.16 270.68 456.53 271.81 457.11 272.88C457.5 273.61 457.84 274.37 458.88 274.27V274.28ZM446.64 256.64C451.52 260.86 454.1 259.8 457.52 252.67C453.31 252.13 450.43 254.82 446.64 256.64ZM466.75 282.13C465.2 281.3 463.68 280.36 461.82 280.98C460.54 281.4 459.32 282.06 459.46 283.71C459.55 284.76 458.78 286.24 460.14 286.76C461.28 287.2 462.27 286.18 463.14 285.43C464.34 284.39 466.21 284.1 466.75 282.13Z" fill="#090909"/>
<path d="M290.6 153.4C308.88 161.82 327.54 169.27 347.17 173.86C369.52 179.08 392.11 180.18 415 177.77C428.3 176.37 440.63 172.64 452.39 166.55C452.52 168.93 450.6 169.49 449.01 170.34C437.4 176.54 424.75 178.83 411.91 180.71C403.62 181.93 395.32 181.81 387.05 181.53C372.14 181.02 357.42 178.81 342.99 174.93C326.65 170.53 310.85 164.61 295.39 157.74C293.31 156.82 290.93 156.25 290.6 153.4Z" fill="#1D1D1D"/>
<path d="M187.22 396.36C188.3 394.58 188.64 392.75 188.12 390.66C185 378.1 181.05 365.79 177.2 353.45C170.23 331.13 162.52 309 159.68 285.61C163.19 287.17 162.3 290.65 162.83 293.35C166.11 310.14 171.12 326.43 177 342.44C182.8 358.21 185.97 374.63 190.06 390.84C190.71 393.41 190.81 395.89 187.22 396.37V396.36Z" fill="#1D1D1D"/>
<path d="M79.55 502.66C93.22 490.08 108.59 479.94 124.99 471.33C126.79 470.38 128.4 469.39 129.54 467.62C141.12 449.65 155.33 433.74 169.02 417.44C171.35 414.67 173.26 411.5 176.26 409.31C176.5 414.57 171.87 416.84 169.21 420.12C156.05 436.32 142.06 451.84 130.5 469.31C127.68 473.57 122.47 475.02 118.26 477.54C106.12 484.79 94.73 493.05 83.7 501.85C82.44 502.85 81.35 504.53 79.54 502.67L79.55 502.66Z" fill="#1D1D1D"/>
<path d="M173.64 161.67C173.74 159.42 174.98 157.59 175.9 155.64C178.5 154.56 178.5 152.36 178.3 150.07C178.46 149.59 178.62 149.11 178.78 148.63C180.81 148.26 180.44 146.73 180.37 145.34C181.31 141.05 184.32 137.71 185.72 133.63C186.63 133.28 187.54 132.94 188.44 132.59L188.61 132.74C187.4 139.22 183.27 144.44 180.93 150.47C173.17 170.5 165.75 190.61 161.33 211.69C160.21 217.01 159.41 222.4 158.53 227.77C158.31 229.12 158.25 230.46 156.53 230.75C157.77 212.49 161.97 194.87 167.97 177.64C169.2 177.32 169.91 176.82 168.62 175.66C169.64 172.65 170.66 169.64 171.69 166.63C173.97 165.62 174.54 163.93 173.64 161.67Z" fill="#151515"/>
<path d="M242.6 96.58C252.03 121.11 267.81 140.29 290.68 153.46C284.62 153.77 280.57 149.58 276.34 146.43C260.57 134.69 250.05 118.88 242.47 100.97C241.91 99.64 240.48 97.97 242.59 96.58H242.6Z" fill="#1D1D1D"/>
<path d="M327.65 180.86C302.09 176.76 280.35 165.56 262.94 146.25C281.39 163.68 303.26 174.66 327.65 180.86Z" fill="#090909"/>
<path d="M409.45 186.25C393.59 187.91 378.14 190.99 364.58 200C358.69 203.92 353.15 208.37 347.44 212.57C348.49 207.78 353 206.13 356.21 203.59C369.5 193.13 384.79 187.32 401.61 185.6C404.23 185.33 406.73 184.14 409.44 184.62C409.44 185.16 409.44 185.69 409.44 186.23L409.45 186.25Z" fill="#1D1D1D"/>
<path d="M343.69 215.69C340.27 220.99 335.38 224.97 331.15 229.53C324.3 236.9 318.07 244.66 313.38 253.59C310.15 252.72 311.89 251.22 312.78 249.63C318.88 238.66 327.51 229.8 336.43 221.2C338.6 219.11 340.05 215.89 343.69 215.69Z" fill="#1D1D1D"/>
<path d="M248.3 317.71C261.08 332.44 278.37 331.43 295.65 331.59C286.09 336.47 253.97 332.66 248.3 317.71Z" fill="#0E0D0D"/>
<path d="M292.34 354.58C292.71 354.58 293.08 354.58 293.46 354.58C291.74 362.1 292.58 369.62 293.42 377.15C293.62 378.93 293.53 380.74 293.58 382.54C293.22 382.54 292.85 382.56 292.49 382.56C290.6 374.63 289.17 366.67 290.46 358.47C290.69 356.99 291.17 355.61 292.35 354.58H292.34Z" fill="#151515"/>
<path d="M156.24 259.68C155.29 250.4 154.13 241.12 157.07 231.96C158.01 240.52 157.29 249.11 157.46 257.68C157.48 258.56 157.04 259.25 156.24 259.67V259.68Z" fill="#151515"/>
<path d="M292.47 382.56C292.83 382.56 293.2 382.54 293.56 382.54C296.29 388.72 297.14 395.61 300.66 401.5C296.59 401.36 296.85 397.48 295.62 395.19C293.56 391.35 292.16 387.11 292.47 382.57V382.56Z" fill="#1D1D1D"/>
<path d="M409.45 186.25C409.45 185.71 409.45 185.17 409.45 184.64C414.77 184.64 420.09 184.64 425.41 184.64C425.41 185.23 425.41 185.83 425.41 186.42C420.09 186.37 414.77 186.31 409.45 186.26V186.25Z" fill="#0E0D0D"/>
<path d="M53.47 533.52C55.04 527.84 58.1 523.08 62.38 519.08C61.75 524.96 56.74 528.48 54.59 533.54C54.22 533.54 53.85 533.53 53.48 533.52H53.47Z" fill="#1D1D1D"/>
<path d="M159.46 283.6C158.4 279.67 157.55 275.69 157.5 271.59C161.08 275.11 161.32 279.18 159.46 283.6Z" fill="#1D1D1D"/>
<path d="M250.28 133.45C254.41 135.25 256.21 138.02 257.8 141.02C254.81 139.54 252.26 137.58 250.28 133.45Z" fill="#090909"/>
<path d="M176.22 409.35C178.58 406.68 180.94 404.01 183.3 401.33C183.18 405.98 180.41 408.29 176.22 409.35Z" fill="#1D1D1D"/>
<path d="M157.43 270.62L156.63 263.61C159.75 265.62 158.9 268.09 157.43 270.62Z" fill="#151515"/>
<path d="M250.43 132.55C247.57 131.92 246.49 130.39 245.42 127.86C248.36 128.39 249.47 129.89 250.43 132.55Z" fill="#090909"/>
<path d="M183.25 401.4C184.39 399.55 185.47 397.64 187.27 396.32C187.72 399.43 186.58 401.28 183.25 401.4Z" fill="#1D1D1D"/>
<path d="M233.52 110.59C235.89 111.01 236.27 113.1 236.83 115.05C235.18 114.04 233.69 112.89 233.44 110.67L233.53 110.6L233.52 110.59Z" fill="#090909"/>
<path d="M240.64 89.56C241.75 91.02 241.78 92.81 242.15 94.49C239.12 93.62 238.63 91.97 240.64 89.56Z" fill="#151515"/>
<path d="M242.52 122.58C243.74 123.4 245.03 124.16 245.13 126.45C242.7 126.04 242.36 124.53 242.4 122.7L242.51 122.58H242.52Z" fill="#090909"/>
<path d="M455.31 165.77C456.49 165.62 457.68 165.4 458.44 166.69C457.94 167.5 457.45 168.51 456.31 168.2C455.13 167.87 455.54 166.63 455.31 165.77Z" fill="#1D1D1D"/>
<path d="M242.4 122.7C241.2 122.58 240.15 122.21 239.87 120.87C239.75 120.3 240.11 119.9 240.7 120.02C242.05 120.31 242.34 121.42 242.52 122.58L242.41 122.7H242.4Z" fill="#090909"/>
<path d="M233.43 110.66C232.23 109.98 231.29 109.15 231.72 107.5C234 107.58 233.3 109.35 233.52 110.58L233.44 110.65L233.43 110.66Z" fill="#090909"/>
<path d="M239.13 117.88C238.89 118.01 238.65 118.15 238.41 118.28C238.27 117.94 238.13 117.59 237.99 117.25C238.26 117.19 238.61 117.01 238.78 117.12C238.98 117.24 239.02 117.62 239.13 117.89V117.88Z" fill="#090909"/>
<path d="M366.89 480.83C367.21 480.74 367.18 479.87 367.79 480.43C367.59 480.64 367.39 480.84 367.19 481.05L366.89 480.84V480.83Z" fill="#0F0F0F"/>
<path d="M56.88 332.57C66.06 332.8 75 333.84 82.93 339.23C87.03 342.01 88.9 344.89 87.92 350.38C85.32 364.83 83.61 379.45 81.45 393.98C80.84 398.06 80.02 402.12 79.09 406.14C78.67 407.96 77.52 409.11 75.39 409.66C67.78 411.61 60.55 411.82 53.46 407.6C42.03 400.8 34.33 391.27 31.72 378.17C29.75 368.29 35.72 359.04 47.25 354.39C51.69 352.6 51.88 350.89 49.91 347.08C48.31 343.99 46.58 341.02 44.63 338.16C42.97 335.73 42.76 334.11 46.5 333.43C49.96 332.8 53.38 332.44 56.89 332.57H56.88Z" fill="#2B2B2B"/>
<path d="M188.45 132.6C187.54 132.95 186.63 133.29 185.73 133.64C185.65 133.32 185.56 132.99 185.48 132.67C186.25 128.28 190.05 126.14 192.41 122.89C192.18 126.66 188.97 129.05 188.45 132.6Z" fill="#1D1D1D"/>
<path d="M483.27 324.18C490.47 300.19 490.45 275.58 493.64 251.39C508.71 255.13 521.93 249.25 535.16 244.13C550.01 238.39 563.66 229.84 578.87 224.88C587.7 222 590.76 224.12 590.32 233.46C589.83 243.89 584.81 252.56 578.2 260.19C561.33 279.64 540.11 293.52 518.06 306.24C508.58 311.71 498.91 316.86 489.4 322.27C487.67 323.26 486.03 324.11 483.27 324.19V324.18Z" fill="#2B2B2B"/>
<path d="M596.4 217.62C596.22 218.24 596.24 219.1 595.82 219.45C594.42 220.62 594.52 223.51 591.82 223.07C591.39 223 590.72 222.07 590.78 221.63C591.12 219.32 593.21 218.76 594.93 217.88C595.35 217.67 595.89 217.69 596.37 217.6L596.4 217.63V217.62Z" fill="#2B2B2B"/>
<path d="M599.79 232.66C597.95 233.84 596.12 235.01 594.08 236.32C594.29 232.45 594.65 232.18 599.79 232.66Z" fill="#2B2B2B"/>
<path d="M596.37 217.59C596.51 217.46 596.65 217.32 596.79 217.19C596.66 217.33 596.53 217.47 596.39 217.61L596.36 217.58L596.37 217.59Z" fill="#2B2B2B"/>
<path d="M404.44 113.64C404.21 116.03 406.87 116.5 407.63 118.29C401.83 120.75 396.45 123.51 393.77 129.74C393.17 131.14 391.58 132.28 390.21 133.14C379.82 139.67 369.93 147.07 358.63 152.06C351.52 155.2 344.29 156.76 336.46 153.95C331.74 152.26 329.11 148.41 325.55 145.51C324.57 142.19 323.45 138.98 323.3 135.39C322.82 124.21 328.09 115.03 332.78 105.53C335.91 99.18 341.22 93.93 342.41 86.6C343.83 85.36 342.15 82.11 345.11 82.04C348 81.98 349.56 83.81 350 86.63C350.1 87.28 350.36 87.9 350.55 88.53C352.95 98.23 359.88 105.8 367.25 106.76C368.65 108.3 370.45 108.66 372.42 108.55C374.75 108.48 377.14 109.25 379.37 107.97C381.7 107.03 384.97 109.28 386.55 105.84H386.92L387.28 105.91C390.2 106.82 393.21 108.28 395.43 104.65C396.09 104.61 396.75 104.58 397.41 104.54C401.41 105.94 401.36 110.08 403.16 112.97C403.37 113.32 404.01 113.4 404.45 113.61L404.44 113.64Z" fill="#464646"/>
<path d="M449.43 127.63C449.18 127.46 449.14 127.26 449.32 127.02C450.96 122.01 451.38 117.45 446.08 114.02C443.05 112.06 445.72 108.65 444.85 105.91C444.32 104.25 447.25 104.33 448.67 103.8C450.19 103.24 451.81 102.97 453.39 102.57C460.38 102.87 460.89 97.29 462.41 92.63C462.3 91.12 464.59 89.41 462.03 88.1C462.23 87.27 462.43 86.43 462.64 85.6C465.17 85.69 464.64 81.28 466.59 82.15C468.89 83.17 469.79 86.14 470.89 88.54C471.68 90.28 471.23 92.58 473.26 93.75C473.51 97.46 476.02 99.98 478.04 102.75C478.72 103.68 479.81 104.56 479.12 105.77C478.47 106.91 477.39 106.06 476.48 105.87C474.37 105.44 473.24 106.32 473.41 108.47C473.92 115.24 472.56 121.91 472.49 128.65C472.09 131.85 471.82 135.08 471.25 138.25C470.53 142.25 467.49 139.97 465.4 140.21C459.49 137.37 454.67 133.23 450.86 127.89C450.66 127.61 449.93 127.71 449.44 127.63H449.43Z" fill="#464646"/>
<path d="M428.06 53.29C426.94 52.8 426.56 51.84 426.41 50.73C427.88 48.05 426.62 46.07 424.74 44.25C421.24 40.88 421.68 38.22 426.14 36.19C426.68 35.94 427.02 35.25 427.45 34.76C435.24 34.55 439.52 37.18 442.15 43.87C439.91 45.41 438.12 41.38 435.81 43.38C436.06 45.94 438.68 45.74 440.06 46.95C441.3 48.04 442.66 49.01 443.76 50.23C444.61 51.16 445.8 52.23 445.11 53.72C444.49 55.06 443.08 54.43 442 54.62C440.96 54.8 439.63 54.17 438.87 55.93C451.09 57.65 459.06 66.27 467.86 73.5C469.29 74.67 471.36 75.99 469.36 78.37C459.83 80.73 450.24 78.37 440.68 78.73C437.91 78.83 437.64 76.93 437.36 74.78C437 71.92 436.95 68.76 433.46 67.53C433.26 67.05 433.06 66.58 432.86 66.1C434.76 62.75 433.42 59.11 429.78 57.72C429.42 56.85 429.06 55.99 428.71 55.12C429.14 54.83 430.09 54.78 429.61 53.99C429.37 53.59 428.59 53.52 428.06 53.3V53.29Z" fill="#464646"/>
<path d="M406.36 99.64C411.81 98.28 416.74 99.29 421.45 102.44C424.38 104.4 427.52 103.55 430.35 101.7C432.46 100.32 434.6 99.05 437.29 99.44C438.27 101.36 439.29 103.25 440.21 105.2C443.76 112.75 438.68 121.24 430.34 121.67C422.29 122.08 414.96 119.91 408.42 115.19C407.19 114.3 406.12 113.27 404.44 113.64C404.64 109.26 401.52 104.57 405.68 100.56C405.94 100.22 406.2 99.87 406.47 99.53L406.37 99.64H406.36ZM411 108.2C414.25 109.57 417.5 110.94 420.76 112.3C421.57 112.64 422.49 112.74 422.9 111.87C423.32 110.97 422.57 110.24 421.8 110C418.34 108.94 415.1 106.85 411 108.2ZM438.91 108.37C434.63 109.04 433.27 111.02 431.52 113.69C435.2 113.41 436.32 110.96 438.91 108.37Z" fill="#464646"/>
<path d="M415.97 122.23C413.79 124.72 408.68 124.74 410.22 129.05C411.61 132.95 415.71 132.7 419.23 132.84C426.24 133.11 432.81 131.67 438.64 127.66C440.72 126.23 442.64 124.58 440.89 121.49C439.36 118.8 441.77 117.26 443.46 116.73C445.56 116.07 447.18 117.68 447.54 120.03C447.98 122.91 446.73 125.19 444.99 127.33C436.4 137.84 412.12 141.88 400.59 134.72C396.1 131.93 395.6 128.7 399.85 125.8C404.52 122.62 409.12 117.52 415.97 122.24V122.23Z" fill="#DC9D75"/>
<path d="M342.41 86.62C341.21 93.95 335.91 99.19 332.78 105.55C328.1 115.05 322.83 124.23 323.3 135.41C323.45 139 324.57 142.21 325.55 145.53C325.13 146 324.71 146.48 324.29 146.95C320.69 142.14 320.02 136.7 320.85 130.94C322.29 120.91 326.4 111.89 331.29 103.15C334.36 97.65 337.42 92.15 340.49 86.65C341.13 86.65 341.78 86.63 342.42 86.62H342.41Z" fill="#1D1D1D"/>
<path d="M462.64 85.6C462.44 86.43 462.24 87.27 462.04 88.1C461.7 89.01 461.35 89.93 461 90.84C458.94 94.59 457.7 98.97 453.29 100.94C450.39 101.43 447.48 101.9 444.58 102.44C443.77 102.59 442.91 102.95 442.54 101.9C442.14 100.8 443.18 100.58 443.84 100.18C450.31 96.18 455.51 91.02 458.22 83.79C459.01 81.7 460.39 81.25 462 81.65C464.82 82.35 462.52 84.25 462.64 85.6Z" fill="#EEEEEE"/>
<path d="M451.3 86.91C450.11 90.88 447.06 93.82 443.63 96.42C442.95 96.93 441.99 96.71 441.52 95.87C441.09 95.1 441.19 94.18 441.81 93.58C444.41 91.07 447.03 88.61 448.32 85.08C448.61 84.3 449.57 84.09 450.44 84.5C451.32 84.92 451.47 85.68 451.3 86.91Z" fill="#EEEEEE"/>
<path d="M453.29 100.94C457.7 98.98 458.94 94.6 461 90.84C461.47 91.44 461.94 92.03 462.41 92.63C460.88 97.29 460.37 102.87 453.39 102.57C453.36 102.03 453.33 101.48 453.3 100.94H453.29Z" fill="#1D1D1D"/>
<path d="M285.86 20.75C291.27 12.63 298.91 7.22001 307.54 3.03001C316.73 1.66001 325.27 2.94001 333.15 8.33001C338.22 11.79 340.77 16.86 343.76 22.4C332.55 22.54 322.13 25.31 311.84 28.68C307.42 30.13 303.12 31.82 298.97 33.93C292.22 37.36 289.33 36.18 286.4 29.05C285.28 26.33 285.28 23.57 285.86 20.75Z" fill="#464646"/>
<path d="M452.12 56.7C455.05 54.93 457.67 54.17 459.36 51.46C456.87 50.03 455.08 51.78 453.25 52.31C449.09 53.52 445.43 51.39 445.9 47.15C446.37 42.94 444.89 39.7 442.66 36.62C441.01 34.33 441.06 32.8 443.65 31.45C446.3 30.07 448.76 28.27 451.51 27.17C459.11 24.16 463.83 25.82 468.54 32.76C475.7 43.31 476.5 53.05 470.85 61.01C467.38 65.9 465.44 66.25 460.58 62.81C457.9 60.91 455.25 58.98 452.1 56.71L452.12 56.7Z" fill="#464646"/>
<path d="M427.44 34.76C427.01 35.25 426.67 35.95 426.13 36.19C421.67 38.22 421.23 40.87 424.73 44.25C426.62 46.07 427.87 48.05 426.4 50.73C425.39 49.81 425.26 48.07 423.62 47.75C423.57 48.49 423.53 49.22 423.48 49.96C423.19 50.25 422.89 50.55 422.6 50.85C421.09 46.8 420.98 41.95 416.23 39.71C415.78 39.5 415.39 38.67 415.39 38.12C415.39 37.31 416.47 36.94 416.85 37.23C420.69 40.16 422.23 36.1 424.68 34.79C425.53 34.34 426.5 34.11 427.42 33.79C427.42 34.11 427.42 34.43 427.42 34.76H427.44Z" fill="#1D1D1D"/>
<path d="M449.43 127.63C449.92 127.71 450.65 127.61 450.85 127.89C454.67 133.23 459.48 137.36 465.39 140.21C465.4 140.65 465.41 141.09 465.42 141.54C457.54 139.84 451.94 135.51 449.42 127.64L449.43 127.63Z" fill="#2B2B2B"/>
<path d="M469.16 151.42C471.01 152.25 472.13 150.61 473.58 150.02C473.77 153.37 472.15 155.42 466.93 158.38C466.48 155.53 470.7 154.29 469.21 151.37L469.16 151.42Z" fill="#2B2B2B"/>
<path d="M173.64 161.67C174.54 163.93 173.97 165.62 171.69 166.63L173.64 161.67Z" fill="#1D1D1D"/>
<path d="M178.31 150.07C178.51 152.36 178.51 154.56 175.91 155.64C176.18 153.56 176.99 151.7 178.31 150.07Z" fill="#1D1D1D"/>
<path d="M180.37 145.35C180.45 146.74 180.82 148.27 178.78 148.64C178.89 147.34 179.28 146.18 180.37 145.35Z" fill="#1D1D1D"/>
<path d="M168.63 175.66C169.91 176.82 169.2 177.31 167.98 177.64C168.2 176.98 168.42 176.32 168.63 175.66Z" fill="#1D1D1D"/>
<path d="M342.41 86.62C341.77 86.62 341.12 86.64 340.48 86.65C340.81 83.55 341.13 80.96 337.29 79.07C334.03 77.47 335.06 73.05 339.33 67.59C339.72 67.98 340.1 68.36 340.49 68.74C336.87 75.51 337.5 76.99 345 79.02C346.26 79.36 347.59 79.54 348.9 79.6C366.64 80.44 384.15 77.47 401.78 76.42C403.56 76.31 405.92 76.27 406.53 73.68C407.11 73.68 407.7 73.7 408.28 73.71C408.39 74.79 408.13 75.77 407.45 76.63C407.06 77.1 406.67 77.56 406.29 78.03C403.15 78.64 400 79.25 396.63 79.9C399.15 84.53 400.62 89.01 399.64 94.01C398.64 99.1 395.07 101.97 389.95 104.66H395.44C393.22 108.29 390.21 106.83 387.29 105.92C387.19 105.67 387.09 105.42 386.98 105.17C386.84 105.4 386.7 105.62 386.57 105.85C384.99 109.29 381.72 107.05 379.39 107.98C380.07 105.93 382.44 107.3 383.56 105.93C380.44 105.5 377.4 105.08 374.37 104.65C365.31 101.9 360.35 95.51 359.62 86.37C359.24 81.62 356.66 82.15 353.69 82.27C349.55 82.44 352.36 85.37 351.83 86.97C351.41 87.49 350.99 88.01 350.57 88.53C350.38 87.9 350.12 87.27 350.02 86.63C349.58 83.8 348.02 81.98 345.13 82.04C342.18 82.11 343.85 85.36 342.43 86.6L342.41 86.62ZM369.51 93.7C373.28 93.55 378.45 89.73 378.49 87.06C378.53 84.32 376.62 84.37 374.71 84.49C370.79 84.75 365.53 88.71 365.85 91.28C366.1 93.32 367.63 93.88 369.5 93.7H369.51ZM394 88.23C393.63 86.47 394.23 83.68 391.54 83.6C388.14 83.51 389.76 86.35 389.75 88.06C389.73 91.3 388.32 93.72 385.82 95.67C384.91 96.38 384 97.27 385.11 98.55C386.07 99.65 387.12 99.42 388.19 98.71C391.92 96.24 393.64 92.67 394 88.23Z" fill="#090909"/>
<path d="M340.49 68.75C340.1 68.36 339.72 67.98 339.33 67.59C342.04 63.2 346.24 60.49 350.73 58.45C353.88 57.02 355.64 55.09 356.55 51.83C357.24 49.36 358.61 47.08 359.68 44.72C360.55 43.48 362.31 42.65 361.52 40.66L361.45 40.73C363.48 39.85 365.58 39.01 364.44 36.08L364.82 36.06L364.86 35.68C365.4 35.69 365.68 36.56 366.44 35.98C367.39 35.26 366.74 34.7 366.47 34.07L366.85 34.03L366.87 33.65C369.36 35.2 370.05 32.55 371.49 31.67C385.3 27.72 394.25 30.45 400.48 40.54C400.41 40.95 400.35 41.36 400.28 41.77C398.52 41.55 398.07 39.87 397.08 38.83C389.09 30.48 377.68 29.53 369.93 36.53C365.66 40.39 362.44 44.97 360.16 50.21C359.6 51.49 358 52.9 359.22 54.22C360.25 55.34 362.08 54.69 363.52 54.41C371.86 52.78 380.28 52.29 388.75 52.62C390.76 52.7 392.96 52.51 394.37 55.61C387.65 55.61 381.49 55.15 375.42 55.71C362.67 56.88 349.85 58.3 340.49 68.74V68.75Z" fill="#101010"/>
<path d="M308.62 76.01C302.99 87.25 296.89 98.3 294.24 110.79C292.21 104.76 301.84 81.62 308.62 76.01Z" fill="#2B2B2B"/>
<path d="M408.28 73.72C407.7 73.72 407.11 73.7 406.53 73.69C406.22 68.44 407.55 63 405.88 57.99C404.85 54.89 401.04 52.66 403.46 48.64C403.92 48.6 404.37 48.56 404.83 48.52C406.47 54.62 411.02 59.97 409.48 66.89C408.98 69.14 408.67 71.44 408.27 73.71L408.28 73.72Z" fill="#1D1D1D"/>
<path d="M364.86 35.68L364.82 36.06L364.44 36.08C363.54 37.69 361.46 38.54 361.45 40.73L361.52 40.66C359.48 41.14 359.02 43.02 358.13 44.52C357.06 45.92 355.99 47.31 354.96 48.66C353.9 48.51 353.8 47.77 354.08 47.19C357.11 40.78 361.69 35.63 367.24 31.31C368.16 30.59 369.31 30.06 370.15 31.56C368.66 31.65 367.96 32.96 366.87 33.67L366.85 34.05L366.47 34.09C365.93 34.63 365.4 35.16 364.86 35.7V35.68Z" fill="#2B2B2B"/>
<path d="M426.2 67.84V92.98C423.54 89.39 423.73 71.75 426.2 67.84Z" fill="#1D1D1D"/>
<path d="M400.28 41.77C400.35 41.36 400.41 40.95 400.48 40.54C403.01 38.28 400.65 36.72 399.32 34.85C403.32 35.97 406.96 40.88 406.6 44.23C406.46 45.51 405.64 45.82 404.57 45.88C404.14 44.92 403.29 44.74 402.37 44.71H402.42C402.4 43.27 402.58 41.69 400.39 41.71L400.3 41.77H400.28Z" fill="#1D1D1D"/>
<path d="M409.45 94.58C414.45 92.76 418.73 94.06 422.51 97.6C418.29 95.99 413.87 95.27 409.45 94.58Z" fill="#464646"/>
<path d="M408.22 89.64C408.6 93.16 406.11 96.15 406.35 99.64L406.45 99.53C406.09 99.56 405.73 99.59 405.36 99.62C404.72 99.62 404.09 99.63 403.45 99.64L406.57 88.65C407.12 88.98 407.66 89.31 408.21 89.64H408.22Z" fill="#0E0D0D"/>
<path d="M408.22 89.64C407.67 89.31 407.13 88.98 406.58 88.65C406.48 85.11 406.38 81.57 406.27 78.03C406.66 77.56 407.05 77.1 407.43 76.63C408.82 80.89 408.9 85.24 408.21 89.63L408.22 89.64Z" fill="#1D1D1D"/>
<path d="M422.61 50.85C422.9 50.55 423.2 50.25 423.49 49.96C425.05 53.66 424.65 57.57 424.94 61.42C422.83 58.14 423.27 54.38 422.61 50.85Z" fill="#1D1D1D"/>
<path d="M429.78 57.72C433.42 59.11 434.76 62.74 432.86 66.1C431.83 63.31 430.81 60.52 429.78 57.72Z" fill="#0E0D0D"/>
<path d="M358.13 44.51C359.02 43.02 359.48 41.14 361.52 40.65C362.31 42.64 360.55 43.47 359.68 44.71C359.16 44.64 358.65 44.57 358.13 44.5V44.51Z" fill="#EEEEEE"/>
<path d="M402.35 44.71C403.28 44.74 404.12 44.93 404.55 45.88C404.64 46.76 404.73 47.64 404.82 48.52C404.36 48.56 403.91 48.6 403.45 48.64C402.8 47.41 402.11 46.19 402.34 44.71H402.35Z" fill="#101010"/>
<path d="M366.87 33.66C367.96 32.95 368.67 31.64 370.15 31.55C370.6 31.59 371.04 31.63 371.49 31.68C370.04 32.56 369.36 35.21 366.87 33.66Z" fill="#EEEEEE"/>
<path d="M428.06 53.29C428.59 53.51 429.37 53.58 429.61 53.98C430.09 54.78 429.15 54.82 428.71 55.11C428.49 54.5 428.28 53.89 428.06 53.28V53.29Z" fill="#0E0D0D"/>
<path d="M458.89 274.27C457.85 274.38 457.51 273.61 457.12 272.89C456.54 271.82 456.17 270.69 457.04 269.68C457.55 269.08 458.32 268.68 459.03 268.29C461.61 266.85 464.32 265.77 467.34 266.31C468.06 266.44 467.9 267.27 467.56 267.95C466.92 269.19 460.05 274.3 458.89 274.28V274.27Z" fill="#2B2B2B"/>
<path d="M446.64 256.64C450.43 254.82 453.31 252.13 457.52 252.67C454.1 259.8 451.52 260.87 446.64 256.64Z" fill="#2B2B2B"/>
<path d="M466.75 282.13C466.21 284.1 464.34 284.4 463.14 285.43C462.27 286.18 461.28 287.2 460.14 286.76C458.78 286.23 459.56 284.76 459.46 283.71C459.32 282.06 460.53 281.41 461.82 280.98C463.68 280.36 465.2 281.3 466.75 282.13Z" fill="#2B2B2B"/>
<path d="M406.28 78.04C406.38 81.58 406.48 85.12 406.59 88.66L403.47 99.65C401.97 101.94 401.16 105.07 397.41 104.58C396.75 104.62 396.09 104.65 395.43 104.69C393.95 104.69 392.47 104.69 389.94 104.69C395.06 102 398.64 99.12 399.63 94.04C400.61 89.03 399.14 84.56 396.62 79.93C399.99 79.28 403.14 78.67 406.28 78.06V78.04Z" fill="#EEEEEE"/>
<path d="M350.55 88.56C350.97 88.04 351.39 87.52 351.81 87C354.57 95.52 359.59 102.14 367.87 106C367.66 106.26 367.46 106.52 367.25 106.79C359.88 105.83 352.95 98.26 350.55 88.56Z" fill="#151515"/>
<path d="M397.4 104.57C401.16 105.06 401.96 101.92 403.46 99.64C404.1 99.64 404.73 99.63 405.37 99.62C405.52 99.92 405.62 100.23 405.67 100.56C401.51 104.57 404.64 109.26 404.43 113.64C403.99 113.43 403.36 113.35 403.14 113C401.34 110.11 401.39 105.97 397.39 104.57H397.4Z" fill="#090909"/>
<path d="M374.34 104.67C377.37 105.09 380.41 105.51 383.53 105.95C382.41 107.32 380.04 105.95 379.36 108C377.13 109.29 374.74 108.52 372.41 108.59C372.41 108.01 372.41 107.42 372.41 106.84C373.32 106.36 374.15 105.82 374.33 104.69L374.34 104.67Z" fill="#151515"/>
<path d="M372.43 106.83C372.43 107.41 372.43 108 372.43 108.58C370.46 108.69 368.66 108.33 367.26 106.79C367.46 106.53 367.67 106.27 367.88 106.01C369.25 107.11 370.94 106.43 372.44 106.83H372.43Z" fill="#090909"/>
<path d="M386.54 105.86C386.68 105.63 386.82 105.41 386.95 105.18C387.05 105.43 387.16 105.68 387.26 105.93L386.9 105.85H386.53L386.54 105.86Z" fill="#151515"/>
<path d="M462.41 92.63C461.94 92.03 461.47 91.44 461 90.84C461.35 89.93 461.7 89.01 462.04 88.1C464.59 89.41 462.3 91.12 462.41 92.63Z" fill="#0E0D0D"/>
<path d="M411 108.2C415.1 106.85 418.33 108.94 421.8 110C422.57 110.24 423.32 110.96 422.9 111.87C422.5 112.74 421.57 112.64 420.76 112.3C417.51 110.94 414.25 109.57 411 108.2Z" fill="#0F0F0F"/>
<path d="M438.91 108.37C436.32 110.96 435.2 113.41 431.52 113.69C433.27 111.02 434.64 109.03 438.91 108.37Z" fill="#151515"/>
<path d="M405.67 100.56C405.62 100.23 405.52 99.91 405.37 99.62C405.73 99.59 406.09 99.56 406.46 99.53C406.2 99.87 405.94 100.22 405.67 100.56Z" fill="#FBFBFB"/>
<path d="M402.35 44.71C402.11 46.19 402.8 47.41 403.46 48.64C401.04 52.65 404.85 54.89 405.88 57.99C407.54 63 406.22 68.44 406.53 73.69C405.93 76.28 403.56 76.32 401.78 76.43C384.15 77.48 366.64 80.45 348.9 79.61C347.59 79.55 346.26 79.37 345 79.03C337.5 77 336.87 75.52 340.49 68.75C349.85 58.31 362.66 56.89 375.42 55.72C381.49 55.16 387.65 55.62 394.37 55.62C392.96 52.51 390.76 52.71 388.75 52.63C380.27 52.3 371.86 52.79 363.52 54.42C362.08 54.7 360.25 55.35 359.22 54.23C358 52.9 359.6 51.5 360.16 50.22C362.45 44.98 365.66 40.4 369.93 36.54C377.68 29.54 389.1 30.49 397.08 38.84C398.08 39.88 398.52 41.56 400.28 41.78L400.37 41.72C400.28 43.24 400.52 44.54 402.4 44.72H402.35V44.71Z" fill="#464646"/>
<path d="M372.43 106.83C370.93 106.43 369.24 107.1 367.87 106.01C359.59 102.15 354.57 95.53 351.81 87.01C352.33 85.4 349.53 82.47 353.67 82.31C356.64 82.19 359.22 81.66 359.6 86.41C360.33 95.55 365.29 101.94 374.35 104.69C374.18 105.82 373.34 106.36 372.43 106.84V106.83Z" fill="#EEEEEE"/>
<path d="M369.51 93.7C367.64 93.88 366.11 93.33 365.86 91.28C365.54 88.71 370.8 84.75 374.72 84.49C376.63 84.36 378.53 84.32 378.5 87.06C378.47 89.74 373.3 93.55 369.52 93.7H369.51Z" fill="#EEEEEE"/>
<path d="M394 88.23C393.64 92.67 391.92 96.24 388.19 98.71C387.12 99.42 386.07 99.65 385.11 98.55C384 97.28 384.91 96.38 385.82 95.67C388.32 93.72 389.74 91.3 389.75 88.06C389.75 86.35 388.14 83.51 391.54 83.6C394.22 83.67 393.62 86.47 394 88.23Z" fill="#EEEEEE"/>
<path d="M361.45 40.73C361.46 38.54 363.54 37.69 364.44 36.08C365.58 39.01 363.48 39.84 361.45 40.73Z" fill="#EEEEEE"/>
<path d="M364.86 35.68C365.4 35.14 365.93 34.61 366.47 34.07C366.74 34.71 367.39 35.27 366.44 35.98C365.68 36.55 365.39 35.69 364.86 35.68Z" fill="#EEEEEE"/>
<path d="M402.4 44.71C400.52 44.52 400.28 43.23 400.37 41.71C402.56 41.69 402.39 43.26 402.4 44.71Z" fill="#101010"/>
</g>
<defs>
<clipPath id="clip0_7268_12549">
<rect width="603.74" height="580.75" fill="white"/>
</clipPath>
</defs>
</svg>
