<svg width="884" height="784" viewBox="0 0 884 784" fill="none" xmlns="http://www.w3.org/2000/svg">
<g clip-path="url(#clip0_7278_41)">
<path d="M103.64 414.82C103.64 329.69 103.68 244.55 103.59 159.42C103.59 149.56 98.9801 141.75 90.5601 136.72C86.5401 134.32 85.5501 131.67 85.6101 127.12C85.8901 106.63 85.7701 86.14 85.4701 65.65C85.4101 61.77 86.8001 60.48 90.2601 59.99C115.14 56.42 140 52.7 164.89 49.17C211.36 42.57 257.82 35.82 304.34 29.58C351.21 23.29 398.31 18.97 445.4 14.6C493.65 10.12 541.99 6.87003 590.26 2.73003C598.22 2.05003 606.15 1.02003 614.09 0.11003C616.53 -0.16997 618.45 -0.00996971 619.96 2.54003C640.97 38.02 666.63 70.22 691.15 103.23C703.07 119.28 714.79 135.47 727.68 150.77C730.68 154.33 732.17 158.17 731.95 163.06C731.5 173.37 731.54 183.71 731.67 194.04C731.72 197.94 730.67 200.8 727.19 202.76C725.61 203.65 724.18 204.85 722.75 205.99C716.77 210.82 713.66 216.46 713.81 224.8C715.07 293.77 714.47 362.74 714.59 431.72C714.66 474.54 714.82 517.35 714.61 560.17C714.5 583.82 713.71 607.47 713.26 631.12C713.22 633.11 713.41 635.11 713.42 637.1C713.45 641.78 716.25 643.79 720.44 643.65C725.45 643.48 726.78 645.35 726.6 650.38C726.15 663.03 726.37 675.7 726.49 688.36C726.52 691.12 725.78 692.95 723.45 694.58C684.17 722.1 645.14 749.99 604.5 775.5C598.8 779.08 592.52 780.64 585.67 780.86C573.03 781.27 560.42 782.65 547.78 783.05C493.26 784.77 438.87 781.27 384.46 778.78C290.6 774.47 196.73 770.4 102.75 769.93C80.0901 769.82 57.4401 770.32 34.7801 770.68C25.3101 770.83 15.8301 770.07 6.36006 769.63C1.62006 769.41 -0.759941 766.24 0.190059 761.4C0.890059 757.8 2.64006 755.03 6.27006 753.47C11.8001 751.1 17.5601 749.47 23.3101 747.84C44.9201 741.7 66.1101 734.23 87.5601 727.57C89.6801 726.91 89.5401 725.73 89.5501 724.27C89.6301 714.27 89.9701 704.27 89.6501 694.29C89.4101 686.72 91.9501 681.19 99.1301 678.5C102.62 677.19 103.16 675.07 103.15 671.73C103.06 586.09 103.08 500.46 103.08 414.82C103.26 414.82 103.44 414.82 103.62 414.82H103.64ZM242.86 695.63C244.75 695.15 243.86 694.3 243.16 693.47C242.07 690 240.56 686.6 240 683.05C239 676.83 239.25 676.79 232.95 678.85C230.16 678.66 227.34 678.85 224.59 677.95C223.42 677.57 221.75 676.97 221.02 678.53C218.33 684.28 214.55 689.32 209.85 694.95H232.83C236.11 696.17 239.51 695.54 242.86 695.64V695.63ZM693.81 661.83C699.1 661.74 703.86 660 707.93 656.72C712.12 653.33 709.71 648.96 708.71 645.24C707.76 641.71 704.54 643.86 702.3 644.05C699.51 644.29 696.74 644.83 693.96 645.24C689.02 643.85 686.28 645.49 685.99 650.84C685.91 652.29 685.27 653.7 685 655.15C684.02 660.28 685.1 661.66 690.38 661.97C691.52 662.04 692.67 661.89 693.82 661.83H693.81ZM596.94 91.2C591.87 90.51 587 92.21 581.14 92.03C586.25 95.15 591.24 97.54 591.93 103.19C592.42 107.24 594.07 107.12 596.88 105.84C604.79 108.55 611.48 107.34 616.25 99.87C617.15 98.46 620.12 97.77 618.71 95.65C617.12 93.26 615.11 89.49 612.23 90.12C607.09 91.25 601.97 90.32 596.93 91.19L596.94 91.2ZM589.72 696.71C587.73 700.96 589.13 703.01 593.72 703.86C596.99 704.46 600.17 705.28 603.52 704.94C610.78 704.21 614.35 698.9 611.79 692.24C610.45 688.78 611.52 683.19 608.18 682.14C604.97 681.13 600.65 683.69 596.82 684.69C594.96 684.78 592.55 684 592.02 686.74C591.37 690.09 589.58 693.18 589.72 696.7V696.71ZM582.72 580.83C579.88 600.2 573.44 618.69 567.96 637.68C572.85 637.68 577.01 637.58 581.16 637.72C583.68 637.8 584.7 637.01 584.67 634.32C584.5 616.51 584.46 598.69 584.37 580.88C584.48 558.44 584.6 536.01 584.7 513.57C584.7 512.41 584.78 511.08 583.2 510.86C577.27 510.04 571.34 509.27 564.79 508.41C573.6 521.43 580.14 534.52 582.34 549.52C583.87 559.97 583.2 570.39 582.72 580.83ZM677.93 288.74C675.41 287.16 672.94 285.48 670.35 284.01C655.6 275.63 640.26 268.42 625.04 260.98C613.33 255.25 613.46 255.21 613.73 268.28C613.79 271.22 615.05 272.24 617.52 273.13C630.96 277.98 644.23 283.25 657.24 289.18C664.01 292.27 670.96 294.97 677.82 297.85C678.91 298.38 680.62 299.72 680.77 297.54C680.99 294.4 682.58 290.44 677.92 288.74H677.93ZM693.84 638.99C696.87 639.22 699.79 638.48 702.76 638.13C705.99 637.74 706.79 636.09 706.83 633.11C707.18 609.97 707.88 586.82 708.04 563.68C708.77 451.93 707.09 340.17 708.74 228.41C708.9 217.48 706.46 215.47 695.37 217.25C693.24 217.59 691.16 218.23 689.04 218.6C687.06 218.95 686.63 220.06 687.14 221.81C686.63 231.12 687.52 240.41 687.54 249.71C687.71 315.61 687.64 381.5 687.63 447.4C687.63 455.44 685.75 457.39 677.83 457.9C666.84 457.81 655.85 457.51 644.87 457.68C635.26 457.83 626.02 456.01 616.85 453.51C612.3 452.27 609.4 449.31 608.13 444.75C607.27 441.67 607.13 438.53 607.13 435.35C607.18 354.29 607.15 273.23 607.26 192.18C607.29 169.04 607.71 145.9 607.95 122.76C608.04 114.39 605.59 112.2 596.81 112.78C592.25 112.84 590.57 114.94 590.6 119.66C590.84 151.6 591.2 183.55 590.79 215.48C590.4 245.26 591.24 275.02 591.12 304.8C590.6 427.89 590.93 550.98 590.8 674.06C590.8 678.97 592.08 680.86 596.95 679.51C603.803 678.59 607.227 674.85 607.22 668.29C607.2 637.04 607.18 605.78 607.18 574.53C607.18 572.41 606.79 570.19 608.79 568.54C612.38 565.59 615.79 562.48 620.79 562C626.9 561.41 633 560.62 639.07 559.74C652.03 557.85 664.96 555.85 677.91 553.89C678.91 553.93 679.9 553.99 680.9 554C687.47 554.03 687.77 554.24 687.64 560.68C687.56 564.65 687.03 568.61 686.95 572.59C686.55 592.52 686.22 612.45 685.9 632.39C685.8 638.92 686.87 639.76 693.86 638.97L693.84 638.99ZM294.79 681.72C295.25 681.71 295.71 681.69 296.16 681.68C360.92 682.92 425.72 681.49 490.44 684.75C491.86 684.82 493.7 685.66 494.61 684.06C498.32 677.48 503.87 671.6 503.9 663.47C504.01 632.5 503.9 601.52 504 570.55C504.02 565.04 501.09 561.81 496.46 560.03C493.4 558.85 490.03 558.25 486.75 557.88C453.64 554.1 420.4 552.05 387.11 550.97C372.49 550.49 357.86 549.06 343.2 550.02C326.6 549.17 309.99 550.12 293.37 549.05C280.28 548.21 267.09 548.87 253.95 548.89C247.21 548.89 245.89 550.27 245.89 557.14C245.89 579.27 246.12 601.4 245.84 623.52C245.62 640.61 247.09 657.73 244.93 674.8C244.44 678.69 245.76 680.91 250.46 680.85C265.24 680.66 280.03 680.59 294.79 681.73V681.72ZM120.98 691.66C124.47 691.8 128 691.7 131.45 692.13C135.94 692.7 137.02 690.98 137 686.61C136.83 644.14 136.97 601.66 136.75 559.19C136.72 553.96 137.99 550.45 143.42 550.33C154.4 550.08 158.76 543.6 160.07 533.82C160.09 533.66 160.16 533.5 160.22 533.35C161.66 530.13 160.64 528.91 157.25 529.83C152.23 531.19 147.04 531.24 141.95 532.01C137.8 532.64 136.74 531.16 136.78 527.2C136.95 510.71 136.84 494.22 136.84 477.73C136.84 470.76 138.79 468.81 145.82 467.77C161.96 465.4 178.18 463.84 194.45 462.85C201.48 462.42 207.78 460.91 212.26 454.92C213.42 453.37 215.69 452.25 214.72 449.93C213.76 447.63 211.44 448.72 209.84 448.9C188.02 451.42 166.03 451.26 144.19 453.43C137.69 454.08 136.86 453.17 136.85 446.8C136.84 421.32 136.85 395.83 136.85 370.35C136.85 340.54 136.83 310.72 136.89 280.91C136.91 272.78 141.12 269.09 148.92 270.65C159.85 272.83 170.84 274.56 181.89 275.97C188.3 276.79 188.24 276.94 187.24 270.25C186.95 268.28 186.54 266.19 186.9 264.29C187.98 258.68 184.77 257.38 180.26 256.97C168.24 255.89 156.77 252.41 145.36 248.75C137.57 246.25 136.89 245.1 136.9 236.88C136.93 215.89 137.01 194.91 137.09 173.92C137.13 163.6 135.47 161.53 125.14 159.83C122.71 159.43 120.17 159.63 117.69 159.56C109.09 160.15 108.95 160.23 109.03 168.54C109.3 195.67 109.47 222.8 109.51 249.92C109.66 346.14 110.23 442.36 109.2 538.58C108.69 585.86 109.09 633.15 109.07 680.43C109.07 688.157 113.033 691.897 120.96 691.65L120.98 691.66ZM232.98 673.59C238.38 673.75 240.16 670.71 239.96 665.81C239.88 663.82 239.99 661.81 239.99 659.81C240 625.33 240.01 590.84 240.02 556.36C240.02 546.7 242.71 543.95 252.4 543.9C292.37 543.68 332.31 544.4 372.27 545.57C406.91 546.58 441.41 549.14 475.91 552.07C483.19 552.69 490.53 553.25 497.54 555.63C505.44 558.31 508.98 563.2 508.98 571.45C508.98 604.77 508.98 638.08 508.99 671.4C508.99 678.29 510.06 679.47 516.92 679.95C518.74 680.08 520.58 679.98 522.41 679.92C525.16 679.83 526.21 678.36 525.93 675.67C525.57 672.2 525.12 668.71 525.11 665.23C524.96 608.93 524.8 552.63 524.8 496.32C524.8 462.01 525.09 427.7 525.24 393.38C525.63 304.1 524.2 214.82 525.88 125.55C525.95 121.58 524.83 119.63 520.89 119.4C519.23 119.31 517.59 118.97 515.93 118.96C509.91 118.93 508.95 119.88 508.94 125.84C508.92 143.66 508.94 161.49 508.94 179.31C508.94 181.29 509.15 183.25 507.58 184.94C500.83 192.2 493.7 198.83 483.6 201.16C469.78 204.34 455.73 206.08 441.61 206.72C421.16 207.65 400.68 208.05 380.21 208.5C340.25 209.38 300.28 209.99 260.32 211.09C253.59 211.27 248.28 209.91 244.19 204.52C242.64 202.48 239.81 201.39 239.84 198.18C240.03 181.69 240 165.2 240.4 148.71C240.59 140.98 239.12 139.15 231.28 139.63C229.1 139.76 226.98 140.17 225.03 141.2C221.09 142.1 221.77 145.22 221.78 147.99C221.87 187.59 221.95 227.19 222.08 266.79C222.12 279.77 222.34 292.74 222.53 305.72C222.98 335.82 222.82 365.93 222.67 396.04C222.45 438.33 222.86 480.61 222.17 522.9C221.39 570.86 221.99 618.83 221.75 666.8C221.73 671.75 223.91 673.35 228.04 673.74C229.67 673.89 231.34 673.64 233 673.58L232.98 673.59ZM611.02 45.02H611.04C611.04 34.03 610.89 23.03 611.12 12.04C611.2 8.25003 610.42 6.43003 606.24 6.89003C601.62 7.40003 596.95 7.46003 592.3 7.82003C566.61 9.80003 540.93 11.8 515.24 13.83C497.51 15.23 479.77 16.5 462.06 18.14C432.44 20.89 402.84 23.77 373.25 26.81C351.1 29.08 328.93 31.34 306.85 34.22C276.7 38.15 246.63 42.65 216.53 46.93C191.53 50.49 166.55 54.25 141.52 57.59C126.05 59.66 110.75 63.1 95.1101 63.79C91.4201 63.95 91.7701 66.09 91.7701 68.46C91.7701 85.62 91.7701 102.77 91.7601 119.93C91.7601 128.8 92.5901 129.59 101.52 128.89C102.18 128.84 102.84 128.72 103.5 128.64C118.67 126.8 133.83 124.85 149.02 123.14C177.42 119.96 205.87 117.09 234.26 113.78C269.76 109.64 305.33 106.3 340.93 103.25C371.9 100.6 402.91 98.46 433.91 96.15C461.43 94.1 488.96 92.2 516.48 90.1C546.64 87.8 576.79 85.28 606.95 83.04C610.31 82.79 611.1 81.6 611.06 78.5C610.92 67.34 611 56.18 611 45.02H611.02ZM595.8 742.58C595.89 742.58 595.98 742.58 596.08 742.58C596.08 733.59 596.01 724.59 596.12 715.6C596.16 712.71 595.33 711.63 592.21 711.39C582.07 710.62 571.92 710.64 561.77 710.65C519.31 710.7 476.85 711.34 434.39 709.9C409.62 709.06 384.86 708.09 360.1 706.97C339.66 706.04 319.22 705.06 298.78 703.97C263.06 702.06 227.34 700.27 191.6 698.85C165.5 697.81 139.37 697.26 113.25 696.95C107.68 696.88 104.82 694.58 103.44 689.89C102.76 687.58 102.03 686.39 99.4901 686.68C96.8701 686.98 95.0301 688.01 94.7401 690.85C94.4701 693.49 94.0601 696.14 94.0801 698.79C94.2101 713.27 94.5001 727.75 94.6001 742.23C94.6201 745.16 95.2001 746.66 98.6201 747.05C113.51 748.74 128.46 749.25 143.4 749.93C176.63 751.46 209.85 753.1 243.07 754.8C262 755.77 280.94 756.79 299.86 758.04C326.73 759.81 353.58 761.89 380.44 763.69C401.51 765.1 422.58 766.48 443.67 767.53C474.9 769.08 506.14 770.46 537.39 771.65C555.52 772.34 573.68 772.34 591.8 773.07C595.1 773.2 595.85 772.53 595.83 769.58C595.75 760.59 595.8 751.59 595.8 742.6V742.58ZM503.93 151.55C503.73 137.09 506.07 122.33 498.12 108.85C496.63 106.32 495.68 103.42 493.97 100.94C493.14 99.73 492.32 99.24 490.7 99.38C480.63 100.28 470.55 101.27 460.45 101.72C440.87 102.6 421.34 104.21 401.81 105.73C380.63 107.38 359.45 109.04 338.28 110.71C314.29 112.6 290.33 114.66 266.4 117.1C262.91 117.46 258.01 116.22 256.09 119.21C251.28 126.68 246.19 134.55 245.93 143.72C245.45 160.2 245.97 176.7 245.8 193.19C245.76 196.99 246.84 197.88 250.27 196.68C261.8 192.66 273.79 192.17 285.77 193.01C296.95 193.79 308 195.91 317.05 203.18C320.32 205.81 323.56 206.05 327.25 205.61C328.73 205.44 330.2 205.09 331.69 205.06C350.66 204.63 369.62 204.27 388.59 203.84C394.57 203.71 400.55 203.38 406.51 203.19C427.61 202.54 448.54 200.28 469.5 198.05C481.38 196.79 491.52 192.33 500.53 184.78C502.95 182.75 504.17 180.42 504.06 177.02C503.79 168.53 503.97 160.03 503.97 151.54L503.93 151.55ZM214.82 461.38C212.55 462 211.67 463.51 210.54 464.65C199.23 476 189.53 488.62 181 502.16C167.07 524.27 159.54 548.49 158.08 574.45C157.28 588.7 157.26 603.06 159.96 617.2C161.79 626.79 162.72 636.7 166.71 645.67C168.65 650.04 167.25 651.43 163.74 652.63C159.5 654.09 155.19 655.38 150.97 656.89C142.65 659.87 142.79 659.91 142.91 668.89C142.95 672.01 144.12 673.24 147.11 673.84C167.19 677.87 187.57 678.65 207.92 679.69C214.45 680.02 215.94 678.3 215.94 671.52C215.92 602.25 216.16 532.98 214.98 463.72C214.97 463.06 214.9 462.41 214.83 461.38H214.82ZM681.21 380.01H681.15C681.15 357.18 681.07 334.36 681.23 311.53C681.26 307.98 680.55 306.71 676.69 306.56C657.7 305.82 638.72 305.64 619.72 305.53C615.08 305.5 613.63 306.41 613.65 311.4C613.89 353.55 613.79 395.71 613.8 437.86C613.8 444.967 617.373 449.333 624.52 450.96C641.65 454.88 659.05 452.38 676.31 453.19C680.18 453.37 681.34 451.95 681.31 447.99C681.11 425.33 681.21 402.67 681.21 380.01ZM143.12 414.75C152.48 408.29 161.63 403.67 171.13 399.7C184.33 394.18 197.67 389.06 211.37 384.92C214.12 384.09 215.41 383.04 215.39 379.85C215.24 355.55 215.28 331.26 215.37 306.96C215.37 304.47 214.59 303.06 212.38 301.88C205.73 298.3 199.71 293.8 195.25 287.64C193.44 285.15 191.33 283.88 188.47 283.17C175.21 279.91 161.38 279.73 148.26 275.81C144.29 274.62 142.98 275.27 143 279.89C143.2 323.16 143.12 366.43 143.13 409.7C143.13 411 143.13 412.3 143.13 414.76L143.12 414.75ZM616.67 8.97003C616.67 32.77 616.61 56.57 616.74 80.37C616.76 83.43 617.12 86.61 619.51 89.15C638.41 109.29 657.18 129.55 676.15 149.62C690.67 164.98 705.43 180.11 720.02 195.4C721.39 196.83 722.87 197.1 724.52 196.69C726.58 196.18 725.94 194.31 725.96 192.94C726.05 185.95 725.11 178.79 726.32 172C728.05 162.28 724.47 155.61 718.48 148.32C690.7 114.5 666.05 78.3 640.28 42.96C632.18 31.85 624.28 20.63 616.67 8.96003V8.97003ZM550.65 676.84C551.49 670.82 553.61 665.87 555.31 660.77C560.65 644.69 566.54 628.8 571.19 612.47C577.27 591.12 582.35 569.73 577.83 547.36C574.77 532.2 568.24 518.73 557.22 507.71C555.5 505.99 553.07 505 551.12 503.48C549.63 502.32 549.53 500.49 550.14 498.89C550.7 497.41 552.1 497.82 553.09 498.5C560.86 503.83 570.02 502.32 578.58 503.76C582.57 504.43 584.27 503.07 584.03 498.7C583.68 492.22 583.64 485.69 584.05 479.22C584.31 475.17 582.65 473.76 579.07 472.93C567.79 470.33 556.33 468.54 545.77 463.11C542.34 461.35 542.73 459.97 543.61 457.52C545.69 451.73 547.77 445.95 549.94 440.19C550.74 438.06 550.71 437.06 547.92 436.64C543.83 436.02 539.9 434.62 536.39 432.18C535.27 431.4 534.11 429.61 532.57 430.44C531.06 431.26 531.83 433.17 531.83 434.58C531.79 456.4 531.8 478.23 531.81 500.05C531.81 501.86 531.82 503.58 532.81 505.33C541.3 520.45 548.21 536.15 552.67 553.05C556.97 569.34 560.29 585.6 559.92 602.53C559.36 627.97 553.68 651.23 533.38 668.75C530.26 671.44 529.94 682.46 532.46 685.61C533.15 686.47 534.03 686.83 535.07 686.81C550.53 686.53 566.02 687.67 581.45 685.8C583.02 685.61 583.69 684.99 583.98 683.37C585.17 676.63 584.06 674.88 577.42 673.62C574 672.97 570.58 672.37 567.17 671.67C560.9 670.39 554.06 666.88 550.68 676.81L550.65 676.84ZM721.81 670.8C721.91 670.8 722.02 670.8 722.12 670.8C722.12 666.3 722.27 661.8 722.05 657.32C721.95 655.25 723.85 652.26 721.83 651.36C719.67 650.4 717.43 653.04 715.3 654.21C714.49 654.65 713.9 655.6 713.38 656.43C708.18 664.73 700.01 668.07 690.92 669.71C688.76 670.1 686.73 670.6 684.78 671.62C659.88 684.7 633.9 695.59 608.95 708.62C602.77 711.85 601.13 714.3 601.43 721.13C602.13 736.54 601.31 752.02 601.12 767.47C601.11 768.56 600.53 769.92 601.91 770.57C602.95 771.07 603.77 770.19 604.61 769.69C608.03 767.63 611.55 765.72 614.85 763.49C648.07 741.03 681.18 718.41 714.52 696.14C719.67 692.7 723.02 689.45 721.91 682.76C721.27 678.87 721.79 674.79 721.79 670.8H721.81ZM530.86 166.08H530.89C530.89 178.56 531 191.05 530.82 203.52C530.77 207.01 531.83 208.28 535.36 207.98C541.47 207.46 547.62 207.31 553.74 206.9C562.01 206.34 570.28 205.18 578.54 205.22C584.34 205.25 584.88 202.68 584.86 197.96C584.75 171.67 584.97 145.37 584.86 119.08C584.85 115.81 586.34 112.76 585.17 109.28C582.01 99.82 574.61 95.49 565.8 94.23C558.63 93.21 550.81 92.53 544.91 99.06C535.88 109.05 530.97 120.62 530.87 134.12C530.79 144.77 530.85 155.42 530.85 166.07L530.86 166.08ZM703.1 184.1C695.27 175.79 688.35 168.43 681.41 161.09C663.82 142.49 646.23 123.9 628.61 105.33C627.62 104.29 626.8 102.85 624.99 103.03C620.17 103.53 612.81 111.62 612.9 116.58C613.09 126.87 613.6 137.16 613.68 147.46C613.82 164.43 613.81 181.41 613.68 198.38C613.65 201.78 614.49 203.25 618.15 202.84C632.33 201.26 646.57 200.46 660.82 199.87C665.96 199.66 670.99 199.46 673.3 193.42C673.88 191.9 675.78 190.8 677.22 189.71C684.55 184.13 693.13 183.56 703.09 184.1H703.1ZM679.89 599.3C680.29 599.3 680.69 599.3 681.09 599.3C681.09 586.98 681.07 574.66 681.11 562.34C681.11 560.19 681.34 558.54 678.04 559.02C658.13 561.94 638.2 564.73 618.24 567.33C614.66 567.8 613.66 569.03 613.7 572.63C613.88 591.94 613.77 611.26 613.74 630.57C613.74 637.64 615.17 639.49 622.49 639.18C640.32 638.43 658.11 639.41 675.92 639.66C678.95 639.7 679.98 638.85 679.94 635.75C679.79 623.6 679.88 611.45 679.88 599.29L679.89 599.3ZM143.06 164.86C143.06 189.83 143.06 214.62 143.05 239.4C143.05 241.02 143.17 242.29 145.21 242.62C158.52 244.75 171.32 249.08 184.47 251.96C187.71 252.67 188.34 251.19 189.1 248.68C192.74 236.76 199.12 226.39 209.04 218.89C214.34 214.88 216.28 210.64 215.78 204.25C215.52 200.95 214.65 199.32 211.62 197.96C189.92 188.22 168.72 177.44 147.59 166.52C146.3 165.85 145.15 164.76 143.07 164.87L143.06 164.86ZM681.2 285.58C681.2 280.68 681.16 276.59 681.2 272.5C681.39 254.54 681.63 236.57 681.78 218.61C681.86 208.71 676.08 203.41 666.5 204.15C650.25 205.4 633.99 206.6 617.72 207.56C614.42 207.75 613.58 208.81 613.63 211.97C613.82 223.45 613.89 234.93 613.65 246.4C613.58 249.81 614.8 251.33 617.72 252.72C636.32 261.59 655.11 270.1 672.84 280.69C675.35 282.19 677.89 283.65 681.2 285.58ZM142.94 152.98C141.95 156.69 144.08 158.65 147.69 160.49C168.3 170.97 189.08 181.1 209.99 190.98C215.84 193.75 215.72 193.79 215.86 187.32C216.19 172.53 215.19 157.72 216.79 142.94C217.58 135.62 213.27 130.42 208.36 125.68C205 122.43 201.23 124.17 197.54 124.69C196.39 124.85 195.21 124.76 194.05 124.87C180.35 126.22 166.66 127.61 152.96 128.93C151.47 129.07 150.65 129.78 149.83 130.98C145.38 137.47 143.11 144.63 142.94 152.97V152.98ZM583.8 313.61C579.24 319.33 575.02 324.95 568.24 327.09C564.68 328.21 564.62 330.01 565.04 332.93C565.81 338.36 566.59 343.82 566.87 349.29C568.73 385.4 562.72 420.22 549.38 453.8C547.17 459.36 547.52 460.26 553.43 461.81C561.95 464.05 570.62 465.76 579.09 468.16C583.51 469.41 584.71 468.69 584.69 463.88C584.53 415.42 584.6 366.95 584.58 318.48C584.58 317.06 585.06 315.54 583.8 313.61ZM490.55 705.24C488.04 701.31 487.29 697.43 488.93 693.24C490 690.51 487.84 690.96 486.24 690.66C470.12 687.58 453.74 688.68 437.51 688.11C402.58 686.88 367.61 688.36 332.66 686.93C311.05 686.05 289.4 687.5 267.78 685.92C261.98 685.5 256.13 685.77 250.3 685.83C249.08 685.84 246.96 685.01 247.47 687.83C248.18 691.74 253.64 696.55 257.67 696.67C264.15 696.87 270.62 697.25 277.09 697.51C298.83 698.38 320.56 699.43 342.29 700.65C364.51 701.9 386.75 702.8 408.99 703.62C424.94 704.21 440.91 704.43 456.88 704.75C463.87 704.89 470.88 704.71 477.86 704.97C481.93 705.12 485.97 706.18 490.56 705.23L490.55 705.24ZM531.23 666.29C536.07 661.89 540.76 658.73 543.45 653.91C550.98 640.39 555.66 625.9 556.63 610.38C558.82 575.13 549.53 542.58 533.16 511.74C532.83 511.11 532.61 510.07 531.23 510.66V666.3V666.29ZM613.77 662.25C612.85 673.22 614.24 683.66 619.38 693.67C620.88 696.6 621.56 696.95 624.24 695.65C640.09 687.96 656 680.39 671.88 672.76C675.6 670.97 680.82 669.97 676.82 663.83C676.51 663.36 676.79 662.52 676.77 661.86C676.63 657.82 677.67 653.97 678.64 650.11C679.7 645.91 678.107 643.797 673.86 643.77C666.88 643.7 659.85 644.01 652.91 643.39C641.94 642.4 630.98 643.01 620.02 642.86C615.83 642.8 612.92 644.47 613.65 649.78C614.21 653.86 613.76 658.08 613.76 662.24L613.77 662.25ZM214.97 412.38C214.97 405.72 214.89 399.06 215 392.4C215.06 389.09 213.81 388.25 210.75 389.35C203.56 391.93 196.27 394.25 189.12 396.92C174.31 402.46 159.95 408.98 146.53 417.45C144.45 418.77 142.99 420.12 142.94 422.91C142.84 428.8 143.7 430.18 150.02 431.71C170.43 436.65 191.22 435.95 211.97 435.82C214.98 435.8 214.99 433.98 214.98 431.85C214.95 425.36 214.97 418.87 214.97 412.37V412.38ZM569.39 279.29L569.13 280.78C563.59 280.47 558.06 280.03 552.52 279.88C547.33 279.74 546.98 280.27 549.3 284.7C555.41 296.36 560.66 308.32 562.96 321.39C563.32 323.45 564.53 324.08 566.59 323.5C573.65 321.51 583.91 308.16 583.94 300.79C583.97 292.97 583.48 285.12 584.08 277.35C584.7 269.27 580.83 264.16 574.69 260.14C563.7 252.93 551.66 249.27 538.45 249.93C536.26 250.04 533.06 248.84 532.27 251.65C531.36 254.86 530.75 258.54 533.16 261.65C535.6 264.79 538.24 267.78 540.54 271.02C542.52 273.81 544.76 275.17 548.38 275C555.72 274.66 562.76 276.27 569.41 279.3L569.39 279.29ZM584.65 262.27C584.65 244.7 584.61 228.77 584.69 212.84C584.7 210.21 583.47 209.86 581.27 210.03C565.68 211.24 550.08 212.45 534.48 213.46C531.57 213.65 530.9 214.73 530.96 217.4C531.12 224.55 531.32 231.73 530.94 238.87C530.68 243.79 531.6 246.05 537.03 244.21C538.66 243.66 540.68 244.01 542.47 244.26C557.61 246.43 572.29 249.8 584.65 262.27ZM201.65 466.12C183.07 467.99 165.47 468.99 148.06 471.72C145.29 472.15 142.99 472.21 143.04 476.18C143.23 491.81 143.16 507.44 143.06 523.08C143.04 525.68 143.51 526.7 146.39 526.02C151.07 524.92 155.82 524.06 160.59 523.36C163.38 522.95 164.85 521.62 166 519.06C170.6 508.9 176.22 499.3 182.6 490.14C188.29 481.97 194.57 474.28 201.66 466.12H201.65ZM540.2 415.3C540.54 414.63 540.89 414.12 541.07 413.55C543.6 405.35 544.43 396.83 544.44 388.39C544.44 375.56 547.49 363.75 553.38 352.45C556.87 345.76 558.84 338.53 559.15 330.91C559.4 324.9 557.41 320.09 551.93 317.17C546.74 314.4 541.74 315.57 537.41 318.9C532.79 322.45 530.28 327.13 531.95 333.31C532.64 335.87 532.93 338.53 533.35 341.16C535.93 357.27 538.92 373.37 535.92 389.78C535.77 390.57 535.62 391.54 535.93 392.22C539.23 399.49 538.53 407.46 540.2 415.3ZM534.68 397.51C530.26 402.97 531.87 408.18 531.07 412.97C529.56 422.02 534.44 426.54 541.74 429.68C543.87 430.59 546.16 431.12 548.28 432.03C551.68 433.5 552.9 431.99 553.75 428.83C558.22 412.25 561.34 395.43 562.6 378.32C563.53 365.74 563.8 353.1 561.73 339.76C559.67 345.28 558.37 350.29 556.03 354.75C549.52 367.15 547.09 380.33 546.94 394.17C546.86 401.86 545.3 409.37 542.64 416.61C542.02 418.3 541.11 420.27 538.87 419.97C536.33 419.63 535.93 417.4 536.12 415.37C536.65 409.68 534.32 404.35 534.67 397.51H534.68ZM214.99 222.74C214.51 222.52 214.02 222.3 213.54 222.08C210.6 225.24 207.49 228.26 204.75 231.59C197.96 239.81 192.95 249.11 192.12 259.78C190.97 274.51 198.68 284.95 210.42 292.86C211.61 293.66 212.84 295.17 214.35 294.23C215.57 293.47 214.96 291.77 214.96 290.49C214.99 269.18 214.99 247.86 215 226.55C215 225.28 215 224.01 215 222.74H214.99ZM143.08 604.71H143.05C143.05 617.37 143.05 630.03 143.05 642.69C143.05 649.937 146.55 652.4 153.55 650.08C160.09 647.91 160.2 647.88 158.53 641.35C151.55 614.06 150.07 586.49 154.03 558.61C154.8 553.21 154.84 553.82 149.43 554.37C143.66 554.95 142.84 557.68 142.96 562.73C143.29 576.72 143.07 590.71 143.07 604.71H143.08ZM210.43 684.93C200.47 684.8 191.72 684.58 183 683.79C172.95 682.88 162.86 682.31 152.98 680.18C141.23 677.64 143.25 677.47 142.89 688.33C142.77 691.93 144.11 692.75 147.48 692.79C163.41 692.99 179.36 692.99 195.24 694C202.51 694.46 205.98 690.62 210.44 684.93H210.43ZM715.31 201.24C715.49 199.03 714.74 197.37 713.27 195.78C706.57 188.52 693.31 186.66 682.9 191.67C676.8 194.61 676.77 194.82 681.03 199.8C682.09 201.04 683.25 202.36 683.82 203.85C686.39 210.62 689.96 215.39 698.25 212.11C698.83 211.88 699.62 211.92 700.23 212.11C705.75 213.82 709.66 212.34 711.83 206.72C712.63 204.66 715.62 203.91 715.31 201.25V201.24ZM584.78 656.04C584.78 653.05 584.6 650.05 584.82 647.07C585.1 643.3 583.9 641.34 579.81 641.84C578.34 642.02 576.82 641.84 575.33 641.88C569.097 642.053 564.947 645.093 562.88 651C561.72 654.28 560.75 657.68 559.18 660.76C557.53 663.99 558.43 665.19 561.71 665.76C568.22 666.89 574.72 668.11 581.19 669.46C583.88 670.02 584.88 669.19 584.8 666.5C584.69 663.02 584.77 659.52 584.77 656.04H584.78ZM143.11 434.52C143.11 438.08 143.33 441.21 143.05 444.3C142.73 447.89 144.03 449.05 147.56 448.6C168.71 445.93 190.15 447.06 211.25 443.84C212.64 443.63 215.25 444.69 215.11 442.1C215 439.93 212.68 440.96 211.4 440.98C188.57 441.35 165.78 441.27 143.1 434.51L143.11 434.52ZM144.59 130.1C131.88 131.54 119.64 132.93 106.57 134.41C110.18 138.77 112.27 143.02 113.14 147.81C113.57 150.2 115.35 149.94 117.01 149.62C122.56 148.55 127.92 149.29 133.12 151.27C135.06 152.01 136.31 152.03 136.73 149.67C137.97 142.75 141.17 136.59 144.59 130.1ZM543.85 705.61C554.33 704.29 564.16 705.02 573.96 704.75C577.28 704.66 581.75 706.08 580.12 699.69C579.8 698.43 580.62 696.76 581.2 695.4C582.59 692.15 580.92 691.51 578.25 691.82C565.82 693.25 553.33 692.71 540.86 692.88C540.07 692.89 539.16 693 538.55 693.42C537.88 693.88 542.7 705.49 543.57 705.61C543.9 705.66 544.23 705.61 543.86 705.61H543.85ZM540.45 95.56C526.56 96.68 513.9 97.7 500.9 98.75C502.78 104.75 507.71 108.13 509.44 113.38C509.73 114.26 510.86 114.04 511.67 113.81C516.66 112.37 521.6 113.14 526.39 114.52C529.07 115.29 529.9 114.17 530.81 112.11C533.21 106.67 535.82 101.32 540.46 95.55L540.45 95.56ZM515.81 702.83C518.15 702.51 521.29 702.19 524.39 701.63C531.41 700.37 531.62 699.89 528.58 693.6C527.93 692.26 527.22 690.86 527.01 689.42C526.63 686.81 525.23 686.37 522.86 686.45C518.22 686.6 513.51 686.84 508.93 686.25C501.38 685.28 501.41 685.02 497.81 691.86C497.5 692.45 497.24 693.07 496.87 693.62C495.37 695.84 496.25 697.25 498.31 698.45C503.48 701.46 509.12 702.59 515.82 702.83H515.81ZM214.44 122.74C218.99 126 219.82 129.96 220.95 133.75C221.6 135.93 222.26 137.28 225.06 136.14C229.96 134.15 235.07 134.1 240.17 135.53C241.33 135.85 242.29 136.14 242.97 134.58C245.16 129.51 247.5 124.5 250.02 118.94C238.18 120.21 227.03 121.4 214.44 122.75V122.74ZM556.05 314.92C554.65 305.82 551.38 299.1 544.03 294.98C538.77 292.04 532.1 293.92 531.87 298.43C531.58 304.05 531.78 309.7 531.81 315.34C531.81 317.3 532.47 318.35 534.45 316.78C540.86 311.7 547.73 310.36 556.06 314.92H556.05ZM308.94 205.94C306.04 203.07 302.68 201.89 299.23 200.91C287.83 197.67 276.17 198.72 264.6 199.13C260.38 199.28 256.22 200.96 252.02 201.86C249.3 202.44 250.26 203.58 251.46 204.83C252.48 205.9 253.8 205.94 255.15 205.94C273.08 205.94 291.01 205.94 308.95 205.94H308.94ZM664.71 297.27C659.38 294.93 654.29 291.02 648.97 291.26C638.69 291.73 628.42 291.77 618.15 291.95C615.15 292 613.7 292.49 613.69 296.03C613.68 299.74 615.41 299.95 618.28 299.85C632.07 299.39 645.86 299.07 659.64 298.67C661.25 298.62 662.96 298.85 664.72 297.27H664.71ZM531.15 268.43C531.15 275.67 531.15 282.92 531.15 290.16C531.15 291.29 531.58 292.39 532.86 291.7C537.74 289.07 542.46 290.52 548.07 292.67C543.5 283.14 538.22 275.37 531.15 268.43ZM638.48 287.52C638.6 286.96 638.73 286.39 638.85 285.83C630.69 282.81 622.53 279.79 613.76 276.55C613.76 279.62 613.89 282.08 613.72 284.51C613.54 287.07 614.83 287.57 617.03 287.55C624.18 287.48 631.32 287.52 638.47 287.52H638.48ZM531.26 387.09L532.72 387.06C532.79 378.35 533.28 369.63 531.26 360.98V387.09Z" fill="#08090A"/>
<path d="M866.84 184.63C878.92 184.71 885.74 193.48 883.3 204.19C880.62 215.95 873.4 225.2 865.96 234.08C848.14 255.34 827.9 274.04 804.63 289.28C796.01 294.93 787.07 300.04 777.06 302.85C774.86 303.47 774.58 304.23 775.14 306.31C777.35 314.53 774.97 321.73 768.58 326.94C761.04 333.08 752.28 336.15 742.53 332.49C736.24 330.14 732.75 322.13 734.53 314.92C737.17 304.19 744.74 298.55 754.88 295.97C757.71 295.25 758.9 294.66 757.76 291.56C756.25 287.44 757.84 283.71 760.02 280.25C776.58 253.92 795.52 229.57 819.73 209.75C832.48 199.31 845.74 189.53 862.15 185.37C864.07 184.88 866.07 184.73 866.87 184.61L866.84 184.63ZM877.62 200.85C877.64 195.68 874.77 191.85 870.35 191.03C866.82 190.38 863.39 191.08 860.05 192.26C848.45 196.36 838.29 202.98 828.66 210.47C802.68 230.66 782.66 256.06 765.05 283.54C763.02 286.71 762.43 290.31 765.01 293.31C767.92 296.69 772.04 298.04 776.34 296.57C783.89 293.98 791.12 290.65 797.9 286.31C812.67 276.84 826.39 266.05 838.98 253.89C852.41 240.92 865.35 227.5 874.36 210.87C876.12 207.62 877.32 204.19 877.62 200.85ZM750.44 327.92C758.32 327.83 766.93 322.03 769.22 315.27C771.41 308.79 767.92 302.71 761.47 301.8C753.12 300.62 743.18 306.95 740.77 314.98C738.54 322.43 742.7 328.01 750.43 327.92H750.44Z" fill="#0E0809"/>
<path d="M781.45 333.81C783.24 319.7 792.38 310.64 803.22 303.08C817.53 293.11 833.42 287.09 850.94 285.73C856.65 285.29 862.23 285.94 867.58 287.92C876.13 291.08 879.64 299.88 876.1 308.3C872.49 316.88 865.2 321.64 857.62 325.77C838.77 336.02 818.55 342.45 797.45 346.16C792.93 346.95 788.32 350.24 786.13 354.51C782.93 360.77 774.07 365.12 767.17 363.83C759.34 362.37 755.1 354.31 758.03 346.47C762.15 335.45 768.56 331.99 781.46 333.81H781.45ZM854.07 291.79C835.15 292.46 818.55 299.41 803.49 310.56C797.37 315.09 792.42 320.55 789.25 327.57C787.73 330.94 786.99 334.26 789.1 337.54C791.2 340.81 794.67 340.4 797.71 339.82C820.4 335.51 842.21 328.76 861.69 315.88C865.33 313.48 868.46 310.47 870.21 306.33C872.73 300.35 870.52 295.27 864.42 293.21C861.09 292.08 857.62 291.64 854.07 291.8V291.79ZM782.44 346.62C782.55 342.42 779.32 339.05 775.02 338.9C769.83 338.72 763.49 345.24 763.2 351.06C763 355.16 765.66 357.87 769.92 357.9C775.87 357.95 782.28 352.16 782.44 346.61V346.62Z" fill="#0E0809"/>
<path d="M775.09 216.65C774.94 222.73 773.32 227.99 771.18 233.02C766.09 244.98 760.21 256.52 751.44 266.28C750.05 267.83 750.13 269.04 750.71 270.71C751.76 273.79 751.71 276.9 750.79 280.03C749.18 285.52 744.68 289.27 739.69 289.19C734.51 289.11 730.94 285.56 729.44 279.39C728.48 275.44 728.31 271.01 731.11 268.52C735.09 264.98 733.51 261.67 732.64 257.98C728.7 241.27 740.01 213.94 754.62 205C759.09 202.26 763.76 200.97 768.7 203.89C773.76 206.88 774.89 211.78 775.1 216.64L775.09 216.65ZM737.65 250.09C737.48 252.66 738.14 255.06 738.66 257.51C739.24 260.29 740.23 262.76 743.17 263.53C746.21 264.33 747.7 261.82 749.12 259.87C756.5 249.73 762.73 238.94 766.86 227.04C768.23 223.1 769.37 219.07 768.79 214.83C768.05 209.39 763.83 207.1 758.97 209.57C757.36 210.39 755.81 211.49 754.53 212.76C744.17 223.06 738.82 235.65 737.66 250.09H737.65ZM745.68 275.63C745.3 272.12 744.02 269.26 740.38 269.26C736.49 269.26 734.8 272.19 735.07 275.7C735.31 278.95 735.79 282.98 740.34 282.74C744.55 282.52 744.96 278.65 745.68 275.62V275.63Z" fill="#0E0809"/>
<path d="M611.02 45.02C611.02 56.18 610.93 67.34 611.08 78.5C611.12 81.6 610.33 82.79 606.97 83.04C576.8 85.28 546.66 87.8 516.5 90.1C488.98 92.2 461.45 94.1 433.93 96.15C402.93 98.46 371.92 100.6 340.95 103.25C305.35 106.3 269.78 109.64 234.28 113.78C205.89 117.09 177.45 119.96 149.04 123.14C133.85 124.84 118.69 126.79 103.52 128.64C102.86 128.72 102.2 128.84 101.54 128.89C92.61 129.6 91.77 128.8 91.78 119.93C91.8 102.77 91.8 85.62 91.79 68.46C91.79 66.1 91.44 63.96 95.13 63.79C110.77 63.1 126.07 59.66 141.54 57.59C166.57 54.24 191.54 50.48 216.55 46.93C246.65 42.65 276.72 38.15 306.87 34.22C328.95 31.34 351.11 29.09 373.27 26.81C402.86 23.77 432.46 20.89 462.08 18.14C479.79 16.5 497.53 15.23 515.26 13.83C540.94 11.81 566.63 9.81 592.32 7.82C596.96 7.46 601.63 7.4 606.26 6.89C610.44 6.43 611.22 8.25 611.14 12.04C610.9 23.03 611.06 34.03 611.06 45.02H611.04H611.02Z" fill="#365285"/>
<path d="M595.8 742.58C595.8 751.57 595.75 760.57 595.83 769.56C595.86 772.51 595.1 773.18 591.8 773.05C573.67 772.33 555.52 772.32 537.39 771.63C506.14 770.44 474.9 769.06 443.67 767.51C422.58 766.46 401.51 765.08 380.44 763.67C353.57 761.87 326.73 759.79 299.86 758.02C280.94 756.77 262.01 755.75 243.07 754.78C209.85 753.08 176.63 751.44 143.4 749.91C128.45 749.22 113.5 748.72 98.6201 747.03C95.2001 746.64 94.62 745.14 94.6 742.21C94.49 727.73 94.2001 713.25 94.0801 698.77C94.0601 696.13 94.47 693.47 94.74 690.83C95.03 688 96.87 686.96 99.49 686.66C102.03 686.37 102.76 687.55 103.44 689.87C104.81 694.56 107.68 696.86 113.25 696.93C139.37 697.24 165.5 697.8 191.6 698.83C227.34 700.25 263.07 702.04 298.78 703.95C319.22 705.04 339.65 706.02 360.1 706.95C384.86 708.08 409.62 709.05 434.39 709.88C476.85 711.32 519.31 710.68 561.77 710.63C571.93 710.62 582.07 710.59 592.21 711.37C595.34 711.61 596.16 712.69 596.12 715.58C596 724.57 596.08 733.57 596.08 742.56C595.99 742.56 595.9 742.56 595.8 742.56V742.58Z" fill="#365285"/>
<path d="M225.01 141.21C226.97 140.18 229.08 139.78 231.26 139.64C239.1 139.16 240.57 140.99 240.38 148.72C239.98 165.2 240.02 181.7 239.82 198.19C239.78 201.4 242.61 202.49 244.17 204.53C248.26 209.91 253.57 211.28 260.3 211.1C300.26 210 340.23 209.39 380.19 208.51C400.66 208.06 421.14 207.67 441.59 206.73C455.71 206.09 469.75 204.35 483.58 201.17C493.69 198.84 500.81 192.21 507.56 184.95C509.13 183.26 508.92 181.3 508.92 179.32C508.92 161.5 508.92 143.67 508.92 125.85C508.92 119.88 509.89 118.94 515.91 118.97C517.56 118.97 519.21 119.31 520.87 119.41C524.82 119.64 525.94 121.59 525.86 125.56C524.18 214.83 525.61 304.11 525.22 393.39C525.07 427.7 524.78 462.01 524.78 496.33C524.78 552.63 524.94 608.93 525.09 665.24C525.09 668.72 525.56 672.21 525.91 675.68C526.19 678.37 525.14 679.84 522.39 679.93C520.56 679.99 518.72 680.09 516.9 679.96C510.04 679.48 508.97 678.31 508.97 671.41C508.97 638.09 508.97 604.78 508.96 571.46C508.96 563.21 505.42 558.31 497.52 555.64C490.51 553.27 483.17 552.7 475.89 552.08C441.4 549.15 406.89 546.59 372.25 545.58C332.3 544.41 292.35 543.69 252.38 543.91C242.68 543.96 240 546.71 240 556.37C239.99 590.85 239.98 625.34 239.97 659.82C239.97 661.82 239.86 663.82 239.94 665.82C240.14 670.72 238.37 673.77 232.96 673.6C233.21 649 233.61 624.37 233.61 599.79C233.6 487.44 235.06 375.08 232.97 262.73C232.42 233.3 233.74 203.85 231.86 174.44C231.47 168.35 230.36 162.29 230.05 156.2C229.76 150.66 225.46 146.63 225.01 141.23V141.21ZM240.12 342.83H239.97C239.97 346.49 239.97 350.16 239.97 353.82C239.97 383.47 240.04 413.11 239.89 442.76C239.87 446.43 240.87 448.64 244.31 450.07C249.88 452.38 255.38 454.05 261.63 453.9C274.78 453.6 287.96 453.66 301.1 454.21C330.86 455.45 360.58 457.35 390.34 458.46C411.8 459.26 433.3 459.03 454.75 457.57C467.52 456.7 480.35 456.6 492.96 453.89C498.29 452.74 503.18 451.01 507.08 447.02C508.55 445.52 509.39 444.02 509.26 441.75C508.92 435.94 508.77 430.11 508.77 424.29C508.74 365.99 508.58 307.7 508.94 249.41C508.99 241.04 505.13 236.52 498.88 232.6C488.8 226.28 477.67 224.38 465.99 224.2C422.35 223.51 378.75 224 335.18 226.8C311.24 228.34 287.23 228.39 263.28 227.77C254.37 227.54 247.97 230.27 242.43 236.71C240.92 238.47 240.07 240.07 240.07 242.42C240.13 275.9 240.11 309.37 240.11 342.85L240.12 342.83ZM394.53 531.61C424 532.15 452.14 532.04 480.26 530.57C489.15 530.1 497.75 528.57 505.4 523.48C507.84 521.86 509.13 520.21 509.02 517.08C508.77 509.93 508.93 502.76 508.93 495.6C508.93 479.37 507.14 477.2 490.93 473.9C490.44 473.8 489.93 473.8 489.45 473.7C467.46 469.04 445.06 470.03 422.82 469.16C382.72 467.59 342.57 469.48 302.45 468.03C286.32 467.45 270.16 467.44 254.02 467.34C243.47 467.27 240.41 468.84 240.15 476.86C239.66 491.83 239.93 506.83 240.06 521.82C240.1 526.18 242.23 528.69 247.06 529.14C262.51 530.58 278 529.9 293.47 530.39C327.59 531.46 361.73 531.86 394.54 531.63L394.53 531.61Z" fill="#4C808C"/>
<path d="M343.2 550C357.86 549.04 372.48 550.47 387.11 550.95C420.4 552.04 453.64 554.08 486.75 557.86C490.03 558.24 493.4 558.84 496.46 560.01C501.09 561.79 504.01 565.02 504 570.53C503.91 601.5 504 632.48 503.9 663.45C503.87 671.58 498.32 677.46 494.61 684.04C493.71 685.64 491.86 684.8 490.44 684.73C425.71 681.47 360.92 682.9 296.16 681.66C297.66 679.23 298.36 676.53 299.07 673.8C304.61 652.42 309.03 630.73 317.05 610.04C320.65 600.78 323.94 591.39 327.37 582.07H327.22C328.26 581.97 328.13 581.02 328.44 580.39C333.36 570.25 338.28 560.12 343.19 549.98L343.2 550ZM325.13 651.29V627.59C321.09 635.4 320.89 643.27 325.13 651.29ZM336.15 651.04C338.66 648.23 339.19 645.11 338.96 641.8C338.92 641.25 338.47 640.53 338 640.24C337.35 639.84 336.64 640.39 336.48 641C335.68 644.2 333.75 647.39 336.15 651.04Z" fill="#D6D6D6"/>
<path d="M503.93 151.55C503.93 160.04 503.75 168.54 504.02 177.03C504.13 180.43 502.91 182.76 500.49 184.79C491.48 192.34 481.34 196.8 469.46 198.06C448.5 200.28 427.57 202.54 406.47 203.2C400.51 203.38 394.53 203.72 388.55 203.85C369.58 204.27 350.62 204.64 331.65 205.07C330.17 205.1 328.69 205.45 327.21 205.62C323.52 206.05 320.28 205.82 317.01 203.19C307.96 195.91 296.91 193.8 285.73 193.02C273.75 192.18 261.77 192.67 250.23 196.69C246.8 197.88 245.72 197 245.76 193.2C245.93 176.71 245.41 160.21 245.89 143.73C246.16 134.55 251.24 126.69 256.05 119.22C257.97 116.23 262.87 117.47 266.36 117.11C290.29 114.67 314.26 112.62 338.24 110.72C359.42 109.05 380.59 107.39 401.77 105.74C421.31 104.22 440.83 102.61 460.41 101.73C470.51 101.28 480.59 100.29 490.66 99.39C492.28 99.25 493.1 99.73 493.93 100.95C495.64 103.43 496.59 106.33 498.08 108.86C506.03 122.34 503.69 137.1 503.89 151.56L503.93 151.55Z" fill="#0D2F6B"/>
<path d="M117.7 159.57C120.19 159.64 122.72 159.44 125.15 159.84C135.47 161.54 137.14 163.61 137.1 173.93C137.02 194.92 136.94 215.9 136.91 236.89C136.9 245.11 137.59 246.26 145.37 248.76C156.77 252.42 168.25 255.89 180.27 256.98C184.78 257.39 187.99 258.69 186.91 264.3C186.55 266.2 186.95 268.29 187.25 270.26C188.25 276.95 188.31 276.79 181.9 275.98C170.85 274.57 159.86 272.85 148.93 270.66C141.13 269.1 136.91 272.79 136.9 280.92C136.84 310.73 136.87 340.55 136.86 370.36C136.86 395.84 136.86 421.33 136.86 446.81C136.86 453.18 137.69 454.09 144.2 453.44C166.04 451.27 188.03 451.42 209.85 448.91C211.44 448.73 213.76 447.64 214.73 449.94C215.7 452.27 213.43 453.38 212.27 454.93C207.79 460.92 201.49 462.43 194.46 462.86C178.19 463.85 161.97 465.41 145.83 467.78C138.79 468.81 136.85 470.77 136.85 477.74C136.85 494.23 136.96 510.72 136.79 527.21C136.75 531.18 137.81 532.65 141.96 532.02C147.05 531.25 152.24 531.2 157.26 529.84C160.65 528.92 161.67 530.14 160.23 533.36C160.16 533.51 160.1 533.67 160.08 533.83C158.77 543.6 154.41 550.09 143.43 550.34C138 550.46 136.73 553.97 136.76 559.2C136.98 601.67 136.84 644.15 137.01 686.62C137.03 690.99 135.94 692.71 131.46 692.14C128 691.7 124.48 691.8 120.99 691.67C120.97 690.84 120.94 690.01 120.94 689.17C120.32 577.16 121.87 465.14 120.11 353.13C119.27 299.73 120.46 246.31 118.82 192.92C118.48 181.81 118.02 170.69 117.72 159.58L117.7 159.57Z" fill="#4C808C"/>
<path d="M214.82 461.38C214.89 462.41 214.96 463.07 214.97 463.72C216.16 532.98 215.91 602.26 215.93 671.52C215.93 678.29 214.45 680.02 207.91 679.69C187.56 678.65 167.17 677.88 147.1 673.84C144.11 673.24 142.94 672.01 142.9 668.89C142.78 659.91 142.64 659.87 150.96 656.89C155.19 655.38 159.49 654.09 163.73 652.63C167.24 651.42 168.64 650.04 166.7 645.67C162.71 636.7 161.78 626.79 159.95 617.2C157.25 603.06 157.27 588.7 158.07 574.45C159.52 548.49 167.05 524.27 180.99 502.16C189.52 488.62 199.22 476 210.53 464.65C211.66 463.51 212.54 462 214.81 461.38H214.82ZM170.84 637.76C171.4 640.06 172.03 642.6 174.71 643.36C175.94 643.71 176.11 642.11 175.84 641.24C175.14 638.97 175.03 636.07 172.29 635.26C170.6 634.76 171.02 636.61 170.83 637.76H170.84Z" fill="#363636"/>
<path d="M343.2 550C338.28 560.14 333.36 570.27 328.45 580.41C328.11 580.14 327.55 579.57 327.47 579.63C326.57 580.33 326.93 581.23 327.22 582.09C327.22 582.09 327.37 582.09 327.36 582.08C324.8 582.01 324.65 584.31 323.98 585.81C313.9 608.29 305.98 631.5 301 655.65C299.2 664.41 295.44 672.69 294.78 681.71C280.02 680.57 265.23 680.64 250.45 680.83C245.75 680.89 244.43 678.67 244.92 674.78C247.08 657.72 245.62 640.59 245.83 623.5C246.11 601.38 245.89 579.25 245.88 557.12C245.88 550.24 247.2 548.87 253.94 548.87C267.08 548.86 280.27 548.2 293.36 549.03C309.98 550.09 326.59 549.14 343.19 550H343.2ZM295.02 612.91C294.36 611.33 296.08 608.32 293.23 608.19C291.07 608.09 291.92 610.78 291.92 612.24C291.92 614.05 291.12 616.97 293.71 617.08C295.81 617.17 294.53 614.42 295.03 612.91H295.02Z" fill="#363636"/>
<path d="M677.88 553.92C664.93 555.88 652 557.88 639.04 559.76C632.96 560.64 626.87 561.43 620.76 562.02C615.75 562.5 612.34 565.6 608.76 568.56C606.76 570.21 607.15 572.42 607.15 574.55C607.15 605.8 607.17 637.06 607.19 668.31C607.19 674.87 603.767 678.613 596.92 679.54C596.89 677.21 596.84 674.88 596.84 672.55C596.84 492.3 596.86 312.05 596.87 131.8C596.87 125.47 596.82 119.14 596.79 112.81C605.56 112.23 608.01 114.42 607.93 122.79C607.69 145.93 607.27 169.07 607.24 192.21C607.13 273.27 607.15 354.33 607.11 435.38C607.11 438.56 607.24 441.69 608.11 444.78C609.39 449.34 612.28 452.3 616.83 453.54C626 456.04 635.24 457.86 644.85 457.71C655.83 457.54 666.82 457.83 677.81 457.93C678.08 461.9 679.34 465.78 678.83 469.82C658.54 469.65 638.28 470.28 618.06 472.07C613.13 472.51 607.87 477.53 607.74 482.13C607.38 494.76 607.09 507.39 607.19 520.02C607.34 537.87 618.99 542.12 631.58 542.67C634.23 542.79 636.91 542.73 639.56 542.51C652.3 541.45 665.03 540.31 677.76 539.2C677.8 544.11 677.84 549.03 677.88 553.94V553.92Z" fill="#4C808C"/>
<path d="M616.67 8.96997C624.28 20.63 632.18 31.86 640.28 42.97C666.06 78.31 690.7 114.5 718.48 148.33C724.47 155.62 728.05 162.29 726.32 172.01C725.11 178.79 726.05 185.96 725.96 192.95C725.94 194.33 726.58 196.2 724.52 196.7C722.87 197.11 721.39 196.84 720.02 195.41C705.43 180.12 690.66 165 676.15 149.63C657.18 129.56 638.41 109.29 619.51 89.16C617.12 86.62 616.76 83.44 616.74 80.38C616.61 56.58 616.67 32.78 616.67 8.97997V8.96997Z" fill="#365285"/>
<path d="M687.12 221.81C686.6 220.06 687.04 218.95 689.02 218.6C691.15 218.23 693.23 217.59 695.35 217.25C706.44 215.47 708.89 217.48 708.72 228.41C707.07 340.16 708.76 451.92 708.02 563.68C707.87 586.83 707.16 609.97 706.81 633.11C706.77 636.09 705.96 637.74 702.74 638.13C699.77 638.48 696.85 639.23 693.82 638.99C693.16 591.41 694.86 543.81 692.92 496.23C692.33 481.68 692.86 467.08 692.81 452.51C692.57 379.95 693.56 307.38 691.84 234.82C691.76 231.64 691.31 228.56 690.91 225.44C690.59 222.97 689.52 221.83 687.11 221.81H687.12Z" fill="#4C808C"/>
<path d="M550.65 676.84C554.03 666.9 560.88 670.41 567.14 671.7C570.55 672.4 573.97 673 577.39 673.65C584.03 674.91 585.15 676.66 583.95 683.4C583.66 685.02 582.99 685.64 581.42 685.83C565.99 687.7 550.5 686.56 535.04 686.84C534 686.86 533.12 686.5 532.43 685.64C529.91 682.49 530.23 671.47 533.35 668.78C553.65 651.26 559.33 628 559.89 602.56C560.26 585.62 556.94 569.37 552.64 553.08C548.18 536.18 541.27 520.48 532.78 505.36C531.8 503.61 531.78 501.89 531.78 500.08C531.77 478.26 531.76 456.43 531.8 434.61C531.8 433.2 531.03 431.29 532.54 430.47C534.08 429.64 535.24 431.43 536.36 432.21C539.87 434.65 543.8 436.05 547.89 436.67C550.68 437.09 550.71 438.09 549.91 440.22C547.75 445.98 545.66 451.76 543.58 457.55C542.7 460 542.31 461.37 545.74 463.14C556.3 468.57 567.76 470.36 579.04 472.96C582.62 473.79 584.28 475.2 584.02 479.25C583.61 485.72 583.65 492.25 584 498.73C584.24 503.09 582.54 504.46 578.55 503.79C569.99 502.35 560.83 503.86 553.06 498.53C552.07 497.85 550.68 497.44 550.11 498.92C549.5 500.51 549.6 502.35 551.09 503.51C553.04 505.03 555.47 506.02 557.19 507.74C568.22 518.77 574.74 532.23 577.8 547.39C582.31 569.76 577.24 591.15 571.16 612.5C566.51 628.82 560.62 644.71 555.28 660.8C553.59 665.9 551.46 670.85 550.62 676.87L550.65 676.84Z" fill="#363636"/>
<path d="M225.01 141.21C225.46 146.6 229.77 150.63 230.05 156.18C230.37 162.28 231.47 168.33 231.86 174.42C233.74 203.83 232.42 233.29 232.97 262.71C235.07 375.06 233.6 487.42 233.61 599.77C233.61 624.36 233.21 648.98 232.96 673.58C231.31 673.65 229.64 673.9 228.01 673.74C223.88 673.35 221.69 671.76 221.72 666.8C221.96 618.83 221.36 570.86 222.14 522.9C222.83 480.61 222.42 438.32 222.64 396.04C222.8 365.93 222.96 335.82 222.5 305.72C222.31 292.75 222.09 279.77 222.05 266.79C221.93 227.19 221.85 187.59 221.75 147.99C221.75 145.22 221.07 142.09 225 141.2L225.01 141.21Z" fill="#396570"/>
<path d="M721.81 670.8C721.81 674.79 721.28 678.88 721.93 682.76C723.04 689.46 719.68 692.7 714.54 696.14C681.2 718.41 648.09 741.03 614.87 763.49C611.57 765.72 608.05 767.64 604.63 769.69C603.8 770.19 602.98 771.07 601.93 770.57C600.55 769.92 601.13 768.56 601.14 767.47C601.33 752.02 602.14 736.54 601.45 721.13C601.14 714.3 602.78 711.84 608.97 708.62C633.92 695.59 659.89 684.7 684.8 671.62C686.74 670.6 688.77 670.1 690.94 669.71C700.03 668.07 708.2 664.73 713.4 656.43C713.92 655.6 714.51 654.65 715.32 654.21C717.46 653.04 719.69 650.4 721.85 651.36C723.88 652.26 721.97 655.25 722.07 657.32C722.29 661.8 722.14 666.31 722.14 670.8C722.04 670.8 721.93 670.8 721.83 670.8H721.81Z" fill="#365285"/>
<path d="M117.7 159.57C118 170.69 118.46 181.8 118.8 192.91C120.44 246.3 119.25 299.73 120.09 353.12C121.85 465.13 120.3 577.15 120.92 689.16C120.92 689.99 120.96 690.82 120.97 691.66C113.043 691.913 109.08 688.173 109.08 680.44C109.09 633.16 108.7 585.87 109.21 538.59C110.25 442.37 109.67 346.15 109.52 249.93C109.48 222.81 109.31 195.68 109.04 168.55C108.96 160.24 109.09 160.15 117.7 159.57Z" fill="#38636E"/>
<path d="M530.86 166.08C530.86 155.43 530.8 144.78 530.88 134.13C530.98 120.63 535.89 109.06 544.92 99.07C550.82 92.54 558.64 93.22 565.81 94.24C574.62 95.5 582.02 99.83 585.18 109.29C586.34 112.77 584.85 115.82 584.87 119.09C584.98 145.38 584.76 171.68 584.87 197.97C584.89 202.69 584.34 205.26 578.55 205.23C570.29 205.19 562.02 206.35 553.75 206.91C547.63 207.32 541.48 207.47 535.37 207.99C531.84 208.29 530.78 207.03 530.83 203.53C531.01 191.05 530.9 178.57 530.9 166.09H530.87L530.86 166.08Z" fill="#0D2F6B"/>
<path d="M703.1 184.1C693.14 183.57 684.57 184.13 677.23 189.71C675.79 190.81 673.89 191.91 673.31 193.42C671 199.46 665.97 199.65 660.83 199.87C646.58 200.46 632.34 201.26 618.16 202.84C614.5 203.25 613.67 201.78 613.69 198.38C613.82 181.41 613.83 164.43 613.69 147.46C613.6 137.17 613.1 126.88 612.91 116.58C612.82 111.63 620.18 103.53 625 103.03C626.8 102.84 627.63 104.29 628.62 105.33C646.24 123.9 663.83 142.49 681.42 161.09C688.36 168.43 695.27 175.79 703.11 184.1H703.1Z" fill="#0D2F6B"/>
<path d="M142.94 152.98C143.11 144.64 145.38 137.48 149.83 130.99C150.65 129.79 151.47 129.09 152.96 128.94C166.66 127.62 180.35 126.23 194.05 124.88C195.21 124.77 196.39 124.86 197.54 124.7C201.23 124.18 204.99 122.44 208.36 125.69C213.27 130.43 217.59 135.63 216.79 142.95C215.19 157.73 216.19 172.54 215.86 187.33C215.72 193.8 215.84 193.75 209.99 190.99C189.09 181.11 168.3 170.98 147.69 160.5C144.07 158.66 141.95 156.7 142.94 152.99V152.98Z" fill="#0D2F6B"/>
<path d="M596.79 112.79C596.82 119.12 596.87 125.45 596.87 131.78C596.87 312.03 596.85 492.28 596.84 672.53C596.84 674.86 596.89 677.19 596.92 679.52C592.05 680.87 590.77 678.98 590.77 674.07C590.9 550.98 590.57 427.89 591.09 304.81C591.22 275.03 590.38 245.27 590.76 215.49C591.17 183.55 590.81 151.61 590.57 119.67C590.53 114.95 592.22 112.85 596.78 112.79H596.79Z" fill="#396570"/>
<path d="M490.55 705.24C485.96 706.19 481.92 705.13 477.85 704.98C470.86 704.72 463.86 704.9 456.87 704.76C440.91 704.44 424.94 704.22 408.98 703.63C386.74 702.81 364.5 701.91 342.28 700.66C320.55 699.44 298.82 698.39 277.08 697.52C270.62 697.26 264.14 696.88 257.66 696.68C253.63 696.55 248.17 691.75 247.46 687.84C246.95 685.02 249.07 685.85 250.29 685.84C256.12 685.77 261.97 685.5 267.77 685.93C289.39 687.51 311.04 686.06 332.65 686.94C367.6 688.37 402.57 686.89 437.5 688.12C453.73 688.69 470.11 687.59 486.23 690.67C487.83 690.98 489.99 690.53 488.92 693.25C487.27 697.44 488.02 701.33 490.54 705.25L490.55 705.24Z" fill="#0D2F6B"/>
<path d="M531.23 666.29V510.65C532.61 510.06 532.83 511.1 533.16 511.73C549.53 542.58 558.82 575.13 556.63 610.37C555.66 625.89 550.98 640.38 543.45 653.9C540.76 658.72 536.07 661.88 531.23 666.28V666.29Z" fill="#D5D5D5"/>
<path d="M613.77 662.25C613.77 658.09 614.22 653.87 613.66 649.79C612.93 644.47 615.84 642.81 620.03 642.87C630.99 643.02 641.95 642.41 652.92 643.4C659.86 644.02 666.88 643.71 673.87 643.78C678.103 643.82 679.697 645.933 678.65 650.12C677.68 653.98 676.64 657.83 676.78 661.87C676.8 662.53 676.53 663.37 676.83 663.84C680.83 669.98 675.61 670.98 671.89 672.77C656.01 680.4 640.1 687.96 624.25 695.66C621.57 696.96 620.9 696.61 619.39 693.68C614.25 683.67 612.86 673.23 613.78 662.26L613.77 662.25Z" fill="#0D2F6B"/>
<path d="M687.12 221.81C689.52 221.83 690.6 222.97 690.92 225.44C691.33 228.56 691.78 231.64 691.85 234.82C693.57 307.38 692.58 379.95 692.82 452.51C692.87 467.08 692.34 481.68 692.93 496.23C694.87 543.81 693.17 591.41 693.83 638.99C686.85 639.78 685.77 638.94 685.87 632.41C686.19 612.48 686.52 592.55 686.92 572.61C687 568.64 687.53 564.68 687.61 560.7C687.74 554.26 687.44 554.05 680.87 554.02C679.87 554.02 678.88 553.95 677.88 553.91C677.84 549 677.8 544.08 677.76 539.17C686.47 537.9 687.6 536.58 687.6 527.62C687.6 513.7 687.16 499.76 687.78 485.86C688.12 478.15 686.28 472.67 678.83 469.78C679.33 465.74 678.08 461.86 677.81 457.89C685.73 457.38 687.61 455.43 687.61 447.39C687.62 381.49 687.69 315.59 687.52 249.7C687.5 240.41 686.61 231.11 687.12 221.8V221.81Z" fill="#38636E"/>
<path d="M214.97 412.38C214.97 418.87 214.95 425.36 214.98 431.86C214.98 433.99 214.98 435.81 211.97 435.83C191.22 435.96 170.43 436.66 150.02 431.72C143.7 430.19 142.84 428.8 142.94 422.92C142.99 420.13 144.45 418.78 146.53 417.46C159.95 408.99 174.3 402.48 189.12 396.93C196.27 394.25 203.56 391.94 210.75 389.36C213.82 388.26 215.06 389.1 215 392.41C214.89 399.07 214.97 405.73 214.97 412.39V412.38Z" fill="#363636"/>
<path d="M569.39 279.29C562.74 276.26 555.7 274.65 548.36 274.99C544.74 275.16 542.5 273.8 540.52 271.01C538.22 267.77 535.58 264.78 533.14 261.64C530.73 258.53 531.34 254.85 532.25 251.64C533.05 248.84 536.24 250.03 538.43 249.92C551.64 249.26 563.69 252.92 574.67 260.13C580.81 264.16 584.68 269.26 584.06 277.34C583.46 285.11 583.95 292.96 583.92 300.78C583.9 308.15 573.63 321.5 566.57 323.49C564.51 324.07 563.31 323.44 562.94 321.38C560.63 308.31 555.39 296.35 549.28 284.69C546.96 280.26 547.31 279.73 552.5 279.87C558.04 280.02 563.58 280.46 569.11 280.77L569.37 279.28L569.39 279.29Z" fill="#363636"/>
<path d="M540.2 415.3C538.52 407.46 539.23 399.49 535.93 392.22C535.62 391.54 535.77 390.58 535.92 389.78C538.92 373.37 535.92 357.28 533.35 341.16C532.93 338.53 532.64 335.87 531.95 333.31C530.28 327.13 532.79 322.45 537.41 318.9C541.74 315.58 546.74 314.41 551.93 317.17C557.41 320.09 559.4 324.9 559.15 330.91C558.83 338.53 556.86 345.76 553.38 352.45C547.49 363.75 544.45 375.56 544.44 388.39C544.44 396.83 543.6 405.35 541.07 413.55C540.9 414.12 540.54 414.63 540.2 415.3ZM547.18 341.17C547.22 341.57 546.78 342.98 548.19 343.46C549.22 343.81 550.02 342.94 550.73 342.26C552.05 341 553.2 339.64 553.76 337.84C554.43 335.64 555.73 332.89 553.18 331.64C550.23 330.19 549.51 333.37 548.47 335.3C547.61 336.9 547.01 338.61 547.18 341.18V341.17Z" fill="#22C8F8"/>
<path d="M534.68 397.51C534.33 404.35 536.66 409.69 536.13 415.37C535.94 417.4 536.34 419.63 538.88 419.97C541.12 420.27 542.03 418.3 542.65 416.61C545.31 409.38 546.87 401.86 546.95 394.17C547.1 380.33 549.53 367.15 556.04 354.75C558.38 350.29 559.68 345.27 561.74 339.76C563.8 353.09 563.53 365.73 562.61 378.32C561.35 395.43 558.23 412.25 553.76 428.83C552.91 431.99 551.69 433.5 548.29 432.03C546.17 431.11 543.87 430.59 541.75 429.68C534.44 426.54 529.57 422.02 531.08 412.97C531.88 408.18 530.27 402.96 534.69 397.51H534.68Z" fill="#D5D5D5"/>
<path d="M214.99 222.74C214.99 224.01 214.99 225.28 214.99 226.55C214.99 247.86 214.99 269.18 214.95 290.49C214.95 291.77 215.56 293.47 214.34 294.23C212.83 295.16 211.61 293.66 210.41 292.86C198.67 284.95 190.96 274.51 192.11 259.78C192.94 249.11 197.96 239.81 204.74 231.59C207.48 228.27 210.59 225.24 213.53 222.08C214.01 222.3 214.5 222.52 214.98 222.74H214.99Z" fill="#363636"/>
<path d="M677.82 297.84C670.95 294.96 664.01 292.26 657.24 289.17C644.23 283.24 630.96 277.97 617.52 273.12C615.05 272.23 613.79 271.22 613.73 268.27C613.46 255.2 613.33 255.24 625.04 260.97C640.26 268.41 655.61 275.63 670.35 284C672.94 285.47 675.41 287.15 677.93 288.73C677.9 291.77 677.86 294.8 677.83 297.83L677.82 297.84Z" fill="#4C808C"/>
<path d="M210.43 684.93C205.97 690.63 202.51 694.46 195.23 694C179.35 692.99 163.4 692.99 147.47 692.79C144.1 692.75 142.77 691.92 142.88 688.33C143.24 677.47 141.21 677.64 152.97 680.18C162.86 682.32 172.95 682.88 182.99 683.79C191.71 684.58 200.46 684.79 210.42 684.93H210.43Z" fill="#0D2F6B"/>
<path d="M715.31 201.24C715.62 203.9 712.63 204.65 711.83 206.71C709.66 212.33 705.75 213.81 700.23 212.1C699.62 211.91 698.83 211.88 698.25 212.1C689.96 215.38 686.4 210.61 683.82 203.84C683.25 202.35 682.09 201.04 681.03 199.79C676.78 194.82 676.8 194.61 682.9 191.66C693.31 186.64 706.57 188.51 713.27 195.77C714.75 197.37 715.49 199.03 715.31 201.23V201.24Z" fill="#4C808C"/>
<path d="M584.78 656.04C584.78 659.53 584.7 663.02 584.81 666.5C584.89 669.19 583.89 670.02 581.2 669.46C574.73 668.11 568.23 666.89 561.72 665.76C558.43 665.19 557.54 663.99 559.19 660.76C560.76 657.68 561.73 654.29 562.89 651C564.97 645.107 569.12 642.067 575.34 641.88C576.83 641.84 578.35 642.02 579.82 641.84C583.91 641.34 585.11 643.3 584.83 647.07C584.61 650.04 584.79 653.05 584.79 656.04H584.78Z" fill="#0D2F6B"/>
<path d="M144.59 130.1C141.17 136.59 137.97 142.76 136.73 149.67C136.31 152.03 135.06 152.01 133.12 151.27C127.92 149.28 122.55 148.55 117.01 149.62C115.35 149.94 113.57 150.2 113.14 147.81C112.28 143.02 110.18 138.77 106.57 134.41C119.64 132.93 131.88 131.54 144.59 130.1Z" fill="#4C808C"/>
<path d="M543.85 705.61C544.23 705.61 543.89 705.65 543.56 705.61C542.7 705.49 537.87 693.88 538.54 693.42C539.15 693 540.07 692.89 540.85 692.88C553.32 692.71 565.8 693.25 578.24 691.82C580.92 691.51 582.59 692.15 581.19 695.4C580.61 696.76 579.78 698.43 580.11 699.69C581.74 706.08 577.27 704.65 573.95 704.75C564.15 705.03 554.32 704.29 543.84 705.61H543.85Z" fill="#0D2F6B"/>
<path d="M540.45 95.56C535.8 101.33 533.2 106.67 530.8 112.12C529.89 114.18 529.06 115.3 526.38 114.53C521.59 113.15 516.65 112.37 511.66 113.82C510.86 114.05 509.72 114.26 509.43 113.39C507.7 108.13 502.78 104.75 500.89 98.76C513.9 97.71 526.56 96.69 540.44 95.57L540.45 95.56Z" fill="#4C808C"/>
<path d="M515.81 702.83C509.11 702.58 503.48 701.45 498.3 698.45C496.24 697.25 495.36 695.84 496.86 693.62C497.23 693.07 497.49 692.45 497.8 691.86C501.41 685.02 501.37 685.28 508.92 686.25C513.5 686.84 518.21 686.6 522.85 686.45C525.22 686.37 526.62 686.81 527 689.42C527.21 690.86 527.92 692.26 528.57 693.6C531.61 699.88 531.4 700.37 524.38 701.63C521.28 702.18 518.14 702.51 515.8 702.83H515.81Z" fill="#4C808C"/>
<path d="M214.44 122.74C227.03 121.39 238.18 120.2 250.02 118.93C247.5 124.49 245.16 129.49 242.97 134.57C242.3 136.13 241.34 135.85 240.17 135.52C235.07 134.09 229.95 134.14 225.06 136.13C222.26 137.27 221.6 135.92 220.95 133.74C219.82 129.96 218.99 125.99 214.44 122.73V122.74Z" fill="#4C808C"/>
<path d="M556.05 314.92C547.72 310.36 540.85 311.7 534.44 316.78C532.46 318.35 531.81 317.3 531.8 315.34C531.77 309.7 531.58 304.05 531.86 298.43C532.09 293.92 538.77 292.03 544.02 294.98C551.38 299.1 554.64 305.82 556.04 314.92H556.05Z" fill="#363636"/>
<path d="M596.82 684.7C600.65 683.71 604.98 681.15 608.18 682.15C611.52 683.2 610.45 688.79 611.79 692.25C614.36 698.91 610.78 704.22 603.52 704.95C600.16 705.29 596.98 704.47 593.72 703.87C589.13 703.02 587.73 700.97 589.72 696.72C595.99 695.02 596.43 689.88 596.82 684.71V684.7Z" fill="#4C808C"/>
<path d="M308.94 205.94C291.01 205.94 273.08 205.94 255.14 205.94C253.79 205.94 252.47 205.9 251.45 204.83C250.25 203.58 249.29 202.44 252.01 201.86C256.21 200.96 260.37 199.27 264.59 199.13C276.16 198.73 287.82 197.67 299.22 200.91C302.67 201.89 306.04 203.06 308.93 205.94H308.94Z" fill="#363636"/>
<path d="M664.71 297.27C662.95 298.85 661.25 298.62 659.63 298.67C645.84 299.07 632.05 299.39 618.27 299.85C615.4 299.95 613.67 299.74 613.68 296.03C613.69 292.5 615.15 292.01 618.14 291.95C628.41 291.78 638.69 291.74 648.96 291.26C654.29 291.02 659.37 294.93 664.7 297.27H664.71Z" fill="#4C808C"/>
<path d="M294.79 681.72C295.45 672.7 299.21 664.42 301.01 655.66C305.98 631.51 313.91 608.3 323.99 585.82C324.66 584.32 324.81 582.02 327.37 582.09C323.94 591.42 320.65 600.8 317.06 610.07C309.03 630.76 304.62 652.45 299.08 673.83C298.37 676.56 297.67 679.26 296.17 681.69C295.71 681.7 295.25 681.72 294.8 681.73L294.79 681.72Z" fill="#0B0D0D"/>
<path d="M596.94 91.2C601.98 90.32 607.1 91.25 612.24 90.13C615.11 89.5 617.13 93.27 618.72 95.66C620.13 97.78 617.16 98.47 616.26 99.88C611.48 107.34 604.79 108.56 596.89 105.85C596.91 100.97 596.93 96.09 596.94 91.22V91.2Z" fill="#4C808C"/>
<path d="M232.83 694.94H209.85C214.55 689.31 218.32 684.27 221.02 678.52C221.75 676.96 223.42 677.57 224.59 677.94C227.34 678.83 230.15 678.65 232.95 678.84C232.91 684.21 232.88 689.57 232.84 694.94H232.83Z" fill="#38636E"/>
<path d="M693.96 645.24C696.74 644.83 699.5 644.28 702.3 644.05C704.54 643.86 707.75 641.7 708.71 645.24C709.72 648.96 712.13 653.33 707.93 656.72C703.87 660.01 699.1 661.74 693.81 661.83C693.86 656.3 693.91 650.77 693.96 645.24Z" fill="#4C808C"/>
<path d="M531.15 268.43C538.22 275.37 543.5 283.14 548.07 292.67C542.47 290.52 537.74 289.07 532.86 291.7C531.58 292.39 531.16 291.28 531.15 290.16C531.15 282.92 531.15 275.67 531.15 268.43Z" fill="#D5D5D5"/>
<path d="M232.83 694.94C232.87 689.57 232.9 684.21 232.94 678.84C239.24 676.78 239 676.82 239.99 683.04C240.56 686.59 242.07 689.99 243.15 693.46C243.05 694.18 242.95 694.9 242.85 695.62C239.5 695.52 236.09 696.15 232.82 694.93L232.83 694.94Z" fill="#4C808C"/>
<path d="M693.96 645.24C693.91 650.77 693.86 656.3 693.81 661.83C692.66 661.88 691.51 662.03 690.37 661.97C685.1 661.66 684.01 660.28 684.99 655.15C685.27 653.7 685.91 652.29 685.98 650.84C686.27 645.5 689.01 643.85 693.95 645.24H693.96Z" fill="#38636E"/>
<path d="M596.94 91.2C596.92 96.08 596.9 100.96 596.89 105.83C594.09 107.11 592.44 107.23 591.94 103.18C591.25 97.53 586.26 95.15 581.15 92.02C587.01 92.2 591.88 90.5 596.95 91.19L596.94 91.2Z" fill="#38636E"/>
<path d="M531.26 387.09V360.98C533.27 369.62 532.79 378.35 532.72 387.06L531.26 387.09Z" fill="#363636"/>
<path d="M596.82 684.7C596.43 689.87 595.99 695.01 589.72 696.71C589.58 693.19 591.37 690.1 592.02 686.75C592.55 684.01 594.95 684.79 596.82 684.7Z" fill="#396570"/>
<path d="M677.82 297.84C677.85 294.81 677.89 291.77 677.92 288.74C682.58 290.43 680.99 294.4 680.77 297.54C680.62 299.71 678.9 298.38 677.82 297.85V297.84Z" fill="#38636E"/>
<path d="M242.86 695.63C242.96 694.91 243.06 694.19 243.16 693.47C243.87 694.3 244.75 695.16 242.86 695.63Z" fill="#38636E"/>
<path d="M877.62 200.85C877.32 204.19 876.12 207.62 874.36 210.87C865.35 227.49 852.41 240.92 838.98 253.89C826.38 266.05 812.66 276.85 797.9 286.31C791.12 290.65 783.89 293.98 776.34 296.57C772.04 298.04 767.92 296.69 765.01 293.31C762.43 290.31 763.02 286.71 765.05 283.54C782.66 256.06 802.69 230.66 828.66 210.47C838.29 202.98 848.45 196.36 860.05 192.26C863.39 191.08 866.82 190.38 870.35 191.03C874.77 191.85 877.64 195.68 877.62 200.85Z" fill="#C60632"/>
<path d="M750.44 327.92C742.7 328 738.54 322.43 740.78 314.98C743.19 306.95 753.13 300.61 761.48 301.8C767.92 302.71 771.42 308.8 769.23 315.27C766.94 322.03 758.32 327.84 750.45 327.92H750.44Z" fill="#C60632"/>
<path d="M854.07 291.79C857.62 291.63 861.09 292.07 864.42 293.2C870.52 295.27 872.73 300.34 870.21 306.32C868.46 310.46 865.33 313.47 861.69 315.87C842.21 328.76 820.4 335.51 797.71 339.81C794.68 340.39 791.21 340.8 789.1 337.53C786.99 334.25 787.73 330.93 789.25 327.56C792.42 320.54 797.37 315.08 803.49 310.55C818.55 299.4 835.14 292.45 854.07 291.78V291.79Z" fill="#C60632"/>
<path d="M782.44 346.62C782.29 352.17 775.88 357.96 769.92 357.91C765.66 357.88 762.99 355.16 763.2 351.07C763.49 345.25 769.83 338.72 775.02 338.91C779.32 339.06 782.55 342.43 782.44 346.63V346.62Z" fill="#C60632"/>
<path d="M737.65 250.09C738.81 235.64 744.17 223.06 754.52 212.76C755.8 211.49 757.35 210.39 758.96 209.57C763.83 207.1 768.04 209.39 768.78 214.83C769.36 219.08 768.21 223.1 766.85 227.04C762.72 238.94 756.49 249.73 749.11 259.87C747.69 261.82 746.2 264.33 743.16 263.53C740.22 262.76 739.24 260.29 738.65 257.51C738.14 255.06 737.48 252.66 737.64 250.09H737.65Z" fill="#C60632"/>
<path d="M745.68 275.63C744.95 278.66 744.54 282.53 740.34 282.75C735.79 282.99 735.32 278.96 735.07 275.71C734.81 272.19 736.49 269.27 740.38 269.27C744.01 269.27 745.3 272.12 745.68 275.64V275.63Z" fill="#C60632"/>
<path d="M240.12 342.83C240.12 309.35 240.14 275.88 240.08 242.4C240.08 240.04 240.93 238.44 242.44 236.69C247.98 230.25 254.38 227.52 263.29 227.75C287.25 228.37 311.25 228.32 335.19 226.78C378.76 223.98 422.36 223.48 466 224.18C477.67 224.37 488.8 226.26 498.89 232.58C505.14 236.5 509 241.02 508.95 249.39C508.59 307.68 508.75 365.98 508.78 424.27C508.78 430.09 508.93 435.92 509.27 441.73C509.4 444 508.56 445.5 507.09 447C503.19 450.99 498.3 452.73 492.97 453.87C480.37 456.58 467.53 456.68 454.76 457.55C433.31 459.01 411.81 459.24 390.35 458.44C360.59 457.33 330.86 455.43 301.11 454.19C287.97 453.64 274.79 453.57 261.64 453.88C255.39 454.02 249.89 452.36 244.32 450.05C240.87 448.62 239.88 446.41 239.9 442.74C240.04 413.09 239.98 383.45 239.98 353.8C239.98 350.14 239.98 346.48 239.98 342.81H240.13L240.12 342.83ZM503.81 282.98C503.81 282.24 503.8 281.49 503.79 280.75C503.85 273.59 503.94 266.43 503.95 259.26C503.98 242.6 503.99 242.55 489.01 235.1C484.46 232.84 480.09 229.6 474.41 231.19C474.31 232.94 477.56 234.52 475.05 236.34C472.88 237.91 471.4 235.79 469.85 234.69C467.46 233.01 465.61 230.74 462.11 230.7C417.78 230.26 373.47 230.51 329.17 232.25C324.93 232.42 321.5 233.68 318.17 236.13C286.08 259.75 263.87 291.14 246.82 326.61C245.84 328.66 245.86 330.79 245.86 332.96C245.86 358.12 245.86 383.28 245.86 408.44C245.86 413.82 245.86 419.19 245.86 425.47C249.52 423.05 252.24 421.2 255.01 419.43C257.81 417.63 260.62 415.83 263.5 414.16C264.74 413.44 266.43 412.37 267.43 414.2C268.38 415.94 266.65 416.87 265.43 417.65C260.54 420.81 255.54 423.82 250.69 427.05C246.36 429.93 244.1 438.17 246.14 442.77C246.59 443.78 247.36 444.35 248.31 444.67C252.37 446.06 256.18 448.02 260.71 448.09C290.7 448.58 320.7 448.99 350.62 451.12C392.42 454.09 434.18 453.88 475.94 450.85C484.03 450.26 492.3 450.1 499.73 446.03C502 444.78 503.94 443.31 503.92 440.35C503.9 436.85 503.88 433.35 503.97 429.85C504.02 427.64 503.03 427.28 501.19 427.97C486.05 433.72 471.2 430.99 456.12 427.12C433.32 421.27 418.2 407.8 411.75 385.02C411 382.37 409.89 382.21 407.57 383.04C402.56 384.83 397.5 386.52 392.36 387.9C390.05 388.52 389.59 389.67 389.58 391.77C389.57 398.11 388.88 404.41 387.81 410.66C385.71 422.96 382.27 434.72 373.34 444.03C370.17 447.34 366.28 449.41 361.66 447.28C357.4 445.32 356.79 441.29 356.91 437.1C356.95 435.77 356.87 434.39 357.18 433.12C359.8 422.12 362.39 411.12 365.23 400.17C366.03 397.07 368.11 394.3 368.01 390.52C362.48 391.99 357.27 393.07 351.98 393.24C338.36 393.68 324.87 392.97 313.12 384.91C304.29 378.85 304.2 372.01 312.95 365.89C317.98 362.38 323.55 359.64 328.85 356.5C336.08 352.22 338.29 348.01 336.39 339.92C333.69 328.39 336.12 318.1 342.98 308.78C349.7 299.65 355.88 290.17 362.02 280.66C366.37 273.91 371.43 267.77 378.12 263.08C387.34 256.62 397.11 255.33 407.46 259.72C422.2 265.98 430.67 277.55 434.86 292.66C436.4 298.21 436.66 303.95 437.06 310.17C438.88 309.08 440.13 308.33 441.39 307.59C458.33 297.51 476.34 295.31 495.28 300.42C504.46 302.9 504.3 303.01 504.01 293.49C503.91 290.25 503.01 290.49 500.55 291.55C485.24 298.13 471.61 293.24 458.52 285.09C457.7 284.58 456.55 284.03 457.26 282.84C457.95 281.67 459.02 282.34 459.86 282.84C464.31 285.48 468.87 287.92 473.84 289.4C483.03 292.13 492.13 292.99 500.99 288.06C503.1 286.88 504.51 285.59 503.8 282.98H503.81ZM503.95 382.15C503.95 378.54 503.75 374.91 504.01 371.32C504.23 368.27 503 367.35 500.14 366.97C493.95 366.14 488.81 363.35 485.31 357.89C480.4 350.25 473 346.47 464.32 344.83C462.19 344.43 460.05 344.11 457.95 343.58C451.84 342.04 449.44 337.06 451.95 331.29C453.62 327.44 456.77 325.51 460.65 324.45C470.76 321.7 481.02 321.54 491.38 322.35C495.45 322.67 500.91 325.47 503.16 323.04C505.28 320.75 503.66 315.14 504.02 311.02C504.29 307.84 503.11 306.19 500.13 305.14C479.89 298.01 460.54 299.41 442.15 310.85C439.71 312.37 437.61 314.22 435.89 316.52C426.83 328.63 419.7 341.77 415.7 356.39C409.09 380.6 420.8 406.15 443.35 417.13C453.48 422.06 464.31 424.65 475.45 426.04C482.11 426.87 488.68 426.98 495.23 424.98C503.93 422.32 503.71 422.44 504.07 413.33C504.29 407.64 504.3 402.81 496.79 402.54C495.55 402.49 494.3 401.63 493.13 401.01C487.64 398.1 481.99 398.15 476.14 399.78C471.12 401.18 466.59 403.67 461.86 405.71C456.81 407.89 451.76 408.56 447.51 404.18C443.21 399.76 443.64 394.53 445.8 389.28C451.04 376.58 463.6 370.89 476.52 375.7C480.58 377.21 484.41 378 488.65 377.07C494.52 375.78 499.63 376.84 503.98 382.15H503.95ZM388.86 370.38C389.19 373.07 388.72 376.54 389.32 380.05C390 384 391.85 384.57 395.19 383.27C399.06 381.76 402.95 380.29 406.92 379.07C409.34 378.33 410.31 376.95 409.62 374.65C408.1 369.61 409.67 364.72 410.53 359.93C412.87 346.95 418.95 335.45 426.14 324.61C430.81 317.58 433.7 310.69 432.07 301.84C429.82 289.55 425.89 278.31 416.33 269.9C409.67 264.04 401.81 260.09 392.69 261.26C383.13 262.49 375.99 268.28 370.34 275.8C361.97 286.95 355.34 299.3 346.7 310.3C340.04 318.78 338.33 328.43 340.6 339.02C342.49 347.84 340.06 355.13 331.63 359.67C327.24 362.03 322.88 364.45 318.58 366.98C315.05 369.05 309.91 370.66 310.31 375.34C310.68 379.8 315.48 381.83 319.3 383.87C319.44 383.95 319.62 383.96 319.78 384.02C335.34 390.14 351.14 390.19 367.15 386.06C368.5 385.71 369.64 385.46 370.08 383.86C373.86 370.28 377.05 356.72 370.08 343.15C368.41 339.89 366.66 336.66 365.18 333.32C361.68 325.4 357.89 317.46 360.65 308.44C365 294.25 374.22 285.71 389.25 283.59C400.79 281.96 412.34 291.44 412.95 303C413.57 314.78 408.81 324.88 401.63 333.07C392.15 343.86 388.64 355.89 388.85 370.42L388.86 370.38ZM390.64 289.66C372.83 289.61 360.99 307.35 367.49 324.6C368.95 328.47 370.93 332.19 373.05 335.76C378.38 344.73 379.93 354.39 378.88 364.62C378.23 370.93 377.02 377.13 375.23 383.22C371.3 396.63 367.33 410.04 363.45 423.47C362.25 427.62 361.13 431.82 360.92 436.17C360.78 439.03 360.61 442.23 363.72 443.59C367.07 445.05 369.37 442.6 371.43 440.38C375.46 436.03 378.17 430.9 380.03 425.3C383.15 415.91 384.82 406.24 385 396.37C385.18 386.22 384.36 376.02 385.08 365.91C385.92 354.15 387.31 342.24 396.03 332.98C402.16 326.47 405.69 318.62 407.43 310.02C409.69 298.88 401.95 289.7 390.63 289.67L390.64 289.66ZM245.92 280.73C245.92 287.88 245.94 295.04 245.91 302.19C245.91 304.13 245.98 305.57 248.53 306.14C250.74 306.63 251.93 306.26 252.96 304.38C254.31 301.91 255.75 299.47 257.22 297.07C265.64 283.31 275.51 270.62 286.05 258.43C288.31 255.82 287.9 255.34 284.56 254.74C272.77 252.62 261.06 254.63 249.32 254.9C246.31 254.97 245.9 256.86 245.92 259.27C245.96 266.42 245.93 273.58 245.92 280.73ZM503.86 345.86C503.86 341.37 503.63 336.86 503.93 332.39C504.16 329.04 502.82 327.52 499.71 326.97C489.65 325.19 479.5 325.57 469.4 326.07C465.52 326.26 461.62 327.7 457.9 329.06C454.99 330.13 453.48 332.79 454.09 335.88C454.67 338.82 456.42 340.72 459.93 340.92C471.86 341.62 481.65 346.33 488.34 356.67C491.04 360.84 495.44 362.55 500.02 363.71C502.77 364.41 503.98 363.25 503.88 360.32C503.73 355.5 503.84 350.67 503.84 345.85L503.86 345.86ZM312.03 234.18C310.48 233.98 309.87 233.84 309.26 233.84C292.3 233.78 275.39 235.35 258.41 234.9C250.49 234.69 245.45 240.6 245.87 248.61C246.02 251.35 246.73 251.85 249.5 251.3C262.76 248.64 276.08 247.47 289.45 250.78C291.02 251.17 292.78 251.32 294.21 250.05C299.89 244.98 305.58 239.92 312.02 234.17L312.03 234.18ZM463.59 401.34C465.53 400.54 467.49 399.78 469.41 398.93C477.87 395.18 486.29 394.34 494.79 398.92C496.66 399.92 498.82 400.4 500.89 400.99C501.77 401.24 502.92 401.9 503.6 400.82C504.24 399.81 503.4 398.94 502.75 398.2C498.59 393.37 493.64 390.08 487.02 389.73C477.19 389.22 470.37 395.12 463.59 401.34ZM465.6 378.07C459.23 379.39 457.33 381.76 458.86 386.33C459.3 387.64 460.02 388.8 461.48 388.98C463.1 389.18 463.84 387.94 464.25 386.65C465.14 383.88 466.32 381.13 465.59 378.07H465.6Z" fill="#0B0D0D"/>
<path d="M394.53 531.61C361.72 531.84 327.58 531.43 293.46 530.37C277.99 529.89 262.5 530.56 247.05 529.12C242.22 528.67 240.09 526.17 240.05 521.8C239.92 506.81 239.65 491.81 240.14 476.84C240.4 468.82 243.46 467.26 254.01 467.32C270.15 467.42 286.31 467.43 302.44 468.01C342.56 469.46 382.71 467.57 422.81 469.14C445.05 470.01 467.45 469.02 489.44 473.68C489.93 473.78 490.44 473.79 490.92 473.88C507.12 477.18 508.92 479.35 508.92 495.58C508.92 502.74 508.76 509.91 509.01 517.06C509.12 520.19 507.83 521.84 505.39 523.46C497.74 528.55 489.15 530.08 480.25 530.55C452.13 532.02 423.99 532.13 394.52 531.59L394.53 531.61ZM357.99 525.78C358.72 526.72 359.78 526.5 360.74 526.5C400.17 526.69 439.62 527.68 479.03 525.69C485.18 525.38 491.31 524.67 497.14 522.51C501.74 520.8 504.98 518.37 504.12 512.42C503.44 507.69 503.98 502.79 503.98 497.96C503.98 488.14 499.09 482.407 489.31 480.76C469.26 477.41 448.98 476.45 428.74 475.06C420.43 474.49 412.51 475.27 404.92 478.76C405.31 474.43 402.2 474.26 399.21 473.96C393.71 473.42 388.28 474.74 382.83 474.68C367.38 474.5 351.95 474.92 336.48 474.09C320.55 473.23 304.54 473.84 288.56 473.77C284.24 473.75 279.9 473.84 275.6 473.45C267.14 472.69 258.79 472.24 250.39 474.36C247 475.22 245.78 476.5 245.83 480.02C246.02 492.5 245.88 504.98 245.91 517.46C245.92 522.98 247.57 524.82 252.95 524.71C275.24 524.26 297.48 525.73 319.76 525.86C321.57 525.86 323.38 526.29 325.19 526.35C336.12 526.69 347.07 527.55 357.97 525.78H357.99Z" fill="#08090A"/>
<path d="M325.13 651.29C320.89 643.27 321.09 635.4 325.13 627.59V651.29Z" fill="#0B0D0D"/>
<path d="M336.15 651.04C333.75 647.39 335.68 644.2 336.48 641C336.63 640.39 337.35 639.84 338 640.24C338.47 640.53 338.92 641.24 338.96 641.8C339.19 645.12 338.66 648.23 336.15 651.04Z" fill="#0B0D0D"/>
<path d="M327.23 582.09C326.94 581.22 326.58 580.33 327.48 579.63C327.56 579.57 328.12 580.13 328.46 580.41C328.15 581.04 328.27 581.99 327.24 582.1L327.23 582.09Z" fill="#0B0D0D"/>
<path d="M170.84 637.76C171.02 636.61 170.6 634.76 172.3 635.26C175.04 636.07 175.14 638.98 175.85 641.24C176.12 642.11 175.95 643.71 174.72 643.36C172.04 642.59 171.41 640.06 170.85 637.76H170.84Z" fill="#08090A"/>
<path d="M295.02 612.91C294.52 614.42 295.8 617.16 293.7 617.08C291.11 616.97 291.92 614.05 291.91 612.24C291.91 610.78 291.06 608.09 293.22 608.19C296.07 608.32 294.35 611.33 295.01 612.91H295.02Z" fill="#08090A"/>
<path d="M678.83 469.79C686.28 472.68 688.12 478.15 687.78 485.87C687.16 499.76 687.61 513.7 687.6 527.63C687.6 536.6 686.46 537.92 677.76 539.18C665.03 540.29 652.3 541.43 639.56 542.49C636.91 542.71 634.24 542.77 631.58 542.65C619 542.1 607.34 537.85 607.19 520C607.09 507.37 607.38 494.73 607.74 482.11C607.87 477.5 613.12 472.48 618.06 472.05C638.27 470.26 658.54 469.62 678.83 469.8V469.79ZM681.13 504.82H681.18C681.18 498.16 681.16 491.5 681.18 484.84C681.21 475 681.21 474.7 671.05 475C655.58 475.47 640.12 476.38 624.66 477.16C623.01 477.24 621.35 477.57 619.76 478.03C619.08 478.23 618.3 478.96 618.05 479.63C617.65 480.7 618.86 480.87 619.5 481.27C622.04 482.86 624.74 484.21 627.13 485.99C635.55 492.25 635.35 499.63 625.36 502.31C613.79 505.42 612.43 512.22 613.76 521.8C613.9 522.78 613.77 523.8 613.85 524.79C614.36 531.75 618.31 535.99 625.14 537.19C628.95 537.86 632.77 537.91 636.59 537.57C650.34 536.35 664.08 534.95 677.84 533.82C680.42 533.61 681.2 532.82 681.16 530.28C681.02 521.79 681.11 513.3 681.11 504.81L681.13 504.82ZM615.66 485.25C614.41 484.94 613.91 485.66 613.9 486.83C613.87 491.47 613.87 496.1 613.88 500.74C613.88 502.29 614.6 502.85 616.1 502.17C619.56 500.6 623.08 499.15 626.45 497.41C627.83 496.7 629.5 495.52 627.96 493.5C624.82 489.38 620.27 487.34 615.65 485.26L615.66 485.25Z" fill="#0B0D0D"/>
<path d="M547.18 341.17C547.01 338.6 547.61 336.89 548.47 335.29C549.5 333.36 550.23 330.18 553.18 331.63C555.73 332.89 554.44 335.63 553.76 337.83C553.21 339.64 552.05 341 550.73 342.25C550.02 342.93 549.22 343.8 548.19 343.45C546.78 342.97 547.22 341.56 547.18 341.16V341.17Z" fill="#D5D5D5"/>
<path d="M503.81 282.98C504.52 285.59 503.11 286.88 501 288.06C492.14 292.99 483.04 292.13 473.85 289.4C468.87 287.92 464.32 285.49 459.87 282.84C459.04 282.35 457.97 281.68 457.27 282.84C456.56 284.04 457.72 284.59 458.53 285.09C471.62 293.23 485.25 298.13 500.56 291.55C503.02 290.49 503.92 290.25 504.02 293.49C504.3 303.01 504.46 302.89 495.29 300.42C476.35 295.31 458.34 297.51 441.4 307.59C440.14 308.34 438.89 309.09 437.07 310.17C436.66 303.95 436.4 298.21 434.87 292.66C430.69 277.55 422.21 265.98 407.47 259.72C397.12 255.33 387.35 256.61 378.13 263.08C371.44 267.77 366.39 273.91 362.03 280.66C355.89 290.18 349.72 299.66 342.99 308.78C336.13 318.1 333.69 328.39 336.4 339.92C338.3 348.02 336.09 352.22 328.86 356.5C323.56 359.64 317.99 362.38 312.96 365.89C304.21 372.01 304.29 378.85 313.13 384.91C324.88 392.97 338.37 393.67 351.99 393.24C357.28 393.07 362.49 391.99 368.02 390.52C368.12 394.3 366.05 397.07 365.24 400.17C362.4 411.11 359.81 422.12 357.19 433.12C356.89 434.4 356.96 435.77 356.92 437.1C356.8 441.29 357.41 445.33 361.67 447.28C366.29 449.4 370.18 447.33 373.35 444.03C382.28 434.72 385.72 422.95 387.82 410.66C388.89 404.41 389.58 398.12 389.59 391.77C389.59 389.67 390.06 388.52 392.37 387.9C397.51 386.52 402.57 384.84 407.58 383.04C409.9 382.21 411.01 382.37 411.76 385.02C418.21 407.8 433.32 421.27 456.13 427.12C471.21 430.99 486.05 433.72 501.2 427.97C503.04 427.27 504.03 427.63 503.98 429.85C503.89 433.35 503.91 436.85 503.93 440.35C503.95 443.31 502.01 444.79 499.74 446.03C492.31 450.1 484.04 450.27 475.95 450.85C434.19 453.87 392.42 454.09 350.63 451.12C320.71 448.99 290.71 448.58 260.72 448.09C256.19 448.02 252.38 446.06 248.32 444.67C247.37 444.35 246.59 443.77 246.15 442.77C244.11 438.17 246.38 429.93 250.7 427.05C255.55 423.82 260.54 420.81 265.44 417.65C266.65 416.86 268.39 415.94 267.44 414.2C266.44 412.37 264.75 413.44 263.51 414.16C260.63 415.83 257.82 417.63 255.02 419.43C252.26 421.21 249.54 423.05 245.87 425.47C245.87 419.19 245.87 413.81 245.87 408.44C245.87 383.28 245.87 358.12 245.87 332.96C245.87 330.79 245.84 328.66 246.83 326.61C263.88 291.14 286.09 259.76 318.18 236.13C321.51 233.68 324.94 232.41 329.18 232.25C373.48 230.52 417.79 230.26 462.12 230.7C465.61 230.73 467.46 233 469.86 234.69C471.42 235.78 472.89 237.91 475.06 236.34C477.57 234.52 474.32 232.93 474.42 231.19C480.1 229.59 484.47 232.83 489.02 235.1C504.01 242.55 503.99 242.6 503.96 259.26C503.95 266.42 503.85 273.58 503.8 280.75C484.03 287.53 466.2 285.01 451.05 269.72C447.89 266.53 444.76 263.32 441.55 260.19C440.53 259.19 439.27 257.59 437.78 258.96C436.12 260.48 438.05 261.53 438.9 262.61C442.7 267.44 447.7 271.02 452.31 274.94C467.74 288.07 485.02 290.72 503.81 283V282.98ZM303.6 310.4C296.05 309.88 291.42 313.41 285.97 315.68C286.32 312.3 287.94 310.5 288.8 308.39C289.63 306.35 291.66 304.5 290.21 300.82C285.31 307.9 281.78 314.59 278.51 321.42C277.97 322.55 277.72 323.71 278.88 324.55C280 325.35 281.11 324.82 282.09 324.11C283.98 322.75 285.85 321.37 287.71 319.98C290.18 318.13 291.82 317.26 291.99 321.78C292.12 325.17 292.52 329.1 297.8 330.16C295.21 322.42 291.29 314.67 303.61 310.39L303.6 310.4ZM438.74 266.94C438.49 267.28 438.24 267.62 437.98 267.95C442.89 273.31 448.04 278.42 454.18 282.43C454.96 282.94 455.91 283.76 456.75 282.58C457.31 281.78 456.89 280.98 456.17 280.42C450.36 275.92 444.55 271.43 438.74 266.94ZM484.94 247.39C484.88 247.58 485.12 247.12 485.18 246.64C485.44 244.45 484.21 242.85 482.89 241.37C481.83 240.18 480.92 238.57 478.93 238.88C478.55 238.94 478.08 239.39 477.94 239.76C477.33 241.33 482.44 247.64 484.94 247.39Z" fill="#D5D5D5"/>
<path d="M503.95 382.15C499.6 376.84 494.49 375.78 488.62 377.07C484.38 378 480.55 377.2 476.49 375.7C463.57 370.9 451.02 376.59 445.77 389.28C443.6 394.52 443.18 399.75 447.48 404.18C451.73 408.55 456.78 407.88 461.83 405.71C466.56 403.67 471.09 401.18 476.11 399.78C481.96 398.15 487.61 398.11 493.1 401.01C494.27 401.63 495.52 402.5 496.76 402.54C504.28 402.81 504.27 407.64 504.04 413.33C503.68 422.44 503.91 422.33 495.2 424.98C488.65 426.98 482.08 426.88 475.42 426.04C464.28 424.64 453.45 422.06 443.32 417.13C420.77 406.15 409.06 380.6 415.67 356.39C419.66 341.77 426.8 328.63 435.86 316.52C437.58 314.23 439.68 312.37 442.12 310.85C460.51 299.41 479.86 298 500.1 305.14C503.08 306.19 504.27 307.84 503.99 311.02C503.64 315.14 505.25 320.75 503.13 323.04C500.89 325.46 495.43 322.66 491.35 322.35C480.99 321.54 470.73 321.7 460.62 324.45C456.74 325.51 453.59 327.44 451.92 331.29C449.42 337.06 451.81 342.03 457.92 343.58C460.01 344.11 462.16 344.43 464.29 344.83C472.97 346.48 480.37 350.25 485.28 357.89C488.79 363.34 493.92 366.13 500.11 366.97C502.97 367.36 504.2 368.27 503.98 371.32C503.72 374.91 503.92 378.54 503.92 382.15H503.95Z" fill="#D5D5D5"/>
<path d="M388.86 370.38C388.65 355.86 392.16 343.83 401.64 333.03C408.82 324.85 413.58 314.74 412.96 302.96C412.35 291.4 400.8 281.92 389.26 283.55C374.24 285.67 365.02 294.21 360.66 308.4C357.89 317.42 361.68 325.37 365.19 333.28C366.67 336.63 368.42 339.86 370.09 343.11C377.06 356.69 373.87 370.25 370.09 383.82C369.65 385.41 368.51 385.67 367.16 386.02C351.16 390.15 335.35 390.1 319.79 383.98C319.64 383.92 319.46 383.91 319.31 383.83C315.49 381.79 310.69 379.75 310.32 375.3C309.93 370.62 315.07 369.01 318.59 366.94C322.89 364.42 327.25 362 331.64 359.63C340.07 355.09 342.51 347.8 340.61 338.98C338.33 328.39 340.04 318.74 346.71 310.26C355.35 299.27 361.98 286.92 370.35 275.76C376 268.23 383.14 262.44 392.7 261.22C401.82 260.05 409.69 264 416.34 269.86C425.9 278.28 429.83 289.52 432.08 301.8C433.7 310.65 430.82 317.54 426.15 324.57C418.95 335.41 412.87 346.92 410.54 359.89C409.68 364.69 408.11 369.58 409.63 374.61C410.32 376.91 409.35 378.29 406.93 379.03C402.96 380.25 399.07 381.72 395.2 383.23C391.85 384.53 390.01 383.96 389.33 380.01C388.72 376.5 389.2 373.03 388.87 370.34L388.86 370.38Z" fill="#363636"/>
<path d="M390.64 289.66C401.95 289.69 409.7 298.87 407.44 310.01C405.69 318.61 402.17 326.46 396.04 332.97C387.32 342.23 385.93 354.14 385.09 365.9C384.37 376 385.19 386.2 385.01 396.36C384.83 406.23 383.16 415.9 380.04 425.29C378.18 430.88 375.47 436.02 371.44 440.37C369.38 442.59 367.07 445.05 363.73 443.58C360.62 442.22 360.79 439.02 360.93 436.16C361.14 431.81 362.26 427.61 363.46 423.46C367.33 410.03 371.31 396.63 375.24 383.21C377.02 377.12 378.24 370.92 378.89 364.61C379.94 354.38 378.39 344.73 373.06 335.75C370.94 332.18 368.96 328.46 367.5 324.59C361.01 307.34 372.85 289.6 390.65 289.65L390.64 289.66ZM371.9 315.13C372.11 318.74 371.73 320.94 372.94 322.9C374.3 325.11 375.97 327.3 378.84 326.22C381.75 325.13 380.96 322.44 380.28 320.24C378.96 315.98 379.1 311.78 380.28 307.56C380.69 306.08 381.2 304.49 379.52 303.6C377.56 302.55 376.37 304.09 375.51 305.47C373.39 308.86 371.63 312.42 371.91 315.13H371.9Z" fill="#22C8F8"/>
<path d="M245.93 280.73C245.93 273.58 245.96 266.42 245.92 259.27C245.91 256.85 246.31 254.97 249.32 254.9C261.06 254.63 272.77 252.62 284.56 254.74C287.9 255.34 288.31 255.82 286.05 258.43C275.52 270.61 265.65 283.31 257.22 297.07C255.75 299.48 254.31 301.91 252.96 304.38C251.93 306.27 250.74 306.64 248.53 306.14C245.98 305.57 245.91 304.13 245.91 302.19C245.94 295.04 245.92 287.88 245.93 280.73Z" fill="#363636"/>
<path d="M503.86 345.86C503.86 350.69 503.75 355.51 503.9 360.33C503.99 363.26 502.79 364.42 500.04 363.72C495.46 362.55 491.05 360.85 488.36 356.68C481.67 346.33 471.88 341.63 459.95 340.93C456.43 340.72 454.69 338.83 454.11 335.89C453.5 332.8 455.01 330.14 457.92 329.07C461.63 327.71 465.54 326.27 469.42 326.08C479.52 325.58 489.67 325.2 499.73 326.98C502.84 327.53 504.17 329.05 503.95 332.4C503.65 336.87 503.88 341.38 503.87 345.87L503.86 345.86ZM460.37 338.56C460.72 339.81 461.45 339.78 462.07 339.82C467.55 340.16 473.44 338.56 478 343.27C478.22 343.49 479.18 343.44 479.26 343.27C479.52 342.74 479.78 341.96 479.57 341.49C478.69 339.52 476.86 338.36 474.92 338.14C470.12 337.61 465.23 336.12 460.37 338.56Z" fill="#363636"/>
<path d="M312.03 234.18C305.59 239.92 299.9 244.99 294.22 250.06C292.8 251.33 291.03 251.17 289.46 250.79C276.09 247.47 262.77 248.65 249.51 251.31C246.73 251.87 246.02 251.36 245.88 248.62C245.45 240.61 250.5 234.69 258.42 234.91C275.39 235.36 292.31 233.79 309.27 233.85C309.88 233.85 310.49 233.99 312.04 234.19L312.03 234.18Z" fill="#363636"/>
<path d="M503.81 282.98C485.01 290.7 467.74 288.05 452.31 274.92C447.7 271 442.7 267.42 438.9 262.59C438.05 261.5 436.11 260.46 437.78 258.94C439.27 257.57 440.53 259.18 441.55 260.17C444.76 263.31 447.89 266.52 451.05 269.7C466.2 285 484.03 287.51 503.8 280.73C503.8 281.47 503.81 282.22 503.82 282.96L503.81 282.98Z" fill="#363636"/>
<path d="M463.59 401.34C470.37 395.12 477.19 389.22 487.02 389.73C493.64 390.07 498.59 393.37 502.75 398.2C503.39 398.95 504.23 399.82 503.6 400.82C502.92 401.89 501.77 401.24 500.89 400.99C498.83 400.4 496.66 399.93 494.79 398.92C486.29 394.34 477.87 395.18 469.41 398.93C467.49 399.78 465.53 400.54 463.59 401.34Z" fill="#C60632"/>
<path d="M465.6 378.07C466.33 381.13 465.14 383.88 464.26 386.65C463.85 387.94 463.11 389.17 461.49 388.98C460.03 388.8 459.31 387.65 458.87 386.33C457.34 381.76 459.23 379.39 465.61 378.07H465.6Z" fill="#D6D6D6"/>
<path d="M357.99 525.78C347.09 527.55 336.15 526.7 325.21 526.35C323.4 526.29 321.59 525.87 319.78 525.86C297.51 525.74 275.26 524.27 252.97 524.71C247.58 524.82 245.94 522.98 245.93 517.46C245.9 504.98 246.04 492.5 245.85 480.02C245.8 476.5 247.02 475.21 250.41 474.36C258.8 472.24 267.16 472.68 275.62 473.45C279.91 473.84 284.26 473.75 288.58 473.77C304.56 473.84 320.57 473.22 336.5 474.09C351.97 474.93 367.4 474.51 382.85 474.68C388.3 474.74 393.73 473.42 399.23 473.96C402.23 474.25 405.33 474.43 404.94 478.75C404.69 478.72 404.5 478.6 404.35 478.39C403.53 478.21 402.72 478.04 401.91 477.87C399.35 479.35 396.56 480.54 394.26 482.36C380.03 493.61 368.17 507.09 357.68 521.83C357.06 522.7 356.92 523.64 357.18 524.66C358.45 524.31 358.28 525.01 358.01 525.79L357.99 525.78Z" fill="#363636"/>
<path d="M357.99 525.78C358.26 525 358.43 524.3 357.16 524.65C359.32 525.37 359.57 523.3 360.29 522.28C371.81 505.89 385.63 491.8 402.04 480.28C402.93 479.8 404.45 480.1 404.35 478.4C404.49 478.6 404.69 478.71 404.93 478.75C412.52 475.27 420.44 474.49 428.75 475.06C448.99 476.45 469.27 477.41 489.32 480.76C499.1 482.393 503.99 488.127 503.99 497.96C503.99 502.79 503.45 507.69 504.13 512.42C504.99 518.37 501.76 520.81 497.15 522.51C491.32 524.67 485.19 525.38 479.04 525.69C439.62 527.68 400.18 526.69 360.75 526.5C359.78 526.5 358.73 526.72 358 525.78H357.99Z" fill="#D5D5D5"/>
<path d="M615.66 485.25C620.28 487.33 624.84 489.37 627.97 493.49C629.51 495.51 627.84 496.69 626.46 497.4C623.09 499.14 619.57 500.59 616.11 502.16C614.61 502.84 613.89 502.28 613.89 500.73C613.87 496.09 613.88 491.46 613.91 486.82C613.91 485.65 614.42 484.93 615.67 485.24L615.66 485.25Z" fill="#363636"/>
<path d="M303.6 310.4C291.28 314.67 295.21 322.43 297.79 330.17C292.51 329.12 292.11 325.19 291.98 321.79C291.81 317.26 290.16 318.14 287.7 319.99C285.84 321.38 283.97 322.76 282.08 324.12C281.1 324.82 279.98 325.36 278.87 324.56C277.71 323.73 277.96 322.57 278.5 321.43C281.78 314.6 285.3 307.91 290.2 300.83C291.65 304.51 289.62 306.36 288.79 308.4C287.93 310.51 286.32 312.31 285.96 315.69C291.41 313.41 296.04 309.88 303.59 310.41L303.6 310.4Z" fill="#0B0D0D"/>
<path d="M438.74 266.94C444.55 271.43 450.37 275.92 456.17 280.42C456.88 280.97 457.31 281.78 456.75 282.58C455.92 283.76 454.97 282.94 454.18 282.43C448.04 278.42 442.89 273.31 437.98 267.95C438.23 267.61 438.48 267.27 438.74 266.94Z" fill="#363636"/>
<path d="M484.94 247.39C482.44 247.65 477.32 241.34 477.94 239.76C478.09 239.38 478.56 238.94 478.93 238.88C480.92 238.56 481.83 240.18 482.89 241.37C484.21 242.85 485.44 244.46 485.18 246.64C485.12 247.12 484.87 247.58 484.94 247.39Z" fill="#363636"/>
<path d="M371.9 315.13C371.62 312.42 373.39 308.86 375.5 305.47C376.36 304.09 377.55 302.55 379.51 303.6C381.19 304.5 380.68 306.09 380.27 307.56C379.1 311.78 378.95 315.99 380.27 320.24C380.95 322.44 381.75 325.13 378.83 326.22C375.96 327.29 374.3 325.11 372.93 322.9C371.72 320.93 372.1 318.74 371.89 315.13H371.9Z" fill="#D5D5D5"/>
<path d="M460.37 338.56C465.23 336.12 470.12 337.61 474.92 338.14C476.86 338.35 478.69 339.51 479.57 341.49C479.78 341.96 479.52 342.74 479.26 343.27C479.17 343.45 478.21 343.5 478 343.27C473.45 338.55 467.55 340.15 462.07 339.82C461.45 339.78 460.73 339.82 460.37 338.56Z" fill="#0B0D0D"/>
<path d="M402.03 480.28C385.62 491.8 371.8 505.89 360.28 522.28C359.56 523.3 359.31 525.37 357.15 524.65C356.9 523.64 357.04 522.7 357.66 521.83C368.15 507.1 380.01 493.62 394.24 482.36C396.54 480.54 399.33 479.35 401.89 477.87C401.94 478.67 401.98 479.48 402.03 480.28Z" fill="#0B0D0D"/>
<path d="M402.03 480.28C401.98 479.47 401.94 478.67 401.89 477.87C402.7 478.04 403.51 478.21 404.33 478.39C404.44 480.1 402.92 479.8 402.03 480.28Z" fill="#08090A"/>
</g>
<defs>
<clipPath id="clip0_7278_41">
<rect width="883.79" height="783.49" fill="white"/>
</clipPath>
</defs>
</svg>
